<ttFont>
    <TTGlyph name="A" xMin="1" yMin="0" xMax="664" yMax="688">
      <contour>
        <pt x="569" y="0" on="1"/>
        <pt x="490" y="201" on="1"/>
        <pt x="177" y="201" on="1"/>
        <pt x="98" y="0" on="1"/>
        <pt x="1" y="0" on="1"/>
        <pt x="282" y="688" on="1"/>
        <pt x="388" y="688" on="1"/>
        <pt x="664" y="0" on="1"/>
      </contour>
      <contour>
        <pt x="334" y="618" on="1"/>
        <pt x="329" y="604" on="1"/>
        <pt x="317" y="563" on="0"/>
        <pt x="293" y="500" on="1"/>
        <pt x="205" y="274" on="1"/>
        <pt x="462" y="274" on="1"/>
        <pt x="374" y="501" on="1"/>
        <pt x="360" y="535" on="0"/>
        <pt x="347" y="577" on="1"/>
      </contour>
    </TTGlyph>
    <TTGlyph name="AFOREMENTIONED_KINZI" xMin="0" yMin="-407" xMax="550" yMax="1011">
      <contour>
        <pt x="466" y="-407" on="1"/>
        <pt x="466" y="-335" on="0"/>
        <pt x="466" y="-220" on="0"/>
        <pt x="465" y="-107" on="0"/>
        <pt x="465" y="7" on="0"/>
        <pt x="465" y="45" on="1"/>
        <pt x="405" y="-10" on="0"/>
        <pt x="282" y="-10" on="1"/>
        <pt x="159" y="-10" on="0"/>
        <pt x="79" y="70" on="1"/>
        <pt x="0" y="150" on="0"/>
        <pt x="0" y="276" on="1"/>
        <pt x="0" y="401" on="0"/>
        <pt x="79" y="480" on="1"/>
        <pt x="159" y="560" on="0"/>
        <pt x="282" y="560" on="1"/>
        <pt x="406" y="560" on="0"/>
        <pt x="489" y="480" on="1"/>
        <pt x="508" y="462" on="0"/>
        <pt x="537" y="422" on="0"/>
        <pt x="550" y="390" on="1"/>
        <pt x="523" y="378" on="0"/>
        <pt x="496" y="365" on="0"/>
        <pt x="470" y="356" on="1"/>
        <pt x="458" y="379" on="0"/>
        <pt x="440" y="405" on="0"/>
        <pt x="427" y="418" on="1"/>
        <pt x="371" y="474" on="0"/>
        <pt x="282" y="474" on="1"/>
        <pt x="197" y="474" on="0"/>
        <pt x="140" y="417" on="1"/>
        <pt x="84" y="359" on="0"/>
        <pt x="84" y="276" on="1"/>
        <pt x="84" y="194" on="0"/>
        <pt x="140" y="133" on="1"/>
        <pt x="197" y="76" on="0"/>
        <pt x="282" y="76" on="1"/>
        <pt x="372" y="76" on="0"/>
        <pt x="428" y="131" on="1"/>
        <pt x="438" y="141" on="0"/>
        <pt x="459" y="171" on="0"/>
        <pt x="471" y="193" on="1"/>
        <pt x="549" y="152" on="1"/>
        <pt x="549" y="-407" on="1"/>
      </contour>
      <contour>
        <pt x="358" y="780" on="1"/>
        <pt x="306" y="780" on="1"/>
        <pt x="295" y="780" on="0"/>
        <pt x="269" y="768" on="0"/>
        <pt x="247" y="748" on="0"/>
        <pt x="233" y="725" on="0"/>
        <pt x="233" y="715" on="1"/>
        <pt x="233" y="693" on="0"/>
        <pt x="264" y="662" on="0"/>
        <pt x="286" y="662" on="1"/>
        <pt x="307" y="662" on="0"/>
        <pt x="323" y="676" on="1"/>
        <pt x="338" y="689" on="0"/>
        <pt x="342" y="718" on="1"/>
        <pt x="423" y="701" on="1"/>
        <pt x="414" y="659" on="0"/>
        <pt x="392" y="631" on="1"/>
        <pt x="373" y="607" on="0"/>
        <pt x="317" y="580" on="0"/>
        <pt x="286" y="580" on="1"/>
        <pt x="258" y="580" on="0"/>
        <pt x="207" y="602" on="0"/>
        <pt x="170" y="639" on="0"/>
        <pt x="148" y="690" on="0"/>
        <pt x="148" y="718" on="1"/>
        <pt x="148" y="756" on="0"/>
        <pt x="186" y="818" on="0"/>
        <pt x="205" y="830" on="1"/>
        <pt x="198" y="836" on="0"/>
        <pt x="177" y="878" on="0"/>
        <pt x="177" y="903" on="1"/>
        <pt x="177" y="925" on="0"/>
        <pt x="195" y="965" on="0"/>
        <pt x="224" y="994" on="0"/>
        <pt x="264" y="1011" on="0"/>
        <pt x="286" y="1011" on="1"/>
        <pt x="331" y="1011" on="0"/>
        <pt x="362" y="980" on="1"/>
        <pt x="386" y="956" on="0"/>
        <pt x="394" y="913" on="1"/>
        <pt x="309" y="885" on="1"/>
        <pt x="309" y="902" on="1"/>
        <pt x="309" y="907" on="0"/>
        <pt x="303" y="917" on="0"/>
        <pt x="299" y="921" on="1"/>
        <pt x="291" y="926" on="0"/>
        <pt x="285" y="926" on="1"/>
        <pt x="276" y="926" on="0"/>
        <pt x="262" y="912" on="0"/>
        <pt x="262" y="902" on="1"/>
        <pt x="262" y="898" on="0"/>
        <pt x="270" y="883" on="0"/>
        <pt x="284" y="868" on="0"/>
        <pt x="299" y="859" on="0"/>
        <pt x="305" y="859" on="1"/>
        <pt x="357" y="859" on="1"/>
      </contour>
    </TTGlyph>
    <TTGlyph name="AT_EXCLAMATION" xMin="0" yMin="-408" xMax="750" yMax="1012">
      <contour>
        <pt x="344" y="555" on="1"/>
        <pt x="383" y="549" on="0"/>
        <pt x="460" y="512" on="0"/>
        <pt x="491" y="480" on="1"/>
        <pt x="570" y="401" on="0"/>
        <pt x="570" y="276" on="1"/>
        <pt x="570" y="134" on="0"/>
        <pt x="491" y="45" on="1"/>
        <pt x="484" y="38" on="1"/>
        <pt x="477" y="31" on="0"/>
        <pt x="472" y="24" on="1"/>
        <pt x="602" y="-291" on="1"/>
        <pt x="620" y="-284" on="0"/>
        <pt x="679" y="-260" on="0"/>
        <pt x="717" y="-244" on="1"/>
        <pt x="727" y="-272" on="0"/>
        <pt x="739" y="-297" on="0"/>
        <pt x="750" y="-324" on="1"/>
        <pt x="613" y="-361" on="1"/>
        <pt x="557" y="-389" on="1"/>
        <pt x="555" y="-389" on="0"/>
        <pt x="534" y="-346" on="1"/>
        <pt x="413" y="-53" on="1"/>
        <pt x="370" y="-118" on="0"/>
        <pt x="314" y="-257" on="0"/>
        <pt x="310" y="-323" on="1"/>
        <pt x="466" y="-323" on="1"/>
        <pt x="466" y="-407" on="1"/>
        <pt x="397" y="-407" on="0"/>
        <pt x="290" y="-408" on="0"/>
        <pt x="221" y="-408" on="1"/>
        <pt x="218" y="-323" on="0"/>
        <pt x="241" y="-191" on="0"/>
        <pt x="293" y="-69" on="0"/>
        <pt x="374" y="47" on="0"/>
        <pt x="429" y="108" on="1"/>
        <pt x="486" y="171" on="0"/>
        <pt x="486" y="276" on="1"/>
        <pt x="486" y="361" on="0"/>
        <pt x="429" y="417" on="1"/>
        <pt x="373" y="474" on="0"/>
        <pt x="288" y="474" on="1"/>
        <pt x="202" y="474" on="0"/>
        <pt x="143" y="418" on="1"/>
        <pt x="86" y="362" on="0"/>
        <pt x="86" y="276" on="1"/>
        <pt x="86" y="269" on="1"/>
        <pt x="97" y="270" on="0"/>
        <pt x="102" y="270" on="1"/>
        <pt x="131" y="270" on="0"/>
        <pt x="182" y="247" on="0"/>
        <pt x="220" y="210" on="0"/>
        <pt x="243" y="158" on="0"/>
        <pt x="243" y="129" on="1"/>
        <pt x="243" y="100" on="0"/>
        <pt x="220" y="49" on="0"/>
        <pt x="182" y="11" on="0"/>
        <pt x="131" y="-11" on="0"/>
        <pt x="102" y="-11" on="1"/>
        <pt x="49" y="-11" on="0"/>
        <pt x="4" y="27" on="1"/>
        <pt x="59" y="95" on="1"/>
        <pt x="80" y="70" on="0"/>
        <pt x="104" y="70" on="1"/>
        <pt x="113" y="70" on="0"/>
        <pt x="133" y="81" on="0"/>
        <pt x="147" y="98" on="0"/>
        <pt x="156" y="120" on="0"/>
        <pt x="156" y="131" on="1"/>
        <pt x="156" y="152" on="0"/>
        <pt x="127" y="183" on="0"/>
        <pt x="105" y="184" on="1"/>
        <pt x="101" y="186" on="0"/>
        <pt x="95" y="185" on="0"/>
        <pt x="88" y="185" on="1"/>
        <pt x="78" y="185" on="0"/>
        <pt x="49" y="186" on="0"/>
        <pt x="20" y="204" on="0"/>
        <pt x="1" y="241" on="0"/>
        <pt x="0" y="276" on="1"/>
        <pt x="0" y="400" on="0"/>
        <pt x="81" y="480" on="1"/>
        <pt x="147" y="544" on="0"/>
        <pt x="235" y="556" on="1"/>
        <pt x="182" y="556" on="0"/>
      </contour>
      <contour>
        <pt x="355" y="594" on="1"/>
        <pt x="334" y="590" on="0"/>
        <pt x="310" y="588" on="0"/>
        <pt x="299" y="588" on="1"/>
        <pt x="211" y="588" on="0"/>
        <pt x="149" y="650" on="1"/>
        <pt x="89" y="710" on="0"/>
        <pt x="89" y="801" on="1"/>
        <pt x="89" y="889" on="0"/>
        <pt x="150" y="950" on="1"/>
        <pt x="212" y="1012" on="0"/>
        <pt x="301" y="1012" on="1"/>
        <pt x="390" y="1012" on="0"/>
        <pt x="449" y="950" on="1"/>
        <pt x="474" y="925" on="0"/>
        <pt x="492" y="884" on="1"/>
        <pt x="414" y="850" on="1"/>
        <pt x="407" y="869" on="0"/>
        <pt x="396" y="885" on="0"/>
        <pt x="389" y="892" on="1"/>
        <pt x="354" y="928" on="0"/>
        <pt x="299" y="928" on="1"/>
        <pt x="242" y="928" on="0"/>
        <pt x="173" y="858" on="0"/>
        <pt x="173" y="801" on="1"/>
        <pt x="173" y="774" on="0"/>
        <pt x="193" y="727" on="0"/>
        <pt x="230" y="692" on="0"/>
        <pt x="277" y="672" on="0"/>
        <pt x="304" y="672" on="1"/>
        <pt x="309" y="672" on="0"/>
        <pt x="330" y="671" on="0"/>
        <pt x="345" y="674" on="1"/>
      </contour>
    </TTGlyph>
    <TTGlyph name="AT_ONE" xMin="0" yMin="-10" xMax="969" yMax="783">
      <contour>
        <pt x="478" y="-10" on="1"/>
        <pt x="475" y="21" on="0"/>
        <pt x="456" y="62" on="0"/>
        <pt x="440" y="76" on="1"/>
        <pt x="422" y="92" on="0"/>
        <pt x="376" y="111" on="0"/>
        <pt x="349" y="111" on="1"/>
        <pt x="294" y="109" on="0"/>
        <pt x="259" y="73" on="1"/>
        <pt x="230" y="43" on="0"/>
        <pt x="225" y="-10" on="1"/>
        <pt x="136" y="-10" on="1"/>
        <pt x="141" y="77" on="0"/>
        <pt x="200" y="134" on="1"/>
        <pt x="262" y="195" on="0"/>
        <pt x="349" y="195" on="1"/>
        <pt x="440" y="195" on="0"/>
        <pt x="500" y="135" on="1"/>
        <pt x="500" y="134" on="0"/>
        <pt x="501" y="134" on="0"/>
        <pt x="488" y="147" on="1"/>
        <pt x="495" y="205" on="0"/>
        <pt x="526" y="362" on="0"/>
        <pt x="570" y="507" on="0"/>
        <pt x="625" y="633" on="0"/>
        <pt x="691" y="727" on="0"/>
        <pt x="770" y="783" on="0"/>
        <pt x="814" y="783" on="1"/>
        <pt x="849" y="783" on="0"/>
        <pt x="922" y="745" on="0"/>
        <pt x="969" y="693" on="1"/>
        <pt x="901" y="649" on="1"/>
        <pt x="859" y="692" on="0"/>
        <pt x="821" y="692" on="1"/>
        <pt x="788" y="692" on="0"/>
        <pt x="722" y="632" on="0"/>
        <pt x="662" y="527" on="0"/>
        <pt x="613" y="386" on="0"/>
        <pt x="577" y="231" on="0"/>
        <pt x="559" y="72" on="0"/>
        <pt x="560" y="-10" on="1"/>
      </contour>
      <contour>
        <pt x="0" y="153" on="1"/>
        <pt x="55" y="158" on="0"/>
        <pt x="84" y="187" on="1"/>
        <pt x="120" y="222" on="0"/>
        <pt x="122" y="277" on="1"/>
        <pt x="122" y="331" on="0"/>
        <pt x="87" y="368" on="1"/>
        <pt x="71" y="385" on="0"/>
        <pt x="34" y="402" on="0"/>
        <pt x="1" y="406" on="1"/>
        <pt x="1" y="489" on="1"/>
        <pt x="94" y="483" on="0"/>
        <pt x="147" y="427" on="1"/>
        <pt x="206" y="365" on="0"/>
        <pt x="206" y="277" on="1"/>
        <pt x="206" y="193" on="0"/>
        <pt x="145" y="127" on="1"/>
        <pt x="86" y="69" on="0"/>
        <pt x="0" y="64" on="1"/>
      </contour>
      <contour>
        <pt x="225" y="560" on="1"/>
        <pt x="230" y="506" on="0"/>
        <pt x="259" y="476" on="1"/>
        <pt x="276" y="459" on="0"/>
        <pt x="322" y="440" on="0"/>
        <pt x="349" y="439" on="1"/>
        <pt x="403" y="439" on="0"/>
        <pt x="440" y="474" on="1"/>
        <pt x="473" y="505" on="0"/>
        <pt x="478" y="560" on="1"/>
        <pt x="561" y="560" on="1"/>
        <pt x="558" y="509" on="0"/>
        <pt x="528" y="441" on="0"/>
        <pt x="499" y="414" on="1"/>
        <pt x="440" y="355" on="0"/>
        <pt x="349" y="355" on="1"/>
        <pt x="262" y="355" on="0"/>
        <pt x="200" y="416" on="1"/>
        <pt x="141" y="473" on="0"/>
        <pt x="136" y="560" on="1"/>
      </contour>
    </TTGlyph>
    <TTGlyph name="AT_TWO" xMin="0" yMin="-408" xMax="570" yMax="560">
      <contour>
        <pt x="465" y="-407" on="1"/>
        <pt x="396" y="-407" on="0"/>
        <pt x="290" y="-408" on="0"/>
        <pt x="220" y="-408" on="1"/>
        <pt x="217" y="-323" on="0"/>
        <pt x="240" y="-191" on="0"/>
        <pt x="293" y="-69" on="0"/>
        <pt x="374" y="47" on="0"/>
        <pt x="429" y="108" on="1"/>
        <pt x="486" y="172" on="0"/>
        <pt x="486" y="276" on="1"/>
        <pt x="486" y="360" on="0"/>
        <pt x="429" y="417" on="1"/>
        <pt x="373" y="474" on="0"/>
        <pt x="288" y="474" on="1"/>
        <pt x="200" y="474" on="0"/>
        <pt x="143" y="418" on="1"/>
        <pt x="85" y="361" on="0"/>
        <pt x="85" y="276" on="1"/>
        <pt x="85" y="269" on="1"/>
        <pt x="86" y="269" on="0"/>
        <pt x="97" y="270" on="0"/>
        <pt x="101" y="270" on="1"/>
        <pt x="130" y="270" on="0"/>
        <pt x="182" y="247" on="0"/>
        <pt x="220" y="210" on="0"/>
        <pt x="243" y="158" on="0"/>
        <pt x="243" y="129" on="1"/>
        <pt x="243" y="100" on="0"/>
        <pt x="220" y="49" on="0"/>
        <pt x="182" y="11" on="0"/>
        <pt x="130" y="-11" on="0"/>
        <pt x="101" y="-11" on="1"/>
        <pt x="49" y="-11" on="0"/>
        <pt x="4" y="27" on="1"/>
        <pt x="59" y="95" on="1"/>
        <pt x="80" y="70" on="0"/>
        <pt x="103" y="70" on="1"/>
        <pt x="113" y="70" on="0"/>
        <pt x="133" y="81" on="0"/>
        <pt x="147" y="98" on="0"/>
        <pt x="156" y="120" on="0"/>
        <pt x="156" y="131" on="1"/>
        <pt x="156" y="152" on="0"/>
        <pt x="127" y="183" on="0"/>
        <pt x="105" y="184" on="1"/>
        <pt x="101" y="186" on="0"/>
        <pt x="95" y="185" on="0"/>
        <pt x="88" y="185" on="1"/>
        <pt x="78" y="185" on="0"/>
        <pt x="49" y="186" on="0"/>
        <pt x="20" y="204" on="0"/>
        <pt x="1" y="241" on="0"/>
        <pt x="0" y="276" on="1"/>
        <pt x="0" y="400" on="0"/>
        <pt x="81" y="480" on="1"/>
        <pt x="164" y="560" on="0"/>
        <pt x="288" y="560" on="1"/>
        <pt x="411" y="560" on="0"/>
        <pt x="491" y="480" on="1"/>
        <pt x="570" y="401" on="0"/>
        <pt x="570" y="276" on="1"/>
        <pt x="570" y="134" on="0"/>
        <pt x="490" y="45" on="1"/>
        <pt x="447" y="-3" on="0"/>
        <pt x="382" y="-95" on="0"/>
        <pt x="337" y="-187" on="0"/>
        <pt x="312" y="-283" on="0"/>
        <pt x="310" y="-323" on="1"/>
        <pt x="465" y="-323" on="1"/>
      </contour>
    </TTGlyph>
    <TTGlyph name="A_FA" xMin="0" yMin="-407" xMax="982" yMax="562">
      <contour>
        <pt x="939" y="252" on="1"/>
        <pt x="961" y="233" on="0"/>
        <pt x="982" y="195" on="0"/>
        <pt x="982" y="176" on="1"/>
        <pt x="982" y="142" on="0"/>
        <pt x="956" y="113" on="1"/>
        <pt x="948" y="101" on="0"/>
        <pt x="930" y="79" on="0"/>
        <pt x="920" y="69" on="1"/>
        <pt x="841" y="-10" on="0"/>
        <pt x="712" y="-10" on="1"/>
        <pt x="662" y="-10" on="0"/>
        <pt x="619" y="3" on="1"/>
        <pt x="619" y="-68" on="0"/>
        <pt x="618" y="-139" on="1"/>
        <pt x="618" y="-246" on="0"/>
        <pt x="618" y="-343" on="1"/>
        <pt x="616" y="-391" on="0"/>
        <pt x="548" y="-407" on="1"/>
        <pt x="358" y="-407" on="1"/>
        <pt x="358" y="-319" on="1"/>
        <pt x="534" y="-319" on="1"/>
        <pt x="534" y="47" on="1"/>
        <pt x="521" y="58" on="0"/>
        <pt x="509" y="70" on="1"/>
        <pt x="502" y="78" on="1"/>
        <pt x="490" y="66" on="1"/>
        <pt x="410" y="-14" on="0"/>
        <pt x="288" y="-14" on="1"/>
        <pt x="164" y="-14" on="0"/>
        <pt x="81" y="66" on="1"/>
        <pt x="0" y="145" on="0"/>
        <pt x="0" y="270" on="1"/>
        <pt x="1" y="305" on="0"/>
        <pt x="20" y="342" on="0"/>
        <pt x="49" y="360" on="0"/>
        <pt x="78" y="361" on="0"/>
        <pt x="88" y="361" on="1"/>
        <pt x="95" y="361" on="0"/>
        <pt x="100" y="360" on="0"/>
        <pt x="103" y="362" on="1"/>
        <pt x="127" y="363" on="0"/>
        <pt x="156" y="394" on="0"/>
        <pt x="156" y="415" on="1"/>
        <pt x="156" y="437" on="0"/>
        <pt x="125" y="466" on="0"/>
        <pt x="103" y="466" on="1"/>
        <pt x="82" y="466" on="0"/>
        <pt x="56" y="440" on="1"/>
        <pt x="6" y="520" on="1"/>
        <pt x="31" y="540" on="0"/>
        <pt x="75" y="557" on="0"/>
        <pt x="101" y="557" on="1"/>
        <pt x="130" y="557" on="0"/>
        <pt x="182" y="535" on="0"/>
        <pt x="219" y="497" on="0"/>
        <pt x="242" y="446" on="0"/>
        <pt x="242" y="417" on="1"/>
        <pt x="242" y="388" on="0"/>
        <pt x="219" y="336" on="0"/>
        <pt x="182" y="298" on="0"/>
        <pt x="130" y="275" on="0"/>
        <pt x="101" y="275" on="1"/>
        <pt x="97" y="275" on="0"/>
        <pt x="91" y="275" on="1"/>
        <pt x="85" y="276" on="1"/>
        <pt x="85" y="270" on="1"/>
        <pt x="85" y="183" on="0"/>
        <pt x="143" y="128" on="1"/>
        <pt x="201" y="71" on="0"/>
        <pt x="288" y="71" on="1"/>
        <pt x="372" y="71" on="0"/>
        <pt x="429" y="128" on="1"/>
        <pt x="441" y="140" on="0"/>
        <pt x="452" y="156" on="1"/>
        <pt x="430" y="206" on="0"/>
        <pt x="430" y="276" on="1"/>
        <pt x="430" y="401" on="0"/>
        <pt x="509" y="480" on="1"/>
        <pt x="548" y="519" on="0"/>
        <pt x="650" y="562" on="0"/>
        <pt x="712" y="560" on="1"/>
        <pt x="764" y="559" on="0"/>
        <pt x="836" y="547" on="0"/>
        <pt x="892" y="530" on="0"/>
        <pt x="939" y="510" on="0"/>
        <pt x="974" y="498" on="1"/>
        <pt x="943" y="415" on="1"/>
        <pt x="913" y="426" on="0"/>
        <pt x="869" y="446" on="0"/>
        <pt x="818" y="462" on="0"/>
        <pt x="753" y="474" on="0"/>
        <pt x="712" y="474" on="1"/>
        <pt x="627" y="475" on="0"/>
        <pt x="570" y="417" on="1"/>
        <pt x="513" y="360" on="0"/>
        <pt x="513" y="276" on="1"/>
        <pt x="513" y="265" on="0"/>
        <pt x="514" y="251" on="1"/>
        <pt x="514" y="245" on="0"/>
        <pt x="514" y="243" on="1"/>
        <pt x="526" y="255" on="1"/>
        <pt x="611" y="335" on="0"/>
        <pt x="733" y="335" on="1"/>
        <pt x="856" y="335" on="0"/>
      </contour>
      <contour>
        <pt x="858" y="131" on="1"/>
        <pt x="868" y="142" on="0"/>
        <pt x="886" y="164" on="0"/>
        <pt x="891" y="174" on="1"/>
        <pt x="884" y="184" on="0"/>
        <pt x="873" y="192" on="1"/>
        <pt x="819" y="249" on="0"/>
        <pt x="734" y="249" on="1"/>
        <pt x="647" y="249" on="0"/>
        <pt x="588" y="193" on="1"/>
        <pt x="568" y="172" on="0"/>
        <pt x="555" y="150" on="1"/>
        <pt x="569" y="134" on="1"/>
        <pt x="626" y="76" on="0"/>
        <pt x="712" y="76" on="1"/>
        <pt x="800" y="76" on="0"/>
      </contour>
    </TTGlyph>
    <TTGlyph name="A_HA1" xMin="0" yMin="-408" xMax="620" yMax="559">
      <contour>
        <pt x="620" y="-408" on="1"/>
        <pt x="483" y="-408" on="1"/>
        <pt x="418" y="-392" on="0"/>
        <pt x="414" y="-345" on="1"/>
        <pt x="413" y="23" on="1"/>
        <pt x="497" y="23" on="1"/>
        <pt x="497" y="-322" on="1"/>
        <pt x="620" y="-322" on="1"/>
      </contour>
      <contour>
        <pt x="298" y="-408" on="1"/>
        <pt x="297" y="23" on="1"/>
        <pt x="380" y="23" on="1"/>
        <pt x="380" y="-408" on="1"/>
      </contour>
      <contour>
        <pt x="424" y="101" on="1"/>
        <pt x="486" y="173" on="0"/>
        <pt x="486" y="275" on="1"/>
        <pt x="486" y="359" on="0"/>
        <pt x="429" y="416" on="1"/>
        <pt x="373" y="473" on="0"/>
        <pt x="288" y="473" on="1"/>
        <pt x="200" y="473" on="0"/>
        <pt x="143" y="417" on="1"/>
        <pt x="85" y="360" on="0"/>
        <pt x="85" y="275" on="1"/>
        <pt x="85" y="221" on="0"/>
        <pt x="114" y="129" on="0"/>
        <pt x="141" y="98" on="1"/>
        <pt x="153" y="86" on="0"/>
        <pt x="174" y="73" on="1"/>
        <pt x="174" y="283" on="1"/>
        <pt x="258" y="283" on="1"/>
        <pt x="257" y="-344" on="1"/>
        <pt x="255" y="-392" on="0"/>
        <pt x="188" y="-408" on="1"/>
        <pt x="81" y="-408" on="1"/>
        <pt x="4" y="-401" on="0"/>
        <pt x="0" y="-343" on="1"/>
        <pt x="0" y="-259" on="1"/>
        <pt x="79" y="-259" on="1"/>
        <pt x="79" y="-323" on="1"/>
        <pt x="174" y="-323" on="1"/>
        <pt x="174" y="-13" on="1"/>
        <pt x="145" y="-6" on="0"/>
        <pt x="98" y="25" on="0"/>
        <pt x="80" y="43" on="1"/>
        <pt x="0" y="129" on="0"/>
        <pt x="0" y="275" on="1"/>
        <pt x="0" y="399" on="0"/>
        <pt x="81" y="479" on="1"/>
        <pt x="164" y="559" on="0"/>
        <pt x="288" y="559" on="1"/>
        <pt x="411" y="559" on="0"/>
        <pt x="491" y="479" on="1"/>
        <pt x="570" y="400" on="0"/>
        <pt x="570" y="275" on="1"/>
        <pt x="570" y="133" on="0"/>
        <pt x="490" y="44" on="1"/>
        <pt x="482" y="35" on="1"/>
      </contour>
    </TTGlyph>
    <TTGlyph name="A_HA2" xMin="0" yMin="-409" xMax="570" yMax="559">
      <contour>
        <pt x="420" y="-409" on="1"/>
        <pt x="357" y="-409" on="0"/>
        <pt x="313" y="-347" on="1"/>
        <pt x="270" y="-286" on="0"/>
        <pt x="270" y="-199" on="1"/>
        <pt x="270" y="-112" on="0"/>
        <pt x="313" y="-51" on="1"/>
        <pt x="356" y="10" on="0"/>
        <pt x="422" y="10" on="1"/>
        <pt x="487" y="10" on="0"/>
        <pt x="529" y="-51" on="1"/>
        <pt x="570" y="-111" on="0"/>
        <pt x="570" y="-199" on="1"/>
        <pt x="570" y="-283" on="0"/>
        <pt x="527" y="-345" on="1"/>
        <pt x="483" y="-409" on="0"/>
      </contour>
      <contour>
        <pt x="418" y="-80" on="1"/>
        <pt x="393" y="-80" on="0"/>
        <pt x="353" y="-147" on="0"/>
        <pt x="353" y="-205" on="1"/>
        <pt x="353" y="-231" on="0"/>
        <pt x="364" y="-273" on="0"/>
        <pt x="382" y="-304" on="0"/>
        <pt x="406" y="-320" on="0"/>
        <pt x="418" y="-320" on="1"/>
        <pt x="444" y="-320" on="0"/>
        <pt x="483" y="-258" on="0"/>
        <pt x="485" y="-205" on="1"/>
        <pt x="485" y="-147" on="0"/>
        <pt x="447" y="-80" on="0"/>
      </contour>
      <contour>
        <pt x="424" y="101" on="1"/>
        <pt x="486" y="173" on="0"/>
        <pt x="486" y="275" on="1"/>
        <pt x="486" y="359" on="0"/>
        <pt x="429" y="416" on="1"/>
        <pt x="373" y="473" on="0"/>
        <pt x="288" y="473" on="1"/>
        <pt x="200" y="473" on="0"/>
        <pt x="143" y="417" on="1"/>
        <pt x="85" y="360" on="0"/>
        <pt x="85" y="275" on="1"/>
        <pt x="85" y="221" on="0"/>
        <pt x="114" y="129" on="0"/>
        <pt x="141" y="98" on="1"/>
        <pt x="153" y="86" on="0"/>
        <pt x="174" y="73" on="1"/>
        <pt x="174" y="283" on="1"/>
        <pt x="258" y="283" on="1"/>
        <pt x="257" y="-344" on="1"/>
        <pt x="255" y="-392" on="0"/>
        <pt x="188" y="-408" on="1"/>
        <pt x="81" y="-408" on="1"/>
        <pt x="4" y="-401" on="0"/>
        <pt x="0" y="-343" on="1"/>
        <pt x="0" y="-259" on="1"/>
        <pt x="79" y="-259" on="1"/>
        <pt x="79" y="-323" on="1"/>
        <pt x="174" y="-323" on="1"/>
        <pt x="174" y="-13" on="1"/>
        <pt x="145" y="-6" on="0"/>
        <pt x="98" y="25" on="0"/>
        <pt x="80" y="43" on="1"/>
        <pt x="0" y="129" on="0"/>
        <pt x="0" y="275" on="1"/>
        <pt x="0" y="399" on="0"/>
        <pt x="81" y="479" on="1"/>
        <pt x="164" y="559" on="0"/>
        <pt x="288" y="559" on="1"/>
        <pt x="411" y="559" on="0"/>
        <pt x="491" y="479" on="1"/>
        <pt x="570" y="400" on="0"/>
        <pt x="570" y="275" on="1"/>
        <pt x="570" y="133" on="0"/>
        <pt x="490" y="44" on="1"/>
        <pt x="482" y="35" on="1"/>
      </contour>
    </TTGlyph>
    <TTGlyph name="A_HA3" xMin="0" yMin="-409" xMax="570" yMax="559">
      <contour>
        <pt x="556" y="-288" on="1"/>
        <pt x="548" y="-309" on="0"/>
        <pt x="536" y="-333" on="0"/>
        <pt x="527" y="-345" on="1"/>
        <pt x="483" y="-409" on="0"/>
        <pt x="420" y="-409" on="1"/>
        <pt x="357" y="-409" on="0"/>
        <pt x="313" y="-347" on="1"/>
        <pt x="270" y="-286" on="0"/>
        <pt x="270" y="-199" on="1"/>
        <pt x="270" y="-112" on="0"/>
        <pt x="313" y="-51" on="1"/>
        <pt x="356" y="10" on="0"/>
        <pt x="422" y="10" on="1"/>
        <pt x="431" y="10" on="0"/>
        <pt x="445" y="8" on="0"/>
        <pt x="462" y="3" on="1"/>
        <pt x="444" y="-86" on="1"/>
        <pt x="425" y="-80" on="0"/>
        <pt x="418" y="-80" on="1"/>
        <pt x="393" y="-80" on="0"/>
        <pt x="353" y="-147" on="0"/>
        <pt x="353" y="-205" on="1"/>
        <pt x="353" y="-231" on="0"/>
        <pt x="364" y="-273" on="0"/>
        <pt x="382" y="-304" on="0"/>
        <pt x="406" y="-320" on="0"/>
        <pt x="418" y="-320" on="1"/>
        <pt x="437" y="-320" on="0"/>
        <pt x="469" y="-287" on="0"/>
        <pt x="481" y="-245" on="1"/>
      </contour>
      <contour>
        <pt x="424" y="101" on="1"/>
        <pt x="486" y="173" on="0"/>
        <pt x="486" y="275" on="1"/>
        <pt x="486" y="359" on="0"/>
        <pt x="429" y="416" on="1"/>
        <pt x="373" y="473" on="0"/>
        <pt x="288" y="473" on="1"/>
        <pt x="200" y="473" on="0"/>
        <pt x="143" y="417" on="1"/>
        <pt x="85" y="360" on="0"/>
        <pt x="85" y="275" on="1"/>
        <pt x="85" y="221" on="0"/>
        <pt x="114" y="129" on="0"/>
        <pt x="141" y="98" on="1"/>
        <pt x="153" y="86" on="0"/>
        <pt x="174" y="73" on="1"/>
        <pt x="174" y="283" on="1"/>
        <pt x="258" y="283" on="1"/>
        <pt x="257" y="-344" on="1"/>
        <pt x="255" y="-392" on="0"/>
        <pt x="188" y="-408" on="1"/>
        <pt x="81" y="-408" on="1"/>
        <pt x="4" y="-401" on="0"/>
        <pt x="0" y="-343" on="1"/>
        <pt x="0" y="-259" on="1"/>
        <pt x="79" y="-259" on="1"/>
        <pt x="79" y="-323" on="1"/>
        <pt x="174" y="-323" on="1"/>
        <pt x="174" y="-13" on="1"/>
        <pt x="145" y="-6" on="0"/>
        <pt x="98" y="25" on="0"/>
        <pt x="80" y="43" on="1"/>
        <pt x="0" y="129" on="0"/>
        <pt x="0" y="275" on="1"/>
        <pt x="0" y="399" on="0"/>
        <pt x="81" y="479" on="1"/>
        <pt x="164" y="559" on="0"/>
        <pt x="288" y="559" on="1"/>
        <pt x="411" y="559" on="0"/>
        <pt x="491" y="479" on="1"/>
        <pt x="570" y="400" on="0"/>
        <pt x="570" y="275" on="1"/>
        <pt x="570" y="133" on="0"/>
        <pt x="490" y="44" on="1"/>
        <pt x="482" y="35" on="1"/>
      </contour>
    </TTGlyph>
    <TTGlyph name="A_NA2" xMin="-95" yMin="-409" xMax="728" yMax="563">
      <contour>
        <pt x="260" y="-30" on="1"/>
        <pt x="260" y="-8" on="1"/>
        <pt x="169" y="-2" on="0"/>
        <pt x="117" y="26" on="1"/>
        <pt x="91" y="42" on="0"/>
        <pt x="48" y="80" on="0"/>
        <pt x="17" y="124" on="0"/>
        <pt x="0" y="170" on="0"/>
        <pt x="0" y="193" on="1"/>
        <pt x="0" y="231" on="0"/>
        <pt x="45" y="273" on="0"/>
        <pt x="102" y="292" on="0"/>
        <pt x="160" y="296" on="0"/>
        <pt x="206" y="296" on="1"/>
        <pt x="235" y="296" on="0"/>
        <pt x="284" y="274" on="0"/>
        <pt x="320" y="237" on="0"/>
        <pt x="342" y="186" on="0"/>
        <pt x="342" y="157" on="1"/>
        <pt x="342" y="73" on="1"/>
        <pt x="402" y="82" on="0"/>
        <pt x="482" y="145" on="0"/>
        <pt x="505" y="190" on="1"/>
        <pt x="519" y="217" on="0"/>
        <pt x="496" y="253" on="0"/>
        <pt x="436" y="284" on="0"/>
        <pt x="352" y="307" on="0"/>
        <pt x="312" y="321" on="1"/>
        <pt x="277" y="333" on="0"/>
        <pt x="208" y="358" on="0"/>
        <pt x="154" y="387" on="0"/>
        <pt x="120" y="423" on="0"/>
        <pt x="139" y="486" on="1"/>
        <pt x="160" y="553" on="0"/>
        <pt x="322" y="560" on="1"/>
        <pt x="367" y="560" on="0"/>
        <pt x="450" y="535" on="0"/>
        <pt x="492" y="508" on="1"/>
        <pt x="441" y="440" on="1"/>
        <pt x="410" y="460" on="0"/>
        <pt x="353" y="474" on="0"/>
        <pt x="322" y="474" on="1"/>
        <pt x="292" y="474" on="0"/>
        <pt x="237" y="461" on="0"/>
        <pt x="223" y="447" on="1"/>
        <pt x="220" y="446" on="0"/>
        <pt x="230" y="436" on="0"/>
        <pt x="277" y="413" on="0"/>
        <pt x="340" y="389" on="0"/>
        <pt x="366" y="380" on="1"/>
        <pt x="405" y="366" on="0"/>
        <pt x="488" y="339" on="0"/>
        <pt x="558" y="307" on="0"/>
        <pt x="603" y="265" on="0"/>
        <pt x="601" y="235" on="1"/>
        <pt x="595" y="188" on="0"/>
        <pt x="556" y="103" on="0"/>
        <pt x="523" y="70" on="1"/>
        <pt x="492" y="38" on="0"/>
        <pt x="448" y="18" on="1"/>
        <pt x="440" y="14" on="0"/>
        <pt x="430" y="11" on="1"/>
        <pt x="516" y="9" on="0"/>
        <pt x="571" y="-47" on="1"/>
        <pt x="629" y="-106" on="0"/>
        <pt x="629" y="-196" on="1"/>
        <pt x="629" y="-259" on="0"/>
        <pt x="600" y="-307" on="1"/>
        <pt x="645" y="-321" on="1"/>
        <pt x="645" y="563" on="1"/>
        <pt x="728" y="563" on="1"/>
        <pt x="728" y="-408" on="1"/>
        <pt x="647" y="-408" on="1"/>
        <pt x="535" y="-374" on="1"/>
        <pt x="487" y="-404" on="0"/>
        <pt x="424" y="-404" on="1"/>
        <pt x="391" y="-404" on="0"/>
        <pt x="351" y="-393" on="1"/>
        <pt x="378" y="-318" on="1"/>
        <pt x="404" y="-324" on="0"/>
        <pt x="424" y="-324" on="1"/>
        <pt x="479" y="-324" on="0"/>
        <pt x="551" y="-251" on="0"/>
        <pt x="551" y="-196" on="1"/>
        <pt x="551" y="-141" on="0"/>
        <pt x="479" y="-69" on="0"/>
        <pt x="424" y="-69" on="1"/>
        <pt x="368" y="-69" on="0"/>
        <pt x="331" y="-105" on="1"/>
        <pt x="319" y="-116" on="0"/>
        <pt x="311" y="-133" on="1"/>
        <pt x="320" y="-164" on="0"/>
        <pt x="320" y="-199" on="1"/>
        <pt x="320" y="-283" on="0"/>
        <pt x="259" y="-346" on="1"/>
        <pt x="199" y="-409" on="0"/>
        <pt x="27" y="-409" on="0"/>
        <pt x="-34" y="-348" on="1"/>
        <pt x="-95" y="-287" on="0"/>
        <pt x="-95" y="-199" on="1"/>
        <pt x="-95" y="-111" on="0"/>
        <pt x="-34" y="-50" on="1"/>
        <pt x="26" y="10" on="0"/>
        <pt x="115" y="10" on="1"/>
        <pt x="182" y="10" on="0"/>
        <pt x="232" y="-24" on="1"/>
        <pt x="242" y="-32" on="1"/>
        <pt x="252" y="-40" on="0"/>
        <pt x="262" y="-50" on="1"/>
        <pt x="264" y="-52" on="0"/>
        <pt x="266" y="-55" on="1"/>
        <pt x="274" y="-47" on="1"/>
        <pt x="282" y="-39" on="0"/>
        <pt x="291" y="-32" on="1"/>
        <pt x="293" y="-30" on="0"/>
      </contour>
      <contour>
        <pt x="113" y="-73" on="1"/>
        <pt x="57" y="-73" on="0"/>
        <pt x="-12" y="-143" on="0"/>
        <pt x="-12" y="-199" on="1"/>
        <pt x="-12" y="-226" on="0"/>
        <pt x="6" y="-270" on="0"/>
        <pt x="39" y="-303" on="0"/>
        <pt x="83" y="-321" on="0"/>
        <pt x="110" y="-321" on="1"/>
        <pt x="166" y="-321" on="0"/>
        <pt x="234" y="-255" on="0"/>
        <pt x="236" y="-199" on="1"/>
        <pt x="236" y="-143" on="0"/>
        <pt x="169" y="-73" on="0"/>
      </contour>
      <contour>
        <pt x="89" y="178" on="1"/>
        <pt x="104" y="133" on="0"/>
        <pt x="215" y="76" on="0"/>
        <pt x="260" y="72" on="1"/>
        <pt x="260" y="157" on="1"/>
        <pt x="260" y="179" on="0"/>
        <pt x="229" y="210" on="0"/>
        <pt x="208" y="210" on="1"/>
        <pt x="166" y="210" on="0"/>
        <pt x="134" y="208" on="0"/>
        <pt x="105" y="201" on="0"/>
        <pt x="89" y="188" on="0"/>
        <pt x="89" y="179" on="1"/>
      </contour>
    </TTGlyph>
    <TTGlyph name="A_NA3" xMin="0" yMin="-408" xMax="726" yMax="1017">
      <contour>
        <pt x="324" y="-107" on="1"/>
        <pt x="294" y="-107" on="0"/>
        <pt x="259" y="-143" on="0"/>
        <pt x="259" y="-173" on="1"/>
        <pt x="259" y="-203" on="0"/>
        <pt x="294" y="-238" on="0"/>
        <pt x="323" y="-238" on="1"/>
        <pt x="354" y="-238" on="0"/>
        <pt x="387" y="-204" on="0"/>
        <pt x="390" y="-173" on="1"/>
        <pt x="390" y="-144" on="0"/>
        <pt x="354" y="-107" on="0"/>
      </contour>
      <contour>
        <pt x="458" y="-43" on="1"/>
        <pt x="485" y="-31" on="0"/>
        <pt x="520" y="-31" on="1"/>
        <pt x="551" y="-31" on="0"/>
        <pt x="601" y="-51" on="0"/>
        <pt x="638" y="-89" on="0"/>
        <pt x="660" y="-140" on="0"/>
        <pt x="660" y="-173" on="1"/>
        <pt x="660" y="-204" on="0"/>
        <pt x="638" y="-257" on="0"/>
        <pt x="618" y="-275" on="1"/>
        <pt x="611" y="-280" on="0"/>
        <pt x="605" y="-286" on="1"/>
        <pt x="594" y="-291" on="1"/>
        <pt x="586" y="-298" on="0"/>
        <pt x="575" y="-303" on="1"/>
        <pt x="550" y="-314" on="0"/>
        <pt x="520" y="-314" on="1"/>
        <pt x="496" y="-314" on="0"/>
        <pt x="460" y="-304" on="1"/>
        <pt x="483" y="-232" on="1"/>
        <pt x="500" y="-239" on="0"/>
        <pt x="511" y="-240" on="0"/>
        <pt x="520" y="-240" on="1"/>
        <pt x="549" y="-240" on="0"/>
        <pt x="588" y="-200" on="0"/>
        <pt x="588" y="-173" on="1"/>
        <pt x="588" y="-142" on="0"/>
        <pt x="550" y="-104" on="0"/>
        <pt x="520" y="-104" on="1"/>
        <pt x="488" y="-104" on="0"/>
        <pt x="470" y="-123" on="1"/>
        <pt x="467" y="-125" on="0"/>
        <pt x="461" y="-133" on="0"/>
        <pt x="460" y="-135" on="1"/>
        <pt x="463" y="-140" on="0"/>
        <pt x="467" y="-162" on="0"/>
        <pt x="467" y="-173" on="1"/>
        <pt x="467" y="-203" on="0"/>
        <pt x="443" y="-253" on="0"/>
        <pt x="425" y="-275" on="1"/>
        <pt x="403" y="-294" on="0"/>
        <pt x="354" y="-317" on="0"/>
        <pt x="324" y="-317" on="1"/>
        <pt x="266" y="-317" on="0"/>
        <pt x="224" y="-275" on="1"/>
        <pt x="183" y="-232" on="0"/>
        <pt x="183" y="-173" on="1"/>
        <pt x="183" y="-116" on="0"/>
        <pt x="224" y="-71" on="1"/>
        <pt x="267" y="-32" on="0"/>
        <pt x="325" y="-32" on="1"/>
        <pt x="355" y="-32" on="0"/>
        <pt x="377" y="-40" on="1"/>
        <pt x="419" y="-68" on="0"/>
        <pt x="425" y="-62" on="0"/>
      </contour>
      <contour>
        <pt x="725" y="739" on="1"/>
        <pt x="642" y="739" on="1"/>
        <pt x="642" y="929" on="1"/>
        <pt x="89" y="929" on="1"/>
        <pt x="90" y="-325" on="1"/>
        <pt x="642" y="-325" on="1"/>
        <pt x="725" y="-325" on="1"/>
        <pt x="726" y="-370" on="0"/>
        <pt x="679" y="-408" on="0"/>
        <pt x="642" y="-408" on="1"/>
        <pt x="89" y="-408" on="1"/>
        <pt x="47" y="-406" on="0"/>
        <pt x="3" y="-362" on="0"/>
        <pt x="6" y="-324" on="1"/>
        <pt x="6" y="928" on="1"/>
        <pt x="0" y="1014" on="0"/>
        <pt x="89" y="1011" on="1"/>
        <pt x="641" y="1011" on="1"/>
        <pt x="725" y="1017" on="0"/>
        <pt x="725" y="928" on="1"/>
      </contour>
      <contour>
        <pt x="376" y="-30" on="1"/>
        <pt x="376" y="-8" on="1"/>
        <pt x="285" y="-2" on="0"/>
        <pt x="233" y="26" on="1"/>
        <pt x="207" y="42" on="0"/>
        <pt x="164" y="80" on="0"/>
        <pt x="133" y="124" on="0"/>
        <pt x="116" y="170" on="0"/>
        <pt x="116" y="193" on="1"/>
        <pt x="116" y="231" on="0"/>
        <pt x="161" y="273" on="0"/>
        <pt x="218" y="292" on="0"/>
        <pt x="276" y="296" on="0"/>
        <pt x="322" y="296" on="1"/>
        <pt x="351" y="296" on="0"/>
        <pt x="400" y="274" on="0"/>
        <pt x="436" y="237" on="0"/>
        <pt x="458" y="186" on="0"/>
        <pt x="458" y="157" on="1"/>
        <pt x="458" y="73" on="1"/>
        <pt x="518" y="82" on="0"/>
        <pt x="598" y="145" on="0"/>
        <pt x="621" y="190" on="1"/>
        <pt x="635" y="217" on="0"/>
        <pt x="612" y="253" on="0"/>
        <pt x="552" y="284" on="0"/>
        <pt x="468" y="307" on="0"/>
        <pt x="428" y="321" on="1"/>
        <pt x="393" y="333" on="0"/>
        <pt x="324" y="358" on="0"/>
        <pt x="270" y="387" on="0"/>
        <pt x="236" y="423" on="0"/>
        <pt x="255" y="486" on="1"/>
        <pt x="276" y="553" on="0"/>
        <pt x="438" y="560" on="1"/>
        <pt x="483" y="560" on="0"/>
        <pt x="566" y="535" on="0"/>
        <pt x="608" y="508" on="1"/>
        <pt x="557" y="440" on="1"/>
        <pt x="526" y="460" on="0"/>
        <pt x="469" y="474" on="0"/>
        <pt x="438" y="474" on="1"/>
        <pt x="408" y="474" on="0"/>
        <pt x="353" y="461" on="0"/>
        <pt x="339" y="447" on="1"/>
        <pt x="336" y="446" on="0"/>
        <pt x="346" y="436" on="0"/>
        <pt x="393" y="413" on="0"/>
        <pt x="456" y="389" on="0"/>
        <pt x="482" y="380" on="1"/>
        <pt x="521" y="366" on="0"/>
        <pt x="604" y="339" on="0"/>
        <pt x="674" y="307" on="0"/>
        <pt x="719" y="265" on="0"/>
        <pt x="717" y="235" on="1"/>
        <pt x="711" y="188" on="0"/>
        <pt x="672" y="103" on="0"/>
        <pt x="639" y="70" on="1"/>
        <pt x="608" y="38" on="0"/>
        <pt x="521" y="-1" on="0"/>
        <pt x="458" y="-7" on="1"/>
        <pt x="458" y="-30" on="1"/>
      </contour>
      <contour>
        <pt x="205" y="178" on="1"/>
        <pt x="220" y="133" on="0"/>
        <pt x="331" y="76" on="0"/>
        <pt x="376" y="72" on="1"/>
        <pt x="376" y="157" on="1"/>
        <pt x="376" y="179" on="0"/>
        <pt x="345" y="210" on="0"/>
        <pt x="324" y="210" on="1"/>
        <pt x="282" y="210" on="0"/>
        <pt x="250" y="208" on="0"/>
        <pt x="221" y="201" on="0"/>
        <pt x="205" y="188" on="0"/>
        <pt x="205" y="179" on="1"/>
      </contour>
    </TTGlyph>
    <TTGlyph name="A_NYA_AA" xMin="0" yMin="-410" xMax="996" yMax="560">
      <contour>
        <pt x="667" y="78" on="1"/>
        <pt x="686" y="75" on="0"/>
        <pt x="704" y="74" on="0"/>
        <pt x="717" y="74" on="1"/>
        <pt x="802" y="74" on="0"/>
        <pt x="857" y="129" on="1"/>
        <pt x="913" y="186" on="0"/>
        <pt x="913" y="270" on="1"/>
        <pt x="913" y="355" on="0"/>
        <pt x="857" y="411" on="1"/>
        <pt x="801" y="468" on="0"/>
        <pt x="717" y="468" on="1"/>
        <pt x="631" y="468" on="0"/>
        <pt x="573" y="413" on="1"/>
        <pt x="559" y="398" on="0"/>
        <pt x="548" y="381" on="1"/>
        <pt x="544" y="375" on="0"/>
        <pt x="540" y="366" on="1"/>
        <pt x="552" y="325" on="0"/>
        <pt x="552" y="276" on="1"/>
        <pt x="552" y="152" on="0"/>
        <pt x="472" y="70" on="1"/>
        <pt x="392" y="-10" on="0"/>
        <pt x="270" y="-10" on="1"/>
        <pt x="160" y="-10" on="0"/>
        <pt x="85" y="48" on="1"/>
        <pt x="85" y="-316" on="1"/>
        <pt x="917" y="-319" on="1"/>
        <pt x="917" y="-259" on="1"/>
        <pt x="914" y="-243" on="0"/>
        <pt x="883" y="-229" on="0"/>
        <pt x="853" y="-230" on="1"/>
        <pt x="853" y="-152" on="1"/>
        <pt x="917" y="-151" on="0"/>
        <pt x="994" y="-205" on="0"/>
        <pt x="996" y="-260" on="1"/>
        <pt x="996" y="-311" on="1"/>
        <pt x="994" y="-350" on="0"/>
        <pt x="951" y="-398" on="0"/>
        <pt x="915" y="-407" on="1"/>
        <pt x="86" y="-407" on="1"/>
        <pt x="0" y="-410" on="0"/>
        <pt x="0" y="-317" on="1"/>
        <pt x="0" y="153" on="1"/>
        <pt x="41" y="173" on="0"/>
        <pt x="53" y="179" on="1"/>
        <pt x="81" y="193" on="1"/>
        <pt x="94" y="169" on="0"/>
        <pt x="114" y="142" on="0"/>
        <pt x="124" y="131" on="1"/>
        <pt x="182" y="76" on="0"/>
        <pt x="270" y="76" on="1"/>
        <pt x="357" y="76" on="0"/>
        <pt x="411" y="133" on="1"/>
        <pt x="469" y="191" on="0"/>
        <pt x="469" y="276" on="1"/>
        <pt x="469" y="360" on="0"/>
        <pt x="411" y="417" on="1"/>
        <pt x="357" y="474" on="0"/>
        <pt x="270" y="474" on="1"/>
        <pt x="184" y="474" on="0"/>
        <pt x="125" y="418" on="1"/>
        <pt x="101" y="394" on="0"/>
        <pt x="83" y="355" on="1"/>
        <pt x="56" y="366" on="0"/>
        <pt x="28" y="379" on="0"/>
        <pt x="2" y="390" on="1"/>
        <pt x="27" y="444" on="0"/>
        <pt x="63" y="480" on="1"/>
        <pt x="146" y="560" on="0"/>
        <pt x="270" y="560" on="1"/>
        <pt x="393" y="560" on="0"/>
        <pt x="473" y="480" on="1"/>
        <pt x="484" y="468" on="0"/>
        <pt x="494" y="456" on="1"/>
        <pt x="503" y="465" on="0"/>
        <pt x="512" y="474" on="1"/>
        <pt x="589" y="552" on="0"/>
        <pt x="717" y="552" on="1"/>
        <pt x="840" y="552" on="0"/>
        <pt x="917" y="472" on="1"/>
        <pt x="996" y="393" on="0"/>
        <pt x="996" y="270" on="1"/>
        <pt x="996" y="147" on="0"/>
        <pt x="918" y="68" on="1"/>
        <pt x="839" y="-11" on="0"/>
        <pt x="717" y="-11" on="1"/>
        <pt x="702" y="-11" on="0"/>
        <pt x="668" y="-8" on="0"/>
        <pt x="643" y="-3" on="1"/>
      </contour>
    </TTGlyph>
    <TTGlyph name="A_SA" xMin="0" yMin="-408" xMax="1174" yMax="1017">
      <contour>
        <pt x="1106" y="86" on="1"/>
        <pt x="1010" y="-10" on="0"/>
        <pt x="889" y="-10" on="1"/>
        <pt x="760" y="-10" on="0"/>
        <pt x="681" y="69" on="1"/>
        <pt x="679" y="70" on="0"/>
        <pt x="662" y="89" on="0"/>
        <pt x="661" y="91" on="1"/>
        <pt x="657" y="87" on="0"/>
        <pt x="647" y="74" on="0"/>
        <pt x="643" y="70" on="1"/>
        <pt x="563" y="-10" on="0"/>
        <pt x="441" y="-10" on="1"/>
        <pt x="312" y="-10" on="0"/>
        <pt x="233" y="69" on="1"/>
        <pt x="197" y="102" on="0"/>
        <pt x="174" y="156" on="1"/>
        <pt x="253" y="192" on="1"/>
        <pt x="264" y="167" on="0"/>
        <pt x="281" y="145" on="0"/>
        <pt x="295" y="131" on="1"/>
        <pt x="353" y="76" on="0"/>
        <pt x="441" y="76" on="1"/>
        <pt x="526" y="76" on="0"/>
        <pt x="582" y="133" on="1"/>
        <pt x="639" y="190" on="0"/>
        <pt x="639" y="276" on="1"/>
        <pt x="639" y="361" on="0"/>
        <pt x="582" y="417" on="1"/>
        <pt x="526" y="474" on="0"/>
        <pt x="441" y="474" on="1"/>
        <pt x="355" y="474" on="0"/>
        <pt x="296" y="418" on="1"/>
        <pt x="282" y="405" on="0"/>
        <pt x="264" y="379" on="0"/>
        <pt x="253" y="355" on="1"/>
        <pt x="226" y="366" on="0"/>
        <pt x="199" y="379" on="0"/>
        <pt x="173" y="390" on="1"/>
        <pt x="186" y="421" on="0"/>
        <pt x="216" y="463" on="0"/>
        <pt x="234" y="480" on="1"/>
        <pt x="317" y="560" on="0"/>
        <pt x="441" y="560" on="1"/>
        <pt x="564" y="560" on="0"/>
        <pt x="644" y="480" on="1"/>
        <pt x="723" y="401" on="0"/>
        <pt x="723" y="276" on="1"/>
        <pt x="723" y="221" on="0"/>
        <pt x="708" y="177" on="1"/>
        <pt x="714" y="167" on="0"/>
        <pt x="732" y="142" on="0"/>
        <pt x="743" y="131" on="1"/>
        <pt x="799" y="76" on="0"/>
        <pt x="889" y="76" on="1"/>
        <pt x="974" y="76" on="0"/>
        <pt x="1030" y="133" on="1"/>
        <pt x="1087" y="191" on="0"/>
        <pt x="1087" y="276" on="1"/>
        <pt x="1087" y="360" on="0"/>
        <pt x="1030" y="417" on="1"/>
        <pt x="974" y="474" on="0"/>
        <pt x="889" y="474" on="1"/>
        <pt x="866" y="474" on="0"/>
        <pt x="838" y="470" on="1"/>
        <pt x="813" y="552" on="1"/>
        <pt x="855" y="560" on="0"/>
        <pt x="889" y="560" on="1"/>
        <pt x="1012" y="560" on="0"/>
        <pt x="1092" y="480" on="1"/>
        <pt x="1170" y="401" on="0"/>
        <pt x="1171" y="280" on="1"/>
        <pt x="1170" y="221" on="0"/>
        <pt x="1137" y="125" on="0"/>
      </contour>
      <contour>
        <pt x="539" y="-317" on="1"/>
        <pt x="473" y="-317" on="0"/>
        <pt x="428" y="-270" on="1"/>
        <pt x="382" y="-224" on="0"/>
        <pt x="382" y="-159" on="1"/>
        <pt x="382" y="-95" on="0"/>
        <pt x="428" y="-47" on="1"/>
        <pt x="475" y="-3" on="0"/>
        <pt x="540" y="-3" on="1"/>
        <pt x="603" y="-3" on="0"/>
        <pt x="645" y="-41" on="1"/>
        <pt x="689" y="-2" on="0"/>
        <pt x="753" y="-2" on="1"/>
        <pt x="787" y="-2" on="0"/>
        <pt x="843" y="-24" on="0"/>
        <pt x="884" y="-66" on="0"/>
        <pt x="907" y="-123" on="0"/>
        <pt x="907" y="-158" on="1"/>
        <pt x="907" y="-192" on="0"/>
        <pt x="884" y="-249" on="0"/>
        <pt x="842" y="-290" on="0"/>
        <pt x="786" y="-313" on="0"/>
        <pt x="753" y="-313" on="1"/>
        <pt x="727" y="-313" on="0"/>
        <pt x="686" y="-302" on="1"/>
        <pt x="714" y="-224" on="1"/>
        <pt x="732" y="-231" on="0"/>
        <pt x="745" y="-233" on="0"/>
        <pt x="753" y="-233" on="1"/>
        <pt x="785" y="-233" on="0"/>
        <pt x="828" y="-189" on="0"/>
        <pt x="828" y="-158" on="1"/>
        <pt x="828" y="-125" on="0"/>
        <pt x="785" y="-82" on="0"/>
        <pt x="753" y="-82" on="1"/>
        <pt x="718" y="-82" on="0"/>
        <pt x="699" y="-103" on="1"/>
        <pt x="694" y="-108" on="0"/>
        <pt x="689" y="-115" on="1"/>
        <pt x="695" y="-136" on="0"/>
        <pt x="695" y="-159" on="1"/>
        <pt x="695" y="-190" on="0"/>
        <pt x="669" y="-247" on="0"/>
        <pt x="648" y="-270" on="1"/>
        <pt x="625" y="-292" on="0"/>
        <pt x="570" y="-317" on="0"/>
      </contour>
      <contour>
        <pt x="539" y="-85" on="1"/>
        <pt x="506" y="-85" on="0"/>
        <pt x="466" y="-126" on="0"/>
        <pt x="466" y="-159" on="1"/>
        <pt x="466" y="-190" on="0"/>
        <pt x="505" y="-230" on="0"/>
        <pt x="536" y="-230" on="1"/>
        <pt x="569" y="-230" on="0"/>
        <pt x="608" y="-192" on="0"/>
        <pt x="610" y="-159" on="1"/>
        <pt x="610" y="-127" on="0"/>
        <pt x="570" y="-85" on="0"/>
      </contour>
      <contour>
        <pt x="1173" y="739" on="1"/>
        <pt x="1090" y="739" on="1"/>
        <pt x="1090" y="929" on="1"/>
        <pt x="89" y="929" on="1"/>
        <pt x="90" y="-325" on="1"/>
        <pt x="1090" y="-325" on="1"/>
        <pt x="1090" y="9" on="1"/>
        <pt x="1173" y="9" on="1"/>
        <pt x="1173" y="-325" on="1"/>
        <pt x="1174" y="-370" on="0"/>
        <pt x="1127" y="-408" on="0"/>
        <pt x="1090" y="-408" on="1"/>
        <pt x="89" y="-408" on="1"/>
        <pt x="47" y="-406" on="0"/>
        <pt x="3" y="-362" on="0"/>
        <pt x="6" y="-324" on="1"/>
        <pt x="6" y="928" on="1"/>
        <pt x="0" y="1014" on="0"/>
        <pt x="89" y="1011" on="1"/>
        <pt x="1089" y="1011" on="1"/>
        <pt x="1173" y="1017" on="0"/>
        <pt x="1173" y="928" on="1"/>
      </contour>
    </TTGlyph>
    <TTGlyph name="Amacron" xMin="1" yMin="0" xMax="664" yMax="829">
      <contour>
        <pt x="569" y="0" on="1"/>
        <pt x="490" y="201" on="1"/>
        <pt x="177" y="201" on="1"/>
        <pt x="98" y="0" on="1"/>
        <pt x="1" y="0" on="1"/>
        <pt x="282" y="688" on="1"/>
        <pt x="388" y="688" on="1"/>
        <pt x="664" y="0" on="1"/>
      </contour>
      <contour>
        <pt x="374" y="501" on="1"/>
        <pt x="366" y="521" on="0"/>
        <pt x="352" y="561" on="0"/>
        <pt x="341" y="593" on="0"/>
        <pt x="334" y="615" on="0"/>
        <pt x="334" y="618" on="1"/>
        <pt x="333" y="615" on="0"/>
        <pt x="326" y="593" on="0"/>
        <pt x="314" y="560" on="0"/>
        <pt x="300" y="520" on="0"/>
        <pt x="293" y="500" on="1"/>
        <pt x="205" y="274" on="1"/>
        <pt x="462" y="274" on="1"/>
      </contour>
      <contour>
        <pt x="468" y="767" on="1"/>
        <pt x="200" y="767" on="1"/>
        <pt x="200" y="829" on="1"/>
        <pt x="468" y="829" on="1"/>
      </contour>
    </TTGlyph>
    <TTGlyph name="B" xMin="82" yMin="0" xMax="614" yMax="688">
      <contour>
        <pt x="614" y="194" on="1"/>
        <pt x="614" y="102" on="0"/>
        <pt x="480" y="0" on="0"/>
        <pt x="361" y="0" on="1"/>
        <pt x="82" y="0" on="1"/>
        <pt x="82" y="688" on="1"/>
        <pt x="332" y="688" on="1"/>
        <pt x="574" y="688" on="0"/>
        <pt x="574" y="521" on="1"/>
        <pt x="574" y="460" on="0"/>
        <pt x="506" y="377" on="0"/>
        <pt x="443" y="363" on="1"/>
        <pt x="525" y="353" on="0"/>
        <pt x="614" y="263" on="0"/>
      </contour>
      <contour>
        <pt x="480" y="510" on="1"/>
        <pt x="480" y="565" on="0"/>
        <pt x="404" y="613" on="0"/>
        <pt x="332" y="613" on="1"/>
        <pt x="175" y="613" on="1"/>
        <pt x="175" y="396" on="1"/>
        <pt x="332" y="396" on="1"/>
        <pt x="407" y="396" on="0"/>
        <pt x="480" y="452" on="0"/>
      </contour>
      <contour>
        <pt x="520" y="201" on="1"/>
        <pt x="520" y="323" on="0"/>
        <pt x="349" y="323" on="1"/>
        <pt x="175" y="323" on="1"/>
        <pt x="175" y="75" on="1"/>
        <pt x="356" y="75" on="1"/>
        <pt x="442" y="75" on="0"/>
        <pt x="520" y="138" on="0"/>
      </contour>
    </TTGlyph>
    <TTGlyph name="C" xMin="50" yMin="-10" xMax="683" yMax="698">
      <contour>
        <pt x="386" y="622" on="1"/>
        <pt x="272" y="622" on="0"/>
        <pt x="145" y="475" on="0"/>
        <pt x="145" y="347" on="1"/>
        <pt x="145" y="221" on="0"/>
        <pt x="277" y="67" on="0"/>
        <pt x="390" y="67" on="1"/>
        <pt x="534" y="67" on="0"/>
        <pt x="607" y="210" on="1"/>
        <pt x="683" y="172" on="1"/>
        <pt x="641" y="83" on="0"/>
        <pt x="487" y="-10" on="0"/>
        <pt x="385" y="-10" on="1"/>
        <pt x="281" y="-10" on="0"/>
        <pt x="130" y="77" on="0"/>
        <pt x="50" y="237" on="0"/>
        <pt x="50" y="347" on="1"/>
        <pt x="50" y="512" on="0"/>
        <pt x="228" y="698" on="0"/>
        <pt x="385" y="698" on="1"/>
        <pt x="495" y="698" on="0"/>
        <pt x="642" y="612" on="0"/>
        <pt x="677" y="528" on="1"/>
        <pt x="589" y="499" on="1"/>
        <pt x="565" y="559" on="0"/>
        <pt x="459" y="622" on="0"/>
      </contour>
    </TTGlyph>
    <TTGlyph name="CAT_RA" xMin="2" yMin="-407" xMax="1158" yMax="1011">
      <contour>
        <pt x="617" y="1011" on="1"/>
        <pt x="701" y="1011" on="1"/>
        <pt x="700" y="821" on="1"/>
        <pt x="91" y="821" on="1"/>
        <pt x="91" y="-322" on="1"/>
        <pt x="618" y="-322" on="1"/>
        <pt x="618" y="279" on="1"/>
        <pt x="620" y="299" on="0"/>
        <pt x="611" y="347" on="0"/>
        <pt x="601" y="378" on="1"/>
        <pt x="595" y="387" on="0"/>
        <pt x="579" y="406" on="0"/>
        <pt x="569" y="417" on="1"/>
        <pt x="514" y="474" on="0"/>
        <pt x="428" y="474" on="1"/>
        <pt x="342" y="474" on="0"/>
        <pt x="283" y="418" on="1"/>
        <pt x="226" y="361" on="0"/>
        <pt x="226" y="276" on="1"/>
        <pt x="226" y="189" on="0"/>
        <pt x="282" y="131" on="1"/>
        <pt x="340" y="76" on="0"/>
        <pt x="428" y="76" on="1"/>
        <pt x="447" y="76" on="0"/>
        <pt x="485" y="82" on="0"/>
        <pt x="509" y="92" on="1"/>
        <pt x="522" y="67" on="0"/>
        <pt x="538" y="41" on="0"/>
        <pt x="550" y="13" on="1"/>
        <pt x="514" y="0" on="0"/>
        <pt x="459" y="-10" on="0"/>
        <pt x="428" y="-10" on="1"/>
        <pt x="299" y="-10" on="0"/>
        <pt x="220" y="69" on="1"/>
        <pt x="140" y="149" on="0"/>
        <pt x="140" y="276" on="1"/>
        <pt x="140" y="400" on="0"/>
        <pt x="221" y="480" on="1"/>
        <pt x="304" y="560" on="0"/>
        <pt x="428" y="560" on="1"/>
        <pt x="551" y="560" on="0"/>
        <pt x="631" y="480" on="1"/>
        <pt x="650" y="459" on="1"/>
        <pt x="681" y="425" on="0"/>
        <pt x="705" y="314" on="0"/>
        <pt x="705" y="245" on="1"/>
        <pt x="705" y="226" on="0"/>
        <pt x="704" y="182" on="0"/>
        <pt x="702" y="164" on="1"/>
        <pt x="713" y="146" on="0"/>
        <pt x="729" y="132" on="1"/>
        <pt x="790" y="76" on="0"/>
        <pt x="876" y="76" on="1"/>
        <pt x="962" y="76" on="0"/>
        <pt x="1017" y="133" on="1"/>
        <pt x="1075" y="191" on="0"/>
        <pt x="1075" y="276" on="1"/>
        <pt x="1075" y="360" on="0"/>
        <pt x="1017" y="417" on="1"/>
        <pt x="962" y="474" on="0"/>
        <pt x="876" y="474" on="1"/>
        <pt x="853" y="474" on="0"/>
        <pt x="812" y="467" on="0"/>
        <pt x="783" y="455" on="1"/>
        <pt x="770" y="481" on="0"/>
        <pt x="757" y="505" on="0"/>
        <pt x="744" y="532" on="1"/>
        <pt x="781" y="548" on="0"/>
        <pt x="844" y="560" on="0"/>
        <pt x="876" y="560" on="1"/>
        <pt x="999" y="560" on="0"/>
        <pt x="1079" y="480" on="1"/>
        <pt x="1158" y="401" on="0"/>
        <pt x="1158" y="276" on="1"/>
        <pt x="1158" y="152" on="0"/>
        <pt x="1078" y="70" on="1"/>
        <pt x="998" y="-10" on="0"/>
        <pt x="876" y="-10" on="1"/>
        <pt x="775" y="-10" on="0"/>
        <pt x="702" y="40" on="1"/>
        <pt x="702" y="-322" on="1"/>
        <pt x="703" y="-368" on="0"/>
        <pt x="656" y="-406" on="0"/>
        <pt x="618" y="-406" on="1"/>
        <pt x="486" y="-406" on="0"/>
        <pt x="224" y="-407" on="0"/>
        <pt x="91" y="-407" on="1"/>
        <pt x="48" y="-405" on="0"/>
        <pt x="4" y="-360" on="0"/>
        <pt x="7" y="-322" on="1"/>
        <pt x="8" y="821" on="1"/>
        <pt x="2" y="908" on="0"/>
        <pt x="92" y="905" on="1"/>
        <pt x="617" y="905" on="1"/>
      </contour>
    </TTGlyph>
    <TTGlyph name="CKT_CA" xMin="0" yMin="-12" xMax="1018" yMax="560">
      <contour>
        <pt x="736" y="-10" on="1"/>
        <pt x="607" y="-10" on="0"/>
        <pt x="528" y="69" on="1"/>
        <pt x="448" y="149" on="0"/>
        <pt x="448" y="276" on="1"/>
        <pt x="448" y="301" on="0"/>
        <pt x="455" y="351" on="0"/>
        <pt x="462" y="372" on="1"/>
        <pt x="449" y="396" on="0"/>
        <pt x="429" y="416" on="1"/>
        <pt x="375" y="473" on="0"/>
        <pt x="288" y="473" on="1"/>
        <pt x="202" y="473" on="0"/>
        <pt x="143" y="417" on="1"/>
        <pt x="86" y="360" on="0"/>
        <pt x="86" y="275" on="1"/>
        <pt x="86" y="268" on="1"/>
        <pt x="98" y="269" on="0"/>
        <pt x="102" y="269" on="1"/>
        <pt x="131" y="269" on="0"/>
        <pt x="183" y="246" on="0"/>
        <pt x="220" y="209" on="0"/>
        <pt x="243" y="157" on="0"/>
        <pt x="243" y="128" on="1"/>
        <pt x="243" y="99" on="0"/>
        <pt x="220" y="48" on="0"/>
        <pt x="183" y="10" on="0"/>
        <pt x="131" y="-12" on="0"/>
        <pt x="102" y="-12" on="1"/>
        <pt x="77" y="-12" on="0"/>
        <pt x="30" y="4" on="0"/>
        <pt x="5" y="26" on="1"/>
        <pt x="58" y="92" on="1"/>
        <pt x="81" y="69" on="0"/>
        <pt x="104" y="69" on="1"/>
        <pt x="113" y="69" on="0"/>
        <pt x="133" y="80" on="0"/>
        <pt x="147" y="97" on="0"/>
        <pt x="156" y="119" on="0"/>
        <pt x="156" y="130" on="1"/>
        <pt x="156" y="150" on="0"/>
        <pt x="126" y="182" on="0"/>
        <pt x="105" y="183" on="1"/>
        <pt x="101" y="185" on="0"/>
        <pt x="96" y="184" on="0"/>
        <pt x="88" y="184" on="1"/>
        <pt x="78" y="184" on="0"/>
        <pt x="49" y="185" on="0"/>
        <pt x="20" y="203" on="0"/>
        <pt x="1" y="240" on="0"/>
        <pt x="0" y="275" on="1"/>
        <pt x="0" y="399" on="0"/>
        <pt x="81" y="479" on="1"/>
        <pt x="164" y="559" on="0"/>
        <pt x="288" y="559" on="1"/>
        <pt x="411" y="559" on="0"/>
        <pt x="491" y="479" on="1"/>
        <pt x="498" y="471" on="1"/>
        <pt x="501" y="467" on="0"/>
        <pt x="508" y="459" on="0"/>
        <pt x="509" y="457" on="1"/>
        <pt x="515" y="463" on="1"/>
        <pt x="511" y="463" on="1"/>
        <pt x="612" y="560" on="0"/>
        <pt x="736" y="560" on="1"/>
        <pt x="859" y="560" on="0"/>
        <pt x="939" y="480" on="1"/>
        <pt x="1018" y="401" on="0"/>
        <pt x="1018" y="276" on="1"/>
        <pt x="1018" y="152" on="0"/>
        <pt x="938" y="70" on="1"/>
        <pt x="858" y="-10" on="0"/>
      </contour>
      <contour>
        <pt x="736" y="474" on="1"/>
        <pt x="650" y="474" on="0"/>
        <pt x="591" y="418" on="1"/>
        <pt x="534" y="361" on="0"/>
        <pt x="534" y="276" on="1"/>
        <pt x="534" y="189" on="0"/>
        <pt x="590" y="131" on="1"/>
        <pt x="648" y="76" on="0"/>
        <pt x="736" y="76" on="1"/>
        <pt x="823" y="76" on="0"/>
        <pt x="877" y="133" on="1"/>
        <pt x="935" y="191" on="0"/>
        <pt x="935" y="276" on="1"/>
        <pt x="935" y="360" on="0"/>
        <pt x="877" y="417" on="1"/>
        <pt x="823" y="474" on="0"/>
      </contour>
    </TTGlyph>
    <TTGlyph name="CKT_CHA" xMin="0" yMin="-10" xMax="799" yMax="561">
      <contour>
        <pt x="370" y="132" on="1"/>
        <pt x="427" y="76" on="0"/>
        <pt x="517" y="76" on="1"/>
        <pt x="602" y="76" on="0"/>
        <pt x="658" y="133" on="1"/>
        <pt x="715" y="191" on="0"/>
        <pt x="715" y="276" on="1"/>
        <pt x="715" y="360" on="0"/>
        <pt x="658" y="417" on="1"/>
        <pt x="602" y="474" on="0"/>
        <pt x="517" y="474" on="1"/>
        <pt x="511" y="474" on="0"/>
        <pt x="505" y="474" on="0"/>
        <pt x="489" y="471" on="1"/>
        <pt x="489" y="559" on="1"/>
        <pt x="507" y="561" on="0"/>
        <pt x="511" y="560" on="0"/>
        <pt x="517" y="560" on="1"/>
        <pt x="639" y="560" on="0"/>
        <pt x="719" y="480" on="1"/>
        <pt x="799" y="401" on="0"/>
        <pt x="799" y="276" on="1"/>
        <pt x="799" y="153" on="0"/>
        <pt x="718" y="70" on="1"/>
        <pt x="638" y="-10" on="0"/>
        <pt x="517" y="-10" on="1"/>
        <pt x="388" y="-10" on="0"/>
        <pt x="309" y="69" on="1"/>
        <pt x="278" y="97" on="0"/>
        <pt x="222" y="225" on="1"/>
        <pt x="197" y="184" on="0"/>
        <pt x="116" y="54" on="0"/>
        <pt x="78" y="-9" on="1"/>
        <pt x="1" y="-9" on="1"/>
        <pt x="1" y="141" on="0"/>
        <pt x="0" y="408" on="0"/>
        <pt x="0" y="559" on="1"/>
        <pt x="85" y="559" on="1"/>
        <pt x="85" y="158" on="1"/>
        <pt x="88" y="157" on="1"/>
        <pt x="211" y="334" on="1"/>
        <pt x="230" y="370" on="1"/>
        <pt x="242" y="370" on="0"/>
        <pt x="261" y="351" on="0"/>
        <pt x="294" y="280" on="1"/>
        <pt x="283" y="292" on="1"/>
        <pt x="287" y="278" on="0"/>
        <pt x="340" y="178" on="0"/>
        <pt x="369" y="133" on="1"/>
      </contour>
    </TTGlyph>
    <TTGlyph name="CKT_DDA" xMin="0" yMin="-10" xMax="1018" yMax="560">
      <contour>
        <pt x="646" y="-1" on="1"/>
        <pt x="652" y="61" on="0"/>
        <pt x="692" y="143" on="0"/>
        <pt x="725" y="178" on="1"/>
        <pt x="805" y="258" on="0"/>
        <pt x="928" y="258" on="1"/>
        <pt x="933" y="258" on="1"/>
        <pt x="934" y="262" on="0"/>
        <pt x="935" y="271" on="0"/>
        <pt x="935" y="276" on="1"/>
        <pt x="935" y="360" on="0"/>
        <pt x="877" y="417" on="1"/>
        <pt x="823" y="474" on="0"/>
        <pt x="736" y="474" on="1"/>
        <pt x="650" y="474" on="0"/>
        <pt x="591" y="418" on="1"/>
        <pt x="581" y="407" on="0"/>
        <pt x="562" y="383" on="0"/>
        <pt x="557" y="372" on="1"/>
        <pt x="564" y="351" on="0"/>
        <pt x="570" y="302" on="0"/>
        <pt x="570" y="276" on="1"/>
        <pt x="570" y="152" on="0"/>
        <pt x="490" y="70" on="1"/>
        <pt x="410" y="-10" on="0"/>
        <pt x="288" y="-10" on="1"/>
        <pt x="159" y="-10" on="0"/>
        <pt x="80" y="69" on="1"/>
        <pt x="0" y="149" on="0"/>
        <pt x="0" y="276" on="1"/>
        <pt x="0" y="400" on="0"/>
        <pt x="81" y="480" on="1"/>
        <pt x="164" y="560" on="0"/>
        <pt x="288" y="560" on="1"/>
        <pt x="411" y="560" on="0"/>
        <pt x="491" y="480" on="1"/>
        <pt x="510" y="459" on="1"/>
        <pt x="519" y="470" on="0"/>
        <pt x="529" y="480" on="1"/>
        <pt x="612" y="560" on="0"/>
        <pt x="736" y="560" on="1"/>
        <pt x="859" y="560" on="0"/>
        <pt x="939" y="480" on="1"/>
        <pt x="1018" y="401" on="0"/>
        <pt x="1018" y="276" on="1"/>
        <pt x="1018" y="152" on="0"/>
        <pt x="938" y="70" on="1"/>
        <pt x="858" y="-10" on="0"/>
        <pt x="736" y="-10" on="1"/>
        <pt x="722" y="-10" on="1"/>
        <pt x="707" y="-9" on="0"/>
        <pt x="681" y="-7" on="0"/>
        <pt x="668" y="-5" on="1"/>
      </contour>
      <contour>
        <pt x="288" y="474" on="1"/>
        <pt x="202" y="474" on="0"/>
        <pt x="143" y="418" on="1"/>
        <pt x="86" y="361" on="0"/>
        <pt x="86" y="276" on="1"/>
        <pt x="86" y="189" on="0"/>
        <pt x="142" y="131" on="1"/>
        <pt x="200" y="76" on="0"/>
        <pt x="288" y="76" on="1"/>
        <pt x="375" y="76" on="0"/>
        <pt x="429" y="133" on="1"/>
        <pt x="487" y="191" on="0"/>
        <pt x="487" y="276" on="1"/>
        <pt x="487" y="360" on="0"/>
        <pt x="429" y="417" on="1"/>
        <pt x="375" y="474" on="0"/>
      </contour>
      <contour>
        <pt x="877" y="133" on="1"/>
        <pt x="886" y="143" on="0"/>
        <pt x="905" y="167" on="0"/>
        <pt x="907" y="171" on="1"/>
        <pt x="880" y="169" on="0"/>
        <pt x="812" y="140" on="0"/>
        <pt x="787" y="115" on="1"/>
        <pt x="780" y="107" on="0"/>
        <pt x="755" y="75" on="0"/>
        <pt x="756" y="77" on="1"/>
        <pt x="827" y="83" on="0"/>
      </contour>
      <contour>
        <pt x="282" y="341" on="1"/>
        <pt x="310" y="341" on="0"/>
        <pt x="351" y="302" on="0"/>
        <pt x="351" y="272" on="1"/>
        <pt x="351" y="245" on="0"/>
        <pt x="310" y="207" on="0"/>
        <pt x="282" y="207" on="1"/>
        <pt x="255" y="207" on="0"/>
        <pt x="217" y="245" on="0"/>
        <pt x="217" y="272" on="1"/>
        <pt x="217" y="302" on="0"/>
        <pt x="255" y="341" on="0"/>
      </contour>
    </TTGlyph>
    <TTGlyph name="CKT_DDHA" xMin="0" yMin="-10" xMax="1018" yMax="560">
      <contour>
        <pt x="288" y="-10" on="1"/>
        <pt x="159" y="-10" on="0"/>
        <pt x="80" y="69" on="1"/>
        <pt x="0" y="149" on="0"/>
        <pt x="0" y="276" on="1"/>
        <pt x="0" y="400" on="0"/>
        <pt x="81" y="480" on="1"/>
        <pt x="164" y="560" on="0"/>
        <pt x="288" y="560" on="1"/>
        <pt x="411" y="560" on="0"/>
        <pt x="491" y="480" on="1"/>
        <pt x="510" y="459" on="1"/>
        <pt x="519" y="470" on="0"/>
        <pt x="529" y="480" on="1"/>
        <pt x="612" y="560" on="0"/>
        <pt x="736" y="560" on="1"/>
        <pt x="859" y="560" on="0"/>
        <pt x="939" y="480" on="1"/>
        <pt x="1018" y="401" on="0"/>
        <pt x="1018" y="276" on="1"/>
        <pt x="1018" y="152" on="0"/>
        <pt x="938" y="70" on="1"/>
        <pt x="858" y="-10" on="0"/>
        <pt x="736" y="-10" on="1"/>
        <pt x="607" y="-10" on="0"/>
        <pt x="528" y="69" on="1"/>
        <pt x="527" y="70" on="0"/>
        <pt x="510" y="89" on="0"/>
        <pt x="509" y="91" on="1"/>
        <pt x="506" y="87" on="0"/>
        <pt x="494" y="74" on="0"/>
        <pt x="490" y="70" on="1"/>
        <pt x="410" y="-10" on="0"/>
      </contour>
      <contour>
        <pt x="288" y="474" on="1"/>
        <pt x="202" y="474" on="0"/>
        <pt x="143" y="418" on="1"/>
        <pt x="86" y="361" on="0"/>
        <pt x="86" y="276" on="1"/>
        <pt x="86" y="189" on="0"/>
        <pt x="142" y="131" on="1"/>
        <pt x="200" y="76" on="0"/>
        <pt x="288" y="76" on="1"/>
        <pt x="375" y="76" on="0"/>
        <pt x="429" y="133" on="1"/>
        <pt x="487" y="191" on="0"/>
        <pt x="487" y="276" on="1"/>
        <pt x="487" y="360" on="0"/>
        <pt x="429" y="417" on="1"/>
        <pt x="375" y="474" on="0"/>
      </contour>
      <contour>
        <pt x="570" y="269" on="1"/>
        <pt x="619" y="267" on="0"/>
        <pt x="716" y="227" on="0"/>
        <pt x="752" y="190" on="1"/>
        <pt x="773" y="169" on="0"/>
        <pt x="804" y="114" on="0"/>
        <pt x="812" y="89" on="1"/>
        <pt x="851" y="104" on="0"/>
        <pt x="877" y="133" on="1"/>
        <pt x="905" y="162" on="0"/>
        <pt x="935" y="233" on="0"/>
        <pt x="935" y="276" on="1"/>
        <pt x="935" y="360" on="0"/>
        <pt x="877" y="417" on="1"/>
        <pt x="823" y="474" on="0"/>
        <pt x="736" y="474" on="1"/>
        <pt x="650" y="474" on="0"/>
        <pt x="591" y="418" on="1"/>
        <pt x="581" y="407" on="0"/>
        <pt x="562" y="383" on="0"/>
        <pt x="557" y="372" on="1"/>
        <pt x="564" y="351" on="0"/>
        <pt x="570" y="302" on="0"/>
        <pt x="570" y="276" on="1"/>
      </contour>
      <contour>
        <pt x="555" y="178" on="1"/>
        <pt x="561" y="166" on="0"/>
        <pt x="580" y="142" on="0"/>
        <pt x="590" y="131" on="1"/>
        <pt x="646" y="79" on="0"/>
        <pt x="725" y="76" on="1"/>
        <pt x="711" y="105" on="0"/>
        <pt x="690" y="127" on="1"/>
        <pt x="662" y="154" on="0"/>
        <pt x="592" y="183" on="0"/>
        <pt x="556" y="185" on="1"/>
      </contour>
      <contour>
        <pt x="282" y="341" on="1"/>
        <pt x="310" y="341" on="0"/>
        <pt x="351" y="302" on="0"/>
        <pt x="351" y="272" on="1"/>
        <pt x="351" y="245" on="0"/>
        <pt x="310" y="207" on="0"/>
        <pt x="282" y="207" on="1"/>
        <pt x="255" y="207" on="0"/>
        <pt x="217" y="245" on="0"/>
        <pt x="217" y="272" on="1"/>
        <pt x="217" y="302" on="0"/>
        <pt x="255" y="341" on="0"/>
      </contour>
    </TTGlyph>
    <TTGlyph name="CKT_DHA" xMin="0" yMin="-10" xMax="1018" yMax="560">
      <contour>
        <pt x="288" y="-10" on="1"/>
        <pt x="159" y="-10" on="0"/>
        <pt x="80" y="69" on="1"/>
        <pt x="0" y="149" on="0"/>
        <pt x="0" y="276" on="1"/>
        <pt x="0" y="400" on="0"/>
        <pt x="81" y="480" on="1"/>
        <pt x="164" y="560" on="0"/>
        <pt x="288" y="560" on="1"/>
        <pt x="411" y="560" on="0"/>
        <pt x="491" y="480" on="1"/>
        <pt x="510" y="459" on="1"/>
        <pt x="519" y="470" on="0"/>
        <pt x="529" y="480" on="1"/>
        <pt x="612" y="560" on="0"/>
        <pt x="736" y="560" on="1"/>
        <pt x="859" y="560" on="0"/>
        <pt x="939" y="480" on="1"/>
        <pt x="1018" y="401" on="0"/>
        <pt x="1018" y="276" on="1"/>
        <pt x="1018" y="152" on="0"/>
        <pt x="938" y="70" on="1"/>
        <pt x="858" y="-10" on="0"/>
        <pt x="736" y="-10" on="1"/>
        <pt x="607" y="-10" on="0"/>
        <pt x="528" y="69" on="1"/>
        <pt x="527" y="70" on="0"/>
        <pt x="510" y="89" on="0"/>
        <pt x="509" y="91" on="1"/>
        <pt x="506" y="87" on="0"/>
        <pt x="494" y="74" on="0"/>
        <pt x="490" y="70" on="1"/>
        <pt x="410" y="-10" on="0"/>
      </contour>
      <contour>
        <pt x="288" y="474" on="1"/>
        <pt x="202" y="474" on="0"/>
        <pt x="143" y="418" on="1"/>
        <pt x="86" y="361" on="0"/>
        <pt x="86" y="276" on="1"/>
        <pt x="86" y="189" on="0"/>
        <pt x="142" y="131" on="1"/>
        <pt x="200" y="76" on="0"/>
        <pt x="288" y="76" on="1"/>
        <pt x="375" y="76" on="0"/>
        <pt x="429" y="133" on="1"/>
        <pt x="487" y="191" on="0"/>
        <pt x="487" y="276" on="1"/>
        <pt x="487" y="360" on="0"/>
        <pt x="429" y="417" on="1"/>
        <pt x="375" y="474" on="0"/>
      </contour>
      <contour>
        <pt x="570" y="269" on="1"/>
        <pt x="619" y="267" on="0"/>
        <pt x="716" y="227" on="0"/>
        <pt x="752" y="190" on="1"/>
        <pt x="773" y="169" on="0"/>
        <pt x="804" y="114" on="0"/>
        <pt x="812" y="89" on="1"/>
        <pt x="851" y="104" on="0"/>
        <pt x="877" y="133" on="1"/>
        <pt x="905" y="162" on="0"/>
        <pt x="935" y="233" on="0"/>
        <pt x="935" y="276" on="1"/>
        <pt x="935" y="360" on="0"/>
        <pt x="877" y="417" on="1"/>
        <pt x="823" y="474" on="0"/>
        <pt x="736" y="474" on="1"/>
        <pt x="650" y="474" on="0"/>
        <pt x="591" y="418" on="1"/>
        <pt x="581" y="407" on="0"/>
        <pt x="562" y="383" on="0"/>
        <pt x="557" y="372" on="1"/>
        <pt x="564" y="351" on="0"/>
        <pt x="570" y="302" on="0"/>
        <pt x="570" y="276" on="1"/>
      </contour>
      <contour>
        <pt x="555" y="178" on="1"/>
        <pt x="561" y="166" on="0"/>
        <pt x="580" y="142" on="0"/>
        <pt x="590" y="131" on="1"/>
        <pt x="646" y="79" on="0"/>
        <pt x="725" y="76" on="1"/>
        <pt x="711" y="105" on="0"/>
        <pt x="690" y="127" on="1"/>
        <pt x="662" y="154" on="0"/>
        <pt x="592" y="183" on="0"/>
        <pt x="556" y="185" on="1"/>
      </contour>
    </TTGlyph>
    <TTGlyph name="CKT_FA" xMin="0" yMin="-10" xMax="858" yMax="564">
      <contour>
        <pt x="0" y="-9" on="1"/>
        <pt x="0" y="564" on="1"/>
        <pt x="308" y="386" on="1"/>
        <pt x="317" y="409" on="0"/>
        <pt x="349" y="459" on="0"/>
        <pt x="370" y="480" on="1"/>
        <pt x="453" y="560" on="0"/>
        <pt x="577" y="560" on="1"/>
        <pt x="699" y="560" on="0"/>
        <pt x="779" y="480" on="1"/>
        <pt x="858" y="401" on="0"/>
        <pt x="858" y="276" on="1"/>
        <pt x="858" y="152" on="0"/>
        <pt x="778" y="70" on="1"/>
        <pt x="698" y="-10" on="0"/>
        <pt x="577" y="-10" on="1"/>
        <pt x="448" y="-10" on="0"/>
        <pt x="368" y="69" on="1"/>
        <pt x="288" y="149" on="0"/>
        <pt x="288" y="276" on="1"/>
        <pt x="288" y="291" on="1"/>
        <pt x="84" y="407" on="1"/>
        <pt x="84" y="323" on="0"/>
        <pt x="83" y="101" on="0"/>
        <pt x="83" y="-9" on="1"/>
      </contour>
      <contour>
        <pt x="577" y="474" on="1"/>
        <pt x="490" y="474" on="0"/>
        <pt x="431" y="418" on="1"/>
        <pt x="374" y="361" on="0"/>
        <pt x="374" y="276" on="1"/>
        <pt x="374" y="189" on="0"/>
        <pt x="430" y="131" on="1"/>
        <pt x="488" y="76" on="0"/>
        <pt x="577" y="76" on="1"/>
        <pt x="663" y="76" on="0"/>
        <pt x="717" y="133" on="1"/>
        <pt x="775" y="191" on="0"/>
        <pt x="775" y="276" on="1"/>
        <pt x="775" y="360" on="0"/>
        <pt x="717" y="417" on="1"/>
        <pt x="663" y="474" on="0"/>
      </contour>
    </TTGlyph>
    <TTGlyph name="CKT_GA" xMin="0" yMin="-15" xMax="1018" yMax="560">
      <contour>
        <pt x="646" y="-1" on="1"/>
        <pt x="652" y="61" on="0"/>
        <pt x="692" y="143" on="0"/>
        <pt x="725" y="178" on="1"/>
        <pt x="805" y="258" on="0"/>
        <pt x="928" y="258" on="1"/>
        <pt x="933" y="258" on="1"/>
        <pt x="934" y="262" on="0"/>
        <pt x="935" y="271" on="0"/>
        <pt x="935" y="276" on="1"/>
        <pt x="935" y="360" on="0"/>
        <pt x="877" y="417" on="1"/>
        <pt x="823" y="474" on="0"/>
        <pt x="736" y="474" on="1"/>
        <pt x="650" y="474" on="0"/>
        <pt x="591" y="418" on="1"/>
        <pt x="581" y="407" on="0"/>
        <pt x="562" y="383" on="0"/>
        <pt x="557" y="372" on="1"/>
        <pt x="564" y="351" on="0"/>
        <pt x="570" y="302" on="0"/>
        <pt x="570" y="276" on="1"/>
        <pt x="570" y="134" on="0"/>
        <pt x="490" y="45" on="1"/>
        <pt x="473" y="27" on="0"/>
        <pt x="434" y="-1" on="0"/>
        <pt x="402" y="-14" on="1"/>
        <pt x="390" y="11" on="0"/>
        <pt x="375" y="36" on="0"/>
        <pt x="363" y="63" on="1"/>
        <pt x="389" y="75" on="0"/>
        <pt x="415" y="95" on="0"/>
        <pt x="429" y="108" on="1"/>
        <pt x="487" y="172" on="0"/>
        <pt x="487" y="276" on="1"/>
        <pt x="487" y="360" on="0"/>
        <pt x="429" y="417" on="1"/>
        <pt x="375" y="474" on="0"/>
        <pt x="288" y="474" on="1"/>
        <pt x="202" y="474" on="0"/>
        <pt x="143" y="418" on="1"/>
        <pt x="86" y="361" on="0"/>
        <pt x="86" y="276" on="1"/>
        <pt x="86" y="170" on="0"/>
        <pt x="141" y="106" on="1"/>
        <pt x="154" y="93" on="0"/>
        <pt x="179" y="77" on="0"/>
        <pt x="204" y="65" on="1"/>
        <pt x="193" y="38" on="0"/>
        <pt x="180" y="11" on="0"/>
        <pt x="169" y="-15" on="1"/>
        <pt x="114" y="9" on="0"/>
        <pt x="80" y="44" on="1"/>
        <pt x="0" y="130" on="0"/>
        <pt x="0" y="276" on="1"/>
        <pt x="0" y="400" on="0"/>
        <pt x="81" y="480" on="1"/>
        <pt x="164" y="560" on="0"/>
        <pt x="288" y="560" on="1"/>
        <pt x="411" y="560" on="0"/>
        <pt x="491" y="480" on="1"/>
        <pt x="510" y="459" on="1"/>
        <pt x="519" y="470" on="0"/>
        <pt x="529" y="480" on="1"/>
        <pt x="612" y="560" on="0"/>
        <pt x="736" y="560" on="1"/>
        <pt x="859" y="560" on="0"/>
        <pt x="939" y="480" on="1"/>
        <pt x="1018" y="401" on="0"/>
        <pt x="1018" y="276" on="1"/>
        <pt x="1018" y="152" on="0"/>
        <pt x="938" y="70" on="1"/>
        <pt x="858" y="-10" on="0"/>
        <pt x="736" y="-10" on="1"/>
        <pt x="721" y="-10" on="1"/>
        <pt x="706" y="-9" on="0"/>
        <pt x="680" y="-7" on="0"/>
        <pt x="668" y="-5" on="1"/>
      </contour>
      <contour>
        <pt x="877" y="133" on="1"/>
        <pt x="886" y="143" on="0"/>
        <pt x="905" y="167" on="0"/>
        <pt x="907" y="171" on="1"/>
        <pt x="880" y="169" on="0"/>
        <pt x="812" y="140" on="0"/>
        <pt x="787" y="115" on="1"/>
        <pt x="780" y="107" on="0"/>
        <pt x="755" y="75" on="0"/>
        <pt x="756" y="77" on="1"/>
        <pt x="827" y="83" on="0"/>
      </contour>
    </TTGlyph>
    <TTGlyph name="CKT_HA" xMin="0" yMin="-407" xMax="906" yMax="560">
      <contour>
        <pt x="143" y="417" on="1"/>
        <pt x="143" y="446" on="0"/>
        <pt x="164" y="498" on="0"/>
        <pt x="203" y="535" on="0"/>
        <pt x="253" y="558" on="0"/>
        <pt x="283" y="558" on="1"/>
        <pt x="326" y="558" on="0"/>
        <pt x="398" y="499" on="0"/>
        <pt x="411" y="471" on="1"/>
        <pt x="416" y="476" on="1"/>
        <pt x="458" y="515" on="0"/>
        <pt x="561" y="560" on="0"/>
        <pt x="624" y="560" on="1"/>
        <pt x="747" y="560" on="0"/>
        <pt x="827" y="480" on="1"/>
        <pt x="906" y="401" on="0"/>
        <pt x="906" y="276" on="1"/>
        <pt x="906" y="152" on="0"/>
        <pt x="826" y="70" on="1"/>
        <pt x="746" y="-10" on="0"/>
        <pt x="624" y="-10" on="1"/>
        <pt x="616" y="-10" on="0"/>
        <pt x="601" y="-10" on="0"/>
        <pt x="583" y="-7" on="1"/>
        <pt x="600" y="77" on="1"/>
        <pt x="613" y="75" on="0"/>
        <pt x="616" y="76" on="0"/>
        <pt x="624" y="76" on="1"/>
        <pt x="708" y="76" on="0"/>
        <pt x="764" y="133" on="1"/>
        <pt x="822" y="191" on="0"/>
        <pt x="822" y="276" on="1"/>
        <pt x="822" y="360" on="0"/>
        <pt x="764" y="417" on="1"/>
        <pt x="708" y="474" on="0"/>
        <pt x="624" y="474" on="1"/>
        <pt x="536" y="474" on="0"/>
        <pt x="479" y="418" on="1"/>
        <pt x="420" y="362" on="0"/>
        <pt x="420" y="276" on="1"/>
        <pt x="420" y="-202" on="1"/>
        <pt x="416" y="-287" on="0"/>
        <pt x="361" y="-346" on="1"/>
        <pt x="303" y="-407" on="0"/>
        <pt x="213" y="-407" on="1"/>
        <pt x="123" y="-407" on="0"/>
        <pt x="62" y="-346" on="1"/>
        <pt x="32" y="-316" on="0"/>
        <pt x="3" y="-248" on="0"/>
        <pt x="0" y="-198" on="1"/>
        <pt x="84" y="-198" on="1"/>
        <pt x="86" y="-232" on="0"/>
        <pt x="104" y="-271" on="0"/>
        <pt x="120" y="-288" on="1"/>
        <pt x="154" y="-323" on="0"/>
        <pt x="211" y="-323" on="1"/>
        <pt x="265" y="-323" on="0"/>
        <pt x="300" y="-287" on="1"/>
        <pt x="333" y="-253" on="0"/>
        <pt x="336" y="-204" on="1"/>
        <pt x="336" y="286" on="1"/>
        <pt x="310" y="276" on="0"/>
        <pt x="283" y="276" on="1"/>
        <pt x="253" y="276" on="0"/>
        <pt x="203" y="299" on="0"/>
        <pt x="164" y="336" on="0"/>
        <pt x="143" y="388" on="0"/>
      </contour>
      <contour>
        <pt x="227" y="416" on="1"/>
        <pt x="227" y="391" on="0"/>
        <pt x="259" y="359" on="0"/>
        <pt x="284" y="359" on="1"/>
        <pt x="302" y="359" on="0"/>
        <pt x="335" y="381" on="0"/>
        <pt x="340" y="397" on="1"/>
        <pt x="342" y="408" on="0"/>
        <pt x="342" y="422" on="0"/>
        <pt x="342" y="427" on="1"/>
        <pt x="337" y="446" on="0"/>
        <pt x="304" y="475" on="0"/>
        <pt x="284" y="475" on="1"/>
        <pt x="259" y="475" on="0"/>
        <pt x="227" y="441" on="0"/>
      </contour>
    </TTGlyph>
    <TTGlyph name="CKT_JA" xMin="0" yMin="-13" xMax="1018" yMax="560">
      <contour>
        <pt x="0" y="276" on="1"/>
        <pt x="0" y="400" on="0"/>
        <pt x="81" y="480" on="1"/>
        <pt x="164" y="560" on="0"/>
        <pt x="288" y="560" on="1"/>
        <pt x="411" y="560" on="0"/>
        <pt x="491" y="480" on="1"/>
        <pt x="510" y="459" on="1"/>
        <pt x="519" y="470" on="0"/>
        <pt x="529" y="480" on="1"/>
        <pt x="612" y="560" on="0"/>
        <pt x="736" y="560" on="1"/>
        <pt x="859" y="560" on="0"/>
        <pt x="939" y="480" on="1"/>
        <pt x="1018" y="401" on="0"/>
        <pt x="1018" y="276" on="1"/>
        <pt x="1018" y="152" on="0"/>
        <pt x="938" y="70" on="1"/>
        <pt x="858" y="-10" on="0"/>
        <pt x="736" y="-10" on="1"/>
        <pt x="607" y="-10" on="0"/>
        <pt x="528" y="69" on="1"/>
        <pt x="518" y="79" on="1"/>
        <pt x="504" y="57" on="0"/>
        <pt x="445" y="4" on="0"/>
        <pt x="403" y="-13" on="1"/>
        <pt x="378" y="24" on="0"/>
        <pt x="344" y="106" on="0"/>
        <pt x="340" y="139" on="1"/>
        <pt x="331" y="195" on="0"/>
        <pt x="363" y="303" on="0"/>
        <pt x="402" y="352" on="1"/>
        <pt x="411" y="364" on="0"/>
        <pt x="436" y="390" on="0"/>
        <pt x="445" y="398" on="1"/>
        <pt x="444" y="398" on="0"/>
        <pt x="432" y="415" on="0"/>
        <pt x="428" y="417" on="1"/>
        <pt x="373" y="474" on="0"/>
        <pt x="288" y="474" on="1"/>
        <pt x="202" y="474" on="0"/>
        <pt x="143" y="418" on="1"/>
        <pt x="86" y="361" on="0"/>
        <pt x="86" y="276" on="1"/>
        <pt x="86" y="269" on="1"/>
        <pt x="98" y="270" on="0"/>
        <pt x="102" y="270" on="1"/>
        <pt x="131" y="270" on="0"/>
        <pt x="183" y="247" on="0"/>
        <pt x="220" y="210" on="0"/>
        <pt x="243" y="158" on="0"/>
        <pt x="243" y="129" on="1"/>
        <pt x="243" y="100" on="0"/>
        <pt x="220" y="49" on="0"/>
        <pt x="183" y="11" on="0"/>
        <pt x="131" y="-11" on="0"/>
        <pt x="102" y="-11" on="1"/>
        <pt x="77" y="-11" on="0"/>
        <pt x="30" y="5" on="0"/>
        <pt x="5" y="27" on="1"/>
        <pt x="58" y="94" on="1"/>
        <pt x="81" y="70" on="0"/>
        <pt x="104" y="70" on="1"/>
        <pt x="113" y="70" on="0"/>
        <pt x="133" y="81" on="0"/>
        <pt x="147" y="98" on="0"/>
        <pt x="156" y="120" on="0"/>
        <pt x="156" y="131" on="1"/>
        <pt x="156" y="145" on="0"/>
        <pt x="144" y="166" on="0"/>
        <pt x="126" y="179" on="0"/>
        <pt x="101" y="185" on="0"/>
        <pt x="88" y="185" on="1"/>
        <pt x="78" y="185" on="0"/>
        <pt x="49" y="186" on="0"/>
        <pt x="20" y="204" on="0"/>
        <pt x="1" y="241" on="0"/>
      </contour>
      <contour>
        <pt x="570" y="276" on="1"/>
        <pt x="570" y="222" on="0"/>
        <pt x="558" y="173" on="1"/>
        <pt x="562" y="163" on="0"/>
        <pt x="580" y="140" on="0"/>
        <pt x="590" y="131" on="1"/>
        <pt x="650" y="76" on="0"/>
        <pt x="736" y="76" on="1"/>
        <pt x="823" y="76" on="0"/>
        <pt x="877" y="133" on="1"/>
        <pt x="935" y="191" on="0"/>
        <pt x="935" y="276" on="1"/>
        <pt x="935" y="360" on="0"/>
        <pt x="877" y="417" on="1"/>
        <pt x="823" y="474" on="0"/>
        <pt x="736" y="474" on="1"/>
        <pt x="650" y="474" on="0"/>
        <pt x="591" y="418" on="1"/>
        <pt x="581" y="407" on="0"/>
        <pt x="562" y="383" on="0"/>
        <pt x="557" y="372" on="1"/>
        <pt x="564" y="351" on="0"/>
        <pt x="570" y="302" on="0"/>
      </contour>
      <contour>
        <pt x="461" y="300" on="1"/>
        <pt x="445" y="275" on="0"/>
        <pt x="423" y="222" on="0"/>
        <pt x="415" y="168" on="0"/>
        <pt x="424" y="115" on="0"/>
        <pt x="432" y="100" on="1"/>
        <pt x="470" y="139" on="0"/>
        <pt x="499" y="268" on="0"/>
        <pt x="484" y="323" on="1"/>
      </contour>
    </TTGlyph>
    <TTGlyph name="CKT_JHA" xMin="0" yMin="-10" xMax="1018" yMax="565">
      <contour>
        <pt x="204" y="482" on="1"/>
        <pt x="181" y="469" on="0"/>
        <pt x="151" y="451" on="0"/>
        <pt x="141" y="441" on="1"/>
        <pt x="114" y="410" on="0"/>
        <pt x="86" y="328" on="0"/>
        <pt x="86" y="274" on="1"/>
        <pt x="86" y="187" on="0"/>
        <pt x="143" y="132" on="1"/>
        <pt x="204" y="74" on="0"/>
        <pt x="288" y="74" on="1"/>
        <pt x="373" y="74" on="0"/>
        <pt x="429" y="132" on="1"/>
        <pt x="487" y="189" on="0"/>
        <pt x="487" y="274" on="1"/>
        <pt x="487" y="326" on="0"/>
        <pt x="458" y="407" on="0"/>
        <pt x="429" y="439" on="1"/>
        <pt x="417" y="450" on="0"/>
        <pt x="388" y="471" on="0"/>
        <pt x="362" y="483" on="1"/>
        <pt x="402" y="561" on="1"/>
        <pt x="455" y="537" on="0"/>
        <pt x="490" y="502" on="1"/>
        <pt x="499" y="493" on="0"/>
        <pt x="515" y="473" on="0"/>
        <pt x="516" y="472" on="1"/>
        <pt x="529" y="485" on="1"/>
        <pt x="612" y="565" on="0"/>
        <pt x="736" y="565" on="1"/>
        <pt x="859" y="565" on="0"/>
        <pt x="939" y="485" on="1"/>
        <pt x="1018" y="406" on="0"/>
        <pt x="1018" y="281" on="1"/>
        <pt x="1018" y="157" on="0"/>
        <pt x="938" y="75" on="1"/>
        <pt x="899" y="36" on="0"/>
        <pt x="798" y="-10" on="0"/>
        <pt x="736" y="-10" on="1"/>
        <pt x="672" y="-10" on="0"/>
        <pt x="567" y="35" on="0"/>
        <pt x="528" y="74" on="1"/>
        <pt x="524" y="77" on="0"/>
        <pt x="511" y="93" on="0"/>
        <pt x="506" y="87" on="1"/>
        <pt x="508" y="87" on="1"/>
        <pt x="411" y="-10" on="0"/>
        <pt x="288" y="-10" on="1"/>
        <pt x="164" y="-10" on="0"/>
        <pt x="81" y="70" on="1"/>
        <pt x="0" y="149" on="0"/>
        <pt x="0" y="274" on="1"/>
        <pt x="0" y="417" on="0"/>
        <pt x="80" y="503" on="1"/>
        <pt x="98" y="521" on="0"/>
        <pt x="137" y="546" on="0"/>
        <pt x="169" y="562" on="1"/>
      </contour>
      <contour>
        <pt x="570" y="274" on="1"/>
        <pt x="570" y="248" on="0"/>
        <pt x="564" y="200" on="0"/>
        <pt x="557" y="179" on="1"/>
        <pt x="562" y="170" on="0"/>
        <pt x="580" y="147" on="0"/>
        <pt x="590" y="136" on="1"/>
        <pt x="620" y="108" on="0"/>
        <pt x="691" y="72" on="0"/>
        <pt x="736" y="72" on="1"/>
        <pt x="779" y="72" on="0"/>
        <pt x="849" y="108" on="0"/>
        <pt x="877" y="138" on="1"/>
        <pt x="935" y="196" on="0"/>
        <pt x="935" y="281" on="1"/>
        <pt x="935" y="365" on="0"/>
        <pt x="877" y="422" on="1"/>
        <pt x="823" y="479" on="0"/>
        <pt x="736" y="479" on="1"/>
        <pt x="650" y="479" on="0"/>
        <pt x="591" y="423" on="1"/>
        <pt x="570" y="400" on="0"/>
        <pt x="557" y="378" on="1"/>
        <pt x="564" y="355" on="0"/>
        <pt x="570" y="302" on="0"/>
      </contour>
    </TTGlyph>
    <TTGlyph name="CKT_LLA" xMin="0" yMin="-10" xMax="1018" yMax="560">
      <contour>
        <pt x="556" y="176" on="1"/>
        <pt x="562" y="164" on="0"/>
        <pt x="580" y="142" on="0"/>
        <pt x="590" y="131" on="1"/>
        <pt x="648" y="76" on="0"/>
        <pt x="736" y="76" on="1"/>
        <pt x="823" y="76" on="0"/>
        <pt x="877" y="133" on="1"/>
        <pt x="935" y="191" on="0"/>
        <pt x="935" y="276" on="1"/>
        <pt x="935" y="360" on="0"/>
        <pt x="877" y="417" on="1"/>
        <pt x="823" y="474" on="0"/>
        <pt x="736" y="474" on="1"/>
        <pt x="713" y="474" on="0"/>
        <pt x="672" y="467" on="0"/>
        <pt x="643" y="455" on="1"/>
        <pt x="630" y="481" on="0"/>
        <pt x="616" y="505" on="0"/>
        <pt x="604" y="532" on="1"/>
        <pt x="640" y="548" on="0"/>
        <pt x="704" y="560" on="0"/>
        <pt x="736" y="560" on="1"/>
        <pt x="859" y="560" on="0"/>
        <pt x="939" y="480" on="1"/>
        <pt x="1018" y="401" on="0"/>
        <pt x="1018" y="276" on="1"/>
        <pt x="1018" y="152" on="0"/>
        <pt x="938" y="70" on="1"/>
        <pt x="858" y="-10" on="0"/>
        <pt x="736" y="-10" on="1"/>
        <pt x="607" y="-10" on="0"/>
        <pt x="528" y="69" on="1"/>
        <pt x="509" y="89" on="1"/>
        <pt x="491" y="120" on="0"/>
        <pt x="476" y="173" on="0"/>
        <pt x="476" y="195" on="1"/>
        <pt x="476" y="203" on="0"/>
        <pt x="477" y="223" on="0"/>
        <pt x="478" y="232" on="1"/>
        <pt x="479" y="243" on="0"/>
        <pt x="480" y="265" on="0"/>
        <pt x="480" y="277" on="1"/>
        <pt x="480" y="296" on="0"/>
        <pt x="473" y="345" on="0"/>
        <pt x="461" y="378" on="1"/>
        <pt x="455" y="387" on="0"/>
        <pt x="440" y="406" on="0"/>
        <pt x="429" y="417" on="1"/>
        <pt x="375" y="474" on="0"/>
        <pt x="288" y="474" on="1"/>
        <pt x="202" y="474" on="0"/>
        <pt x="143" y="418" on="1"/>
        <pt x="86" y="361" on="0"/>
        <pt x="86" y="276" on="1"/>
        <pt x="86" y="269" on="1"/>
        <pt x="92" y="270" on="0"/>
        <pt x="118" y="274" on="0"/>
        <pt x="129" y="274" on="1"/>
        <pt x="252" y="274" on="0"/>
        <pt x="332" y="193" on="1"/>
        <pt x="401" y="122" on="0"/>
        <pt x="411" y="14" on="1"/>
        <pt x="353" y="-10" on="0"/>
        <pt x="288" y="-10" on="1"/>
        <pt x="159" y="-10" on="0"/>
        <pt x="80" y="69" on="1"/>
        <pt x="0" y="149" on="0"/>
        <pt x="0" y="276" on="1"/>
        <pt x="0" y="400" on="0"/>
        <pt x="81" y="480" on="1"/>
        <pt x="164" y="560" on="0"/>
        <pt x="288" y="560" on="1"/>
        <pt x="411" y="560" on="0"/>
        <pt x="491" y="480" on="1"/>
        <pt x="510" y="459" on="1"/>
        <pt x="537" y="419" on="0"/>
        <pt x="556" y="336" on="0"/>
        <pt x="556" y="300" on="1"/>
        <pt x="556" y="287" on="0"/>
        <pt x="555" y="262" on="0"/>
        <pt x="554" y="251" on="1"/>
        <pt x="554" y="240" on="0"/>
        <pt x="552" y="222" on="0"/>
        <pt x="552" y="215" on="1"/>
        <pt x="552" y="204" on="0"/>
        <pt x="554" y="185" on="0"/>
        <pt x="556" y="178" on="1"/>
      </contour>
      <contour>
        <pt x="142" y="131" on="1"/>
        <pt x="200" y="76" on="0"/>
        <pt x="288" y="76" on="1"/>
        <pt x="308" y="76" on="1"/>
        <pt x="304" y="84" on="0"/>
        <pt x="282" y="119" on="0"/>
        <pt x="270" y="130" on="1"/>
        <pt x="213" y="188" on="0"/>
        <pt x="129" y="188" on="1"/>
        <pt x="123" y="188" on="0"/>
        <pt x="108" y="187" on="0"/>
        <pt x="103" y="187" on="1"/>
        <pt x="108" y="178" on="0"/>
        <pt x="129" y="144" on="0"/>
      </contour>
    </TTGlyph>
    <TTGlyph name="CKT_NA" xMin="0" yMin="-15" xMax="715" yMax="560">
      <contour>
        <pt x="435" y="210" on="1"/>
        <pt x="435" y="123" on="0"/>
        <pt x="314" y="-15" on="1"/>
        <pt x="263" y="6" on="0"/>
        <pt x="225" y="45" on="1"/>
        <pt x="145" y="134" on="0"/>
        <pt x="145" y="276" on="1"/>
        <pt x="145" y="294" on="1"/>
        <pt x="77" y="327" on="0"/>
        <pt x="5" y="458" on="0"/>
        <pt x="0" y="558" on="1"/>
        <pt x="87" y="558" on="1"/>
        <pt x="92" y="488" on="0"/>
        <pt x="132" y="398" on="0"/>
        <pt x="161" y="378" on="1"/>
        <pt x="183" y="438" on="0"/>
        <pt x="224" y="480" on="1"/>
        <pt x="304" y="560" on="0"/>
        <pt x="427" y="560" on="1"/>
        <pt x="552" y="560" on="0"/>
        <pt x="633" y="480" on="1"/>
        <pt x="715" y="401" on="0"/>
        <pt x="715" y="276" on="1"/>
        <pt x="715" y="130" on="0"/>
        <pt x="636" y="44" on="1"/>
        <pt x="600" y="9" on="0"/>
        <pt x="546" y="-15" on="1"/>
        <pt x="535" y="12" on="0"/>
        <pt x="521" y="40" on="0"/>
        <pt x="512" y="65" on="1"/>
        <pt x="534" y="77" on="0"/>
        <pt x="563" y="95" on="0"/>
        <pt x="573" y="106" on="1"/>
        <pt x="630" y="170" on="0"/>
        <pt x="630" y="276" on="1"/>
        <pt x="630" y="361" on="0"/>
        <pt x="572" y="418" on="1"/>
        <pt x="516" y="474" on="0"/>
        <pt x="427" y="474" on="1"/>
        <pt x="343" y="474" on="0"/>
        <pt x="286" y="417" on="1"/>
        <pt x="257" y="388" on="0"/>
        <pt x="243" y="352" on="1"/>
        <pt x="374" y="341" on="0"/>
        <pt x="414" y="277" on="1"/>
        <pt x="435" y="247" on="0"/>
      </contour>
      <contour>
        <pt x="295" y="99" on="1"/>
        <pt x="335" y="150" on="0"/>
        <pt x="335" y="192" on="1"/>
        <pt x="335" y="211" on="0"/>
        <pt x="324" y="237" on="1"/>
        <pt x="302" y="263" on="0"/>
        <pt x="230" y="267" on="1"/>
        <pt x="230" y="224" on="0"/>
        <pt x="260" y="139" on="0"/>
        <pt x="286" y="109" on="1"/>
      </contour>
    </TTGlyph>
    <TTGlyph name="CKT_NYA" xMin="0" yMin="-407" xMax="1018" yMax="560">
      <contour>
        <pt x="428" y="131" on="1"/>
        <pt x="444" y="146" on="0"/>
        <pt x="455" y="174" on="0"/>
        <pt x="457" y="212" on="0"/>
        <pt x="455" y="264" on="0"/>
        <pt x="457" y="301" on="1"/>
        <pt x="459" y="337" on="0"/>
        <pt x="481" y="419" on="0"/>
        <pt x="508" y="459" on="1"/>
        <pt x="527" y="480" on="1"/>
        <pt x="607" y="560" on="0"/>
        <pt x="730" y="560" on="1"/>
        <pt x="854" y="560" on="0"/>
        <pt x="937" y="480" on="1"/>
        <pt x="1018" y="400" on="0"/>
        <pt x="1018" y="276" on="1"/>
        <pt x="1018" y="149" on="0"/>
        <pt x="938" y="69" on="1"/>
        <pt x="859" y="-10" on="0"/>
        <pt x="730" y="-10" on="1"/>
        <pt x="699" y="-10" on="0"/>
        <pt x="643" y="0" on="0"/>
        <pt x="607" y="13" on="1"/>
        <pt x="620" y="41" on="0"/>
        <pt x="635" y="67" on="0"/>
        <pt x="648" y="92" on="1"/>
        <pt x="673" y="82" on="0"/>
        <pt x="711" y="76" on="0"/>
        <pt x="730" y="76" on="1"/>
        <pt x="818" y="76" on="0"/>
        <pt x="876" y="131" on="1"/>
        <pt x="932" y="189" on="0"/>
        <pt x="932" y="276" on="1"/>
        <pt x="932" y="361" on="0"/>
        <pt x="875" y="418" on="1"/>
        <pt x="816" y="474" on="0"/>
        <pt x="730" y="474" on="1"/>
        <pt x="643" y="474" on="0"/>
        <pt x="589" y="417" on="1"/>
        <pt x="577" y="405" on="0"/>
        <pt x="562" y="386" on="0"/>
        <pt x="556" y="377" on="1"/>
        <pt x="551" y="362" on="0"/>
        <pt x="544" y="334" on="0"/>
        <pt x="539" y="303" on="0"/>
        <pt x="537" y="267" on="0"/>
        <pt x="537" y="244" on="1"/>
        <pt x="537" y="227" on="0"/>
        <pt x="538" y="149" on="0"/>
        <pt x="539" y="44" on="0"/>
        <pt x="540" y="-77" on="0"/>
        <pt x="540" y="-194" on="0"/>
        <pt x="540" y="-299" on="0"/>
        <pt x="540" y="-334" on="1"/>
        <pt x="538" y="-404" on="0"/>
        <pt x="458" y="-407" on="1"/>
        <pt x="364" y="-407" on="1"/>
        <pt x="364" y="-328" on="1"/>
        <pt x="422" y="-328" on="1"/>
        <pt x="441" y="-330" on="0"/>
        <pt x="459" y="-317" on="0"/>
        <pt x="457" y="-295" on="1"/>
        <pt x="457" y="40" on="1"/>
        <pt x="384" y="-10" on="0"/>
        <pt x="282" y="-10" on="1"/>
        <pt x="160" y="-10" on="0"/>
        <pt x="80" y="70" on="1"/>
        <pt x="0" y="152" on="0"/>
        <pt x="0" y="276" on="1"/>
        <pt x="0" y="401" on="0"/>
        <pt x="79" y="480" on="1"/>
        <pt x="159" y="560" on="0"/>
        <pt x="282" y="560" on="1"/>
        <pt x="314" y="560" on="0"/>
        <pt x="378" y="548" on="0"/>
        <pt x="414" y="532" on="1"/>
        <pt x="402" y="505" on="0"/>
        <pt x="388" y="481" on="0"/>
        <pt x="375" y="455" on="1"/>
        <pt x="346" y="467" on="0"/>
        <pt x="305" y="474" on="0"/>
        <pt x="282" y="474" on="1"/>
        <pt x="195" y="474" on="0"/>
        <pt x="141" y="417" on="1"/>
        <pt x="83" y="360" on="0"/>
        <pt x="83" y="276" on="1"/>
        <pt x="83" y="191" on="0"/>
        <pt x="141" y="133" on="1"/>
        <pt x="195" y="76" on="0"/>
        <pt x="282" y="76" on="1"/>
        <pt x="370" y="76" on="0"/>
      </contour>
    </TTGlyph>
    <TTGlyph name="CKT_RA" xMin="0" yMin="-10" xMax="787" yMax="561">
      <contour>
        <pt x="1" y="-9" on="1"/>
        <pt x="1" y="141" on="0"/>
        <pt x="0" y="408" on="0"/>
        <pt x="0" y="559" on="1"/>
        <pt x="82" y="559" on="1"/>
        <pt x="98" y="536" on="0"/>
        <pt x="132" y="484" on="0"/>
        <pt x="169" y="426" on="0"/>
        <pt x="210" y="363" on="0"/>
        <pt x="230" y="331" on="1"/>
        <pt x="251" y="298" on="0"/>
        <pt x="291" y="236" on="0"/>
        <pt x="325" y="183" on="0"/>
        <pt x="351" y="142" on="0"/>
        <pt x="359" y="131" on="1"/>
        <pt x="417" y="76" on="0"/>
        <pt x="505" y="76" on="1"/>
        <pt x="592" y="76" on="0"/>
        <pt x="646" y="133" on="1"/>
        <pt x="704" y="191" on="0"/>
        <pt x="704" y="276" on="1"/>
        <pt x="704" y="360" on="0"/>
        <pt x="646" y="417" on="1"/>
        <pt x="592" y="474" on="0"/>
        <pt x="505" y="474" on="1"/>
        <pt x="500" y="474" on="0"/>
        <pt x="494" y="474" on="0"/>
        <pt x="478" y="471" on="1"/>
        <pt x="478" y="559" on="1"/>
        <pt x="496" y="561" on="0"/>
        <pt x="500" y="560" on="0"/>
        <pt x="505" y="560" on="1"/>
        <pt x="628" y="560" on="0"/>
        <pt x="708" y="480" on="1"/>
        <pt x="787" y="401" on="0"/>
        <pt x="787" y="276" on="1"/>
        <pt x="787" y="152" on="0"/>
        <pt x="707" y="70" on="1"/>
        <pt x="627" y="-10" on="0"/>
        <pt x="505" y="-10" on="1"/>
        <pt x="376" y="-10" on="0"/>
        <pt x="297" y="69" on="1"/>
        <pt x="266" y="94" on="0"/>
        <pt x="84" y="411" on="1"/>
        <pt x="84" y="-9" on="1"/>
      </contour>
    </TTGlyph>
    <TTGlyph name="CKT_SA" xMin="0" yMin="-9" xMax="1158" yMax="561">
      <contour>
        <pt x="880" y="561" on="1"/>
        <pt x="949" y="559" on="0"/>
        <pt x="1040" y="519" on="0"/>
        <pt x="1078" y="480" on="1"/>
        <pt x="1158" y="400" on="0"/>
        <pt x="1158" y="275" on="1"/>
        <pt x="1158" y="150" on="0"/>
        <pt x="1079" y="71" on="1"/>
        <pt x="999" y="-9" on="0"/>
        <pt x="876" y="-9" on="1"/>
        <pt x="770" y="-9" on="0"/>
        <pt x="693" y="50" on="1"/>
        <pt x="679" y="65" on="0"/>
        <pt x="644" y="101" on="0"/>
        <pt x="648" y="97" on="1"/>
        <pt x="648" y="91" on="1"/>
        <pt x="610" y="151" on="0"/>
        <pt x="589" y="206" on="0"/>
        <pt x="588" y="233" on="1"/>
        <pt x="588" y="266" on="1"/>
        <pt x="592" y="345" on="0"/>
        <pt x="629" y="404" on="1"/>
        <pt x="625" y="417" on="0"/>
        <pt x="597" y="440" on="0"/>
        <pt x="579" y="440" on="1"/>
        <pt x="560" y="440" on="0"/>
        <pt x="531" y="416" on="0"/>
        <pt x="528" y="401" on="1"/>
        <pt x="565" y="340" on="0"/>
        <pt x="570" y="258" on="1"/>
        <pt x="570" y="231" on="1"/>
        <pt x="567" y="179" on="0"/>
        <pt x="527" y="119" on="1"/>
        <pt x="513" y="95" on="0"/>
        <pt x="481" y="61" on="0"/>
        <pt x="463" y="47" on="1"/>
        <pt x="391" y="-9" on="0"/>
        <pt x="288" y="-9" on="1"/>
        <pt x="164" y="-9" on="0"/>
        <pt x="81" y="71" on="1"/>
        <pt x="0" y="150" on="0"/>
        <pt x="0" y="275" on="1"/>
        <pt x="0" y="402" on="0"/>
        <pt x="80" y="482" on="1"/>
        <pt x="157" y="559" on="0"/>
        <pt x="293" y="561" on="1"/>
        <pt x="293" y="534" on="0"/>
        <pt x="292" y="502" on="0"/>
        <pt x="292" y="475" on="1"/>
        <pt x="239" y="473" on="0"/>
        <pt x="169" y="443" on="0"/>
        <pt x="142" y="419" on="1"/>
        <pt x="114" y="392" on="0"/>
        <pt x="85" y="318" on="0"/>
        <pt x="85" y="275" on="1"/>
        <pt x="85" y="190" on="0"/>
        <pt x="143" y="133" on="1"/>
        <pt x="200" y="77" on="0"/>
        <pt x="288" y="77" on="1"/>
        <pt x="373" y="77" on="0"/>
        <pt x="429" y="134" on="1"/>
        <pt x="435" y="140" on="1"/>
        <pt x="441" y="148" on="0"/>
        <pt x="456" y="160" on="0"/>
        <pt x="447" y="149" on="1"/>
        <pt x="441" y="149" on="1"/>
        <pt x="471" y="177" on="0"/>
        <pt x="481" y="190" on="0"/>
        <pt x="482" y="203" on="1"/>
        <pt x="484" y="213" on="0"/>
        <pt x="486" y="234" on="0"/>
        <pt x="486" y="244" on="1"/>
        <pt x="486" y="255" on="0"/>
        <pt x="484" y="277" on="0"/>
        <pt x="482" y="287" on="1"/>
        <pt x="479" y="305" on="0"/>
        <pt x="462" y="336" on="0"/>
        <pt x="451" y="356" on="1"/>
        <pt x="460" y="341" on="1"/>
        <pt x="460" y="325" on="1"/>
        <pt x="425" y="413" on="0"/>
        <pt x="481" y="504" on="1"/>
        <pt x="481" y="499" on="1"/>
        <pt x="481" y="500" on="0"/>
        <pt x="542" y="531" on="0"/>
        <pt x="576" y="531" on="1"/>
        <pt x="612" y="531" on="0"/>
        <pt x="673" y="500" on="0"/>
        <pt x="691" y="472" on="1"/>
        <pt x="718" y="445" on="0"/>
        <pt x="717" y="373" on="1"/>
        <pt x="707" y="357" on="1"/>
        <pt x="698" y="341" on="0"/>
        <pt x="681" y="311" on="0"/>
        <pt x="678" y="294" on="1"/>
        <pt x="676" y="283" on="0"/>
        <pt x="674" y="258" on="0"/>
        <pt x="674" y="244" on="1"/>
        <pt x="674" y="215" on="0"/>
        <pt x="677" y="201" on="1"/>
        <pt x="682" y="185" on="0"/>
        <pt x="690" y="174" on="0"/>
        <pt x="696" y="169" on="1"/>
        <pt x="700" y="165" on="0"/>
        <pt x="710" y="156" on="0"/>
        <pt x="715" y="151" on="1"/>
        <pt x="731" y="133" on="1"/>
        <pt x="790" y="77" on="0"/>
        <pt x="876" y="77" on="1"/>
        <pt x="962" y="77" on="0"/>
        <pt x="1017" y="133" on="1"/>
        <pt x="1075" y="191" on="0"/>
        <pt x="1075" y="275" on="1"/>
        <pt x="1075" y="360" on="0"/>
        <pt x="1017" y="418" on="1"/>
        <pt x="966" y="470" on="0"/>
        <pt x="880" y="476" on="1"/>
      </contour>
    </TTGlyph>
    <TTGlyph name="CKT_TTA" xMin="0" yMin="-10" xMax="1018" yMax="560">
      <contour>
        <pt x="678" y="82" on="1"/>
        <pt x="701" y="76" on="0"/>
        <pt x="736" y="76" on="1"/>
        <pt x="823" y="76" on="0"/>
        <pt x="877" y="133" on="1"/>
        <pt x="935" y="191" on="0"/>
        <pt x="935" y="276" on="1"/>
        <pt x="935" y="360" on="0"/>
        <pt x="877" y="417" on="1"/>
        <pt x="823" y="474" on="0"/>
        <pt x="736" y="474" on="1"/>
        <pt x="650" y="474" on="0"/>
        <pt x="591" y="418" on="1"/>
        <pt x="581" y="407" on="0"/>
        <pt x="562" y="383" on="0"/>
        <pt x="557" y="372" on="1"/>
        <pt x="564" y="351" on="0"/>
        <pt x="570" y="302" on="0"/>
        <pt x="570" y="276" on="1"/>
        <pt x="570" y="152" on="0"/>
        <pt x="490" y="70" on="1"/>
        <pt x="410" y="-10" on="0"/>
        <pt x="288" y="-10" on="1"/>
        <pt x="159" y="-10" on="0"/>
        <pt x="80" y="69" on="1"/>
        <pt x="0" y="149" on="0"/>
        <pt x="0" y="276" on="1"/>
        <pt x="0" y="400" on="0"/>
        <pt x="81" y="480" on="1"/>
        <pt x="164" y="560" on="0"/>
        <pt x="288" y="560" on="1"/>
        <pt x="411" y="560" on="0"/>
        <pt x="491" y="480" on="1"/>
        <pt x="510" y="459" on="1"/>
        <pt x="519" y="470" on="0"/>
        <pt x="529" y="480" on="1"/>
        <pt x="612" y="560" on="0"/>
        <pt x="736" y="560" on="1"/>
        <pt x="859" y="560" on="0"/>
        <pt x="939" y="480" on="1"/>
        <pt x="1018" y="401" on="0"/>
        <pt x="1018" y="276" on="1"/>
        <pt x="1018" y="152" on="0"/>
        <pt x="938" y="70" on="1"/>
        <pt x="858" y="-10" on="0"/>
        <pt x="736" y="-10" on="1"/>
        <pt x="689" y="-10" on="0"/>
        <pt x="650" y="0" on="1"/>
        <pt x="619" y="12" on="0"/>
        <pt x="619" y="40" on="1"/>
        <pt x="619" y="58" on="0"/>
        <pt x="651" y="88" on="0"/>
      </contour>
      <contour>
        <pt x="288" y="474" on="1"/>
        <pt x="202" y="474" on="0"/>
        <pt x="143" y="418" on="1"/>
        <pt x="86" y="361" on="0"/>
        <pt x="86" y="276" on="1"/>
        <pt x="86" y="189" on="0"/>
        <pt x="142" y="131" on="1"/>
        <pt x="200" y="76" on="0"/>
        <pt x="288" y="76" on="1"/>
        <pt x="375" y="76" on="0"/>
        <pt x="429" y="133" on="1"/>
        <pt x="487" y="191" on="0"/>
        <pt x="487" y="276" on="1"/>
        <pt x="487" y="360" on="0"/>
        <pt x="429" y="417" on="1"/>
        <pt x="375" y="474" on="0"/>
      </contour>
      <contour>
        <pt x="282" y="341" on="1"/>
        <pt x="310" y="341" on="0"/>
        <pt x="351" y="302" on="0"/>
        <pt x="351" y="272" on="1"/>
        <pt x="351" y="245" on="0"/>
        <pt x="310" y="207" on="0"/>
        <pt x="282" y="207" on="1"/>
        <pt x="255" y="207" on="0"/>
        <pt x="217" y="245" on="0"/>
        <pt x="217" y="272" on="1"/>
        <pt x="217" y="302" on="0"/>
        <pt x="255" y="341" on="0"/>
      </contour>
    </TTGlyph>
    <TTGlyph name="CKT_TTHA" xMin="0" yMin="-10" xMax="1018" yMax="560">
      <contour>
        <pt x="288" y="-10" on="1"/>
        <pt x="159" y="-10" on="0"/>
        <pt x="80" y="69" on="1"/>
        <pt x="0" y="149" on="0"/>
        <pt x="0" y="276" on="1"/>
        <pt x="0" y="400" on="0"/>
        <pt x="81" y="480" on="1"/>
        <pt x="164" y="560" on="0"/>
        <pt x="288" y="560" on="1"/>
        <pt x="411" y="560" on="0"/>
        <pt x="491" y="480" on="1"/>
        <pt x="510" y="459" on="1"/>
        <pt x="519" y="470" on="0"/>
        <pt x="529" y="480" on="1"/>
        <pt x="612" y="560" on="0"/>
        <pt x="736" y="560" on="1"/>
        <pt x="859" y="560" on="0"/>
        <pt x="939" y="480" on="1"/>
        <pt x="1018" y="401" on="0"/>
        <pt x="1018" y="276" on="1"/>
        <pt x="1018" y="152" on="0"/>
        <pt x="938" y="70" on="1"/>
        <pt x="858" y="-10" on="0"/>
        <pt x="736" y="-10" on="1"/>
        <pt x="607" y="-10" on="0"/>
        <pt x="528" y="69" on="1"/>
        <pt x="527" y="70" on="0"/>
        <pt x="510" y="89" on="0"/>
        <pt x="509" y="91" on="1"/>
        <pt x="506" y="87" on="0"/>
        <pt x="494" y="74" on="0"/>
        <pt x="490" y="70" on="1"/>
        <pt x="410" y="-10" on="0"/>
      </contour>
      <contour>
        <pt x="288" y="474" on="1"/>
        <pt x="202" y="474" on="0"/>
        <pt x="143" y="418" on="1"/>
        <pt x="86" y="361" on="0"/>
        <pt x="86" y="276" on="1"/>
        <pt x="86" y="189" on="0"/>
        <pt x="142" y="131" on="1"/>
        <pt x="200" y="76" on="0"/>
        <pt x="288" y="76" on="1"/>
        <pt x="375" y="76" on="0"/>
        <pt x="429" y="133" on="1"/>
        <pt x="487" y="191" on="0"/>
        <pt x="487" y="276" on="1"/>
        <pt x="487" y="360" on="0"/>
        <pt x="429" y="417" on="1"/>
        <pt x="375" y="474" on="0"/>
      </contour>
      <contour>
        <pt x="570" y="276" on="1"/>
        <pt x="570" y="222" on="0"/>
        <pt x="556" y="177" on="1"/>
        <pt x="561" y="166" on="0"/>
        <pt x="580" y="142" on="0"/>
        <pt x="590" y="131" on="1"/>
        <pt x="648" y="76" on="0"/>
        <pt x="736" y="76" on="1"/>
        <pt x="823" y="76" on="0"/>
        <pt x="877" y="133" on="1"/>
        <pt x="935" y="191" on="0"/>
        <pt x="935" y="276" on="1"/>
        <pt x="935" y="360" on="0"/>
        <pt x="877" y="417" on="1"/>
        <pt x="823" y="474" on="0"/>
        <pt x="736" y="474" on="1"/>
        <pt x="650" y="474" on="0"/>
        <pt x="591" y="418" on="1"/>
        <pt x="581" y="407" on="0"/>
        <pt x="562" y="383" on="0"/>
        <pt x="557" y="372" on="1"/>
        <pt x="564" y="351" on="0"/>
        <pt x="570" y="302" on="0"/>
      </contour>
      <contour>
        <pt x="282" y="341" on="1"/>
        <pt x="310" y="341" on="0"/>
        <pt x="351" y="302" on="0"/>
        <pt x="351" y="272" on="1"/>
        <pt x="351" y="245" on="0"/>
        <pt x="310" y="207" on="0"/>
        <pt x="282" y="207" on="1"/>
        <pt x="255" y="207" on="0"/>
        <pt x="217" y="245" on="0"/>
        <pt x="217" y="272" on="1"/>
        <pt x="217" y="302" on="0"/>
        <pt x="255" y="341" on="0"/>
      </contour>
    </TTGlyph>
    <TTGlyph name="CKT_XA" xMin="0" yMin="-14" xMax="1018" yMax="560">
      <contour>
        <pt x="677" y="81" on="1"/>
        <pt x="697" y="78" on="0"/>
        <pt x="720" y="76" on="0"/>
        <pt x="736" y="76" on="1"/>
        <pt x="823" y="76" on="0"/>
        <pt x="877" y="133" on="1"/>
        <pt x="935" y="191" on="0"/>
        <pt x="935" y="276" on="1"/>
        <pt x="935" y="360" on="0"/>
        <pt x="877" y="417" on="1"/>
        <pt x="823" y="474" on="0"/>
        <pt x="736" y="474" on="1"/>
        <pt x="650" y="474" on="0"/>
        <pt x="591" y="418" on="1"/>
        <pt x="581" y="407" on="0"/>
        <pt x="562" y="383" on="0"/>
        <pt x="557" y="372" on="1"/>
        <pt x="564" y="351" on="0"/>
        <pt x="570" y="302" on="0"/>
        <pt x="570" y="276" on="1"/>
        <pt x="570" y="134" on="0"/>
        <pt x="490" y="45" on="1"/>
        <pt x="473" y="27" on="0"/>
        <pt x="434" y="-1" on="0"/>
        <pt x="402" y="-14" on="1"/>
        <pt x="390" y="11" on="0"/>
        <pt x="375" y="36" on="0"/>
        <pt x="363" y="63" on="1"/>
        <pt x="389" y="75" on="0"/>
        <pt x="415" y="95" on="0"/>
        <pt x="429" y="108" on="1"/>
        <pt x="487" y="172" on="0"/>
        <pt x="487" y="276" on="1"/>
        <pt x="487" y="360" on="0"/>
        <pt x="429" y="417" on="1"/>
        <pt x="375" y="474" on="0"/>
        <pt x="288" y="474" on="1"/>
        <pt x="260" y="474" on="0"/>
        <pt x="205" y="461" on="0"/>
        <pt x="191" y="453" on="1"/>
        <pt x="199" y="447" on="0"/>
        <pt x="213" y="433" on="1"/>
        <pt x="293" y="353" on="0"/>
        <pt x="293" y="226" on="1"/>
        <pt x="293" y="101" on="0"/>
        <pt x="212" y="21" on="1"/>
        <pt x="201" y="13" on="0"/>
        <pt x="182" y="-3" on="0"/>
        <pt x="168" y="-13" on="1"/>
        <pt x="154" y="-13" on="0"/>
        <pt x="129" y="2" on="0"/>
        <pt x="106" y="20" on="0"/>
        <pt x="85" y="39" on="0"/>
        <pt x="80" y="44" on="1"/>
        <pt x="0" y="130" on="0"/>
        <pt x="0" y="276" on="1"/>
        <pt x="0" y="400" on="0"/>
        <pt x="81" y="480" on="1"/>
        <pt x="164" y="560" on="0"/>
        <pt x="288" y="560" on="1"/>
        <pt x="411" y="560" on="0"/>
        <pt x="491" y="480" on="1"/>
        <pt x="510" y="459" on="1"/>
        <pt x="519" y="470" on="0"/>
        <pt x="529" y="480" on="1"/>
        <pt x="612" y="560" on="0"/>
        <pt x="736" y="560" on="1"/>
        <pt x="859" y="560" on="0"/>
        <pt x="939" y="480" on="1"/>
        <pt x="1018" y="401" on="0"/>
        <pt x="1018" y="276" on="1"/>
        <pt x="1018" y="152" on="0"/>
        <pt x="938" y="70" on="1"/>
        <pt x="858" y="-10" on="0"/>
        <pt x="736" y="-10" on="1"/>
        <pt x="696" y="-10" on="0"/>
        <pt x="650" y="-1" on="1"/>
      </contour>
      <contour>
        <pt x="86" y="276" on="1"/>
        <pt x="86" y="170" on="0"/>
        <pt x="141" y="106" on="1"/>
        <pt x="156" y="92" on="1"/>
        <pt x="207" y="146" on="0"/>
        <pt x="207" y="226" on="1"/>
        <pt x="207" y="316" on="0"/>
        <pt x="151" y="371" on="1"/>
        <pt x="143" y="380" on="0"/>
        <pt x="125" y="393" on="0"/>
        <pt x="122" y="395" on="1"/>
        <pt x="106" y="373" on="0"/>
        <pt x="86" y="309" on="0"/>
      </contour>
    </TTGlyph>
    <TTGlyph name="CKT_ZA" xMin="1" yMin="-17" xMax="1248" yMax="560">
      <contour>
        <pt x="310" y="-6" on="1"/>
        <pt x="261" y="-17" on="0"/>
        <pt x="146" y="10" on="0"/>
        <pt x="55" y="78" on="0"/>
        <pt x="1" y="182" on="0"/>
        <pt x="1" y="254" on="1"/>
        <pt x="46" y="259" on="0"/>
        <pt x="119" y="250" on="0"/>
        <pt x="187" y="226" on="0"/>
        <pt x="247" y="186" on="0"/>
        <pt x="231" y="206" on="1"/>
        <pt x="240" y="181" on="0"/>
        <pt x="231" y="244" on="0"/>
        <pt x="230" y="276" on="1"/>
        <pt x="230" y="400" on="0"/>
        <pt x="311" y="480" on="1"/>
        <pt x="394" y="560" on="0"/>
        <pt x="518" y="560" on="1"/>
        <pt x="641" y="560" on="0"/>
        <pt x="721" y="480" on="1"/>
        <pt x="740" y="459" on="1"/>
        <pt x="749" y="470" on="0"/>
        <pt x="759" y="480" on="1"/>
        <pt x="842" y="560" on="0"/>
        <pt x="966" y="560" on="1"/>
        <pt x="1089" y="560" on="0"/>
        <pt x="1169" y="480" on="1"/>
        <pt x="1248" y="401" on="0"/>
        <pt x="1248" y="276" on="1"/>
        <pt x="1248" y="152" on="0"/>
        <pt x="1168" y="70" on="1"/>
        <pt x="1088" y="-10" on="0"/>
        <pt x="966" y="-10" on="1"/>
        <pt x="837" y="-10" on="0"/>
        <pt x="758" y="69" on="1"/>
        <pt x="748" y="79" on="1"/>
        <pt x="735" y="58" on="0"/>
        <pt x="675" y="4" on="0"/>
        <pt x="632" y="-14" on="1"/>
        <pt x="620" y="11" on="0"/>
        <pt x="605" y="36" on="0"/>
        <pt x="593" y="63" on="1"/>
        <pt x="634" y="82" on="0"/>
        <pt x="659" y="108" on="1"/>
        <pt x="717" y="172" on="0"/>
        <pt x="717" y="276" on="1"/>
        <pt x="717" y="360" on="0"/>
        <pt x="659" y="417" on="1"/>
        <pt x="605" y="474" on="0"/>
        <pt x="518" y="474" on="1"/>
        <pt x="432" y="474" on="0"/>
        <pt x="373" y="418" on="1"/>
        <pt x="316" y="361" on="0"/>
        <pt x="316" y="276" on="1"/>
        <pt x="318" y="226" on="0"/>
        <pt x="336" y="146" on="0"/>
        <pt x="352" y="115" on="1"/>
        <pt x="365" y="99" on="0"/>
        <pt x="375" y="69" on="0"/>
        <pt x="378" y="58" on="1"/>
        <pt x="382" y="40" on="0"/>
        <pt x="352" y="8" on="0"/>
        <pt x="310" y="-9" on="1"/>
      </contour>
      <contour>
        <pt x="820" y="131" on="1"/>
        <pt x="878" y="76" on="0"/>
        <pt x="966" y="76" on="1"/>
        <pt x="1053" y="76" on="0"/>
        <pt x="1107" y="133" on="1"/>
        <pt x="1165" y="191" on="0"/>
        <pt x="1165" y="276" on="1"/>
        <pt x="1165" y="360" on="0"/>
        <pt x="1107" y="417" on="1"/>
        <pt x="1053" y="474" on="0"/>
        <pt x="966" y="474" on="1"/>
        <pt x="880" y="474" on="0"/>
        <pt x="821" y="418" on="1"/>
        <pt x="811" y="407" on="0"/>
        <pt x="792" y="383" on="0"/>
        <pt x="787" y="372" on="1"/>
        <pt x="794" y="351" on="0"/>
        <pt x="800" y="302" on="0"/>
        <pt x="800" y="276" on="1"/>
        <pt x="800" y="222" on="0"/>
        <pt x="788" y="173" on="1"/>
        <pt x="793" y="163" on="0"/>
        <pt x="809" y="141" on="0"/>
      </contour>
      <contour>
        <pt x="77" y="184" on="1"/>
        <pt x="80" y="176" on="0"/>
        <pt x="127" y="123" on="0"/>
        <pt x="190" y="79" on="0"/>
        <pt x="259" y="56" on="0"/>
        <pt x="275" y="59" on="1"/>
        <pt x="209" y="163" on="0"/>
      </contour>
    </TTGlyph>
    <TTGlyph name="CS_BHA" xMin="1" yMin="-10" xMax="982" yMax="562">
      <contour>
        <pt x="450" y="161" on="1"/>
        <pt x="430" y="209" on="0"/>
        <pt x="430" y="276" on="1"/>
        <pt x="430" y="401" on="0"/>
        <pt x="509" y="480" on="1"/>
        <pt x="548" y="519" on="0"/>
        <pt x="650" y="562" on="0"/>
        <pt x="712" y="560" on="1"/>
        <pt x="764" y="559" on="0"/>
        <pt x="836" y="547" on="0"/>
        <pt x="892" y="530" on="0"/>
        <pt x="939" y="510" on="0"/>
        <pt x="974" y="498" on="1"/>
        <pt x="943" y="415" on="1"/>
        <pt x="913" y="426" on="0"/>
        <pt x="869" y="446" on="0"/>
        <pt x="818" y="462" on="0"/>
        <pt x="753" y="474" on="0"/>
        <pt x="712" y="474" on="1"/>
        <pt x="627" y="475" on="0"/>
        <pt x="570" y="417" on="1"/>
        <pt x="513" y="360" on="0"/>
        <pt x="513" y="276" on="1"/>
        <pt x="513" y="265" on="0"/>
        <pt x="514" y="252" on="1"/>
        <pt x="514" y="243" on="1"/>
        <pt x="526" y="255" on="1"/>
        <pt x="611" y="335" on="0"/>
        <pt x="733" y="335" on="1"/>
        <pt x="856" y="335" on="0"/>
        <pt x="939" y="252" on="1"/>
        <pt x="961" y="233" on="0"/>
        <pt x="982" y="195" on="0"/>
        <pt x="982" y="176" on="1"/>
        <pt x="982" y="142" on="0"/>
        <pt x="956" y="113" on="1"/>
        <pt x="948" y="101" on="0"/>
        <pt x="930" y="79" on="0"/>
        <pt x="920" y="69" on="1"/>
        <pt x="841" y="-10" on="0"/>
        <pt x="712" y="-10" on="1"/>
        <pt x="624" y="-10" on="0"/>
        <pt x="559" y="30" on="1"/>
        <pt x="532" y="47" on="0"/>
        <pt x="509" y="70" on="1"/>
        <pt x="502" y="78" on="1"/>
        <pt x="500" y="80" on="1"/>
        <pt x="490" y="70" on="1"/>
        <pt x="407" y="-10" on="0"/>
        <pt x="283" y="-10" on="1"/>
        <pt x="160" y="-10" on="0"/>
        <pt x="80" y="70" on="1"/>
        <pt x="1" y="149" on="0"/>
        <pt x="1" y="274" on="1"/>
        <pt x="1" y="399" on="0"/>
        <pt x="81" y="479" on="1"/>
        <pt x="161" y="560" on="0"/>
        <pt x="283" y="560" on="1"/>
        <pt x="303" y="560" on="0"/>
        <pt x="340" y="557" on="0"/>
        <pt x="369" y="549" on="1"/>
        <pt x="342" y="469" on="1"/>
        <pt x="311" y="474" on="0"/>
        <pt x="283" y="474" on="1"/>
        <pt x="198" y="474" on="0"/>
        <pt x="142" y="417" on="1"/>
        <pt x="84" y="359" on="0"/>
        <pt x="84" y="274" on="1"/>
        <pt x="84" y="189" on="0"/>
        <pt x="142" y="132" on="1"/>
        <pt x="198" y="75" on="0"/>
        <pt x="283" y="75" on="1"/>
        <pt x="326" y="75" on="0"/>
        <pt x="399" y="105" on="0"/>
        <pt x="428" y="132" on="1"/>
        <pt x="439" y="142" on="0"/>
        <pt x="448" y="155" on="1"/>
        <pt x="450" y="157" on="0"/>
        <pt x="451" y="158" on="1"/>
        <pt x="450" y="159" on="0"/>
      </contour>
      <contour>
        <pt x="858" y="131" on="1"/>
        <pt x="868" y="142" on="0"/>
        <pt x="886" y="164" on="0"/>
        <pt x="891" y="174" on="1"/>
        <pt x="884" y="184" on="0"/>
        <pt x="873" y="192" on="1"/>
        <pt x="819" y="249" on="0"/>
        <pt x="734" y="249" on="1"/>
        <pt x="647" y="249" on="0"/>
        <pt x="588" y="193" on="1"/>
        <pt x="568" y="172" on="0"/>
        <pt x="555" y="150" on="1"/>
        <pt x="569" y="134" on="1"/>
        <pt x="626" y="76" on="0"/>
        <pt x="712" y="76" on="1"/>
        <pt x="800" y="76" on="0"/>
      </contour>
    </TTGlyph>
    <TTGlyph name="CS_CHA" xMin="-1" yMin="-10" xMax="998" yMax="560">
      <contour>
        <pt x="640" y="552" on="1"/>
        <pt x="682" y="560" on="0"/>
        <pt x="716" y="560" on="1"/>
        <pt x="839" y="560" on="0"/>
        <pt x="919" y="480" on="1"/>
        <pt x="998" y="401" on="0"/>
        <pt x="998" y="276" on="1"/>
        <pt x="998" y="152" on="0"/>
        <pt x="918" y="70" on="1"/>
        <pt x="838" y="-10" on="0"/>
        <pt x="716" y="-10" on="1"/>
        <pt x="587" y="-10" on="0"/>
        <pt x="508" y="69" on="1"/>
        <pt x="507" y="70" on="0"/>
        <pt x="498" y="79" on="1"/>
        <pt x="490" y="88" on="0"/>
        <pt x="488" y="90" on="1"/>
        <pt x="485" y="87" on="0"/>
        <pt x="475" y="74" on="0"/>
        <pt x="470" y="70" on="1"/>
        <pt x="390" y="-10" on="0"/>
        <pt x="268" y="-10" on="1"/>
        <pt x="139" y="-10" on="0"/>
        <pt x="60" y="69" on="1"/>
        <pt x="25" y="102" on="0"/>
        <pt x="1" y="156" on="1"/>
        <pt x="80" y="192" on="1"/>
        <pt x="92" y="167" on="0"/>
        <pt x="109" y="145" on="0"/>
        <pt x="122" y="131" on="1"/>
        <pt x="180" y="76" on="0"/>
        <pt x="268" y="76" on="1"/>
        <pt x="353" y="76" on="0"/>
        <pt x="409" y="133" on="1"/>
        <pt x="466" y="190" on="0"/>
        <pt x="466" y="276" on="1"/>
        <pt x="466" y="361" on="0"/>
        <pt x="409" y="417" on="1"/>
        <pt x="399" y="427" on="0"/>
        <pt x="388" y="435" on="1"/>
        <pt x="383" y="426" on="0"/>
        <pt x="382" y="427" on="1"/>
        <pt x="379" y="423" on="1"/>
        <pt x="295" y="334" on="0"/>
        <pt x="181" y="330" on="1"/>
        <pt x="133" y="330" on="0"/>
        <pt x="47" y="357" on="0"/>
        <pt x="-1" y="390" on="1"/>
        <pt x="9" y="413" on="1"/>
        <pt x="13" y="419" on="0"/>
        <pt x="16" y="424" on="1"/>
        <pt x="22" y="433" on="0"/>
        <pt x="28" y="442" on="1"/>
        <pt x="44" y="463" on="0"/>
        <pt x="61" y="480" on="1"/>
        <pt x="111" y="528" on="0"/>
        <pt x="177" y="547" on="1"/>
        <pt x="195" y="553" on="0"/>
        <pt x="214" y="556" on="1"/>
        <pt x="240" y="560" on="0"/>
        <pt x="268" y="560" on="1"/>
        <pt x="391" y="560" on="0"/>
        <pt x="471" y="480" on="1"/>
        <pt x="550" y="401" on="0"/>
        <pt x="550" y="276" on="1"/>
        <pt x="550" y="221" on="0"/>
        <pt x="535" y="177" on="1"/>
        <pt x="542" y="167" on="0"/>
        <pt x="560" y="142" on="0"/>
        <pt x="570" y="131" on="1"/>
        <pt x="626" y="76" on="0"/>
        <pt x="716" y="76" on="1"/>
        <pt x="801" y="76" on="0"/>
        <pt x="857" y="133" on="1"/>
        <pt x="914" y="190" on="0"/>
        <pt x="914" y="276" on="1"/>
        <pt x="914" y="361" on="0"/>
        <pt x="857" y="417" on="1"/>
        <pt x="801" y="474" on="0"/>
        <pt x="716" y="474" on="1"/>
        <pt x="694" y="474" on="0"/>
        <pt x="665" y="470" on="1"/>
      </contour>
      <contour>
        <pt x="253" y="472" on="1"/>
        <pt x="182" y="469" on="0"/>
        <pt x="129" y="422" on="1"/>
        <pt x="127" y="422" on="0"/>
        <pt x="167" y="419" on="0"/>
        <pt x="179" y="418" on="1"/>
        <pt x="213" y="419" on="0"/>
        <pt x="281" y="449" on="0"/>
        <pt x="301" y="467" on="1"/>
        <pt x="297" y="469" on="0"/>
        <pt x="266" y="472" on="0"/>
      </contour>
    </TTGlyph>
    <TTGlyph name="CS_GHA" xMin="2" yMin="-10" xMax="571" yMax="560">
      <contour>
        <pt x="25" y="399" on="1"/>
        <pt x="26" y="399" on="1"/>
        <pt x="25" y="400" on="1"/>
        <pt x="26" y="401" on="1"/>
        <pt x="37" y="425" on="0"/>
        <pt x="50" y="443" on="1"/>
        <pt x="64" y="463" on="0"/>
        <pt x="82" y="480" on="1"/>
        <pt x="165" y="560" on="0"/>
        <pt x="289" y="560" on="1"/>
        <pt x="412" y="560" on="0"/>
        <pt x="492" y="480" on="1"/>
        <pt x="571" y="401" on="0"/>
        <pt x="571" y="276" on="1"/>
        <pt x="571" y="152" on="0"/>
        <pt x="491" y="70" on="1"/>
        <pt x="411" y="-10" on="0"/>
        <pt x="289" y="-10" on="1"/>
        <pt x="160" y="-10" on="0"/>
        <pt x="81" y="69" on="1"/>
        <pt x="50" y="99" on="0"/>
        <pt x="30" y="137" on="1"/>
        <pt x="19" y="156" on="0"/>
        <pt x="2" y="195" on="0"/>
        <pt x="2" y="214" on="1"/>
        <pt x="2" y="233" on="0"/>
        <pt x="24" y="267" on="0"/>
        <pt x="75" y="290" on="0"/>
        <pt x="154" y="303" on="0"/>
        <pt x="213" y="303" on="1"/>
        <pt x="336" y="303" on="0"/>
        <pt x="416" y="223" on="1"/>
        <pt x="439" y="199" on="0"/>
        <pt x="457" y="167" on="1"/>
        <pt x="469" y="185" on="0"/>
        <pt x="487" y="245" on="0"/>
        <pt x="487" y="276" on="1"/>
        <pt x="487" y="360" on="0"/>
        <pt x="430" y="417" on="1"/>
        <pt x="376" y="472" on="0"/>
        <pt x="295" y="474" on="1"/>
        <pt x="293" y="459" on="0"/>
        <pt x="283" y="427" on="0"/>
        <pt x="277" y="416" on="1"/>
        <pt x="263" y="390" on="0"/>
        <pt x="216" y="355" on="0"/>
        <pt x="187" y="347" on="1"/>
        <pt x="163" y="341" on="0"/>
        <pt x="140" y="341" on="1"/>
        <pt x="101" y="341" on="0"/>
        <pt x="72" y="357" on="1"/>
        <pt x="73" y="357" on="1"/>
        <pt x="61" y="363" on="0"/>
        <pt x="39" y="381" on="0"/>
        <pt x="27" y="398" on="1"/>
      </contour>
      <contour>
        <pt x="143" y="131" on="1"/>
        <pt x="199" y="76" on="0"/>
        <pt x="289" y="76" on="1"/>
        <pt x="347" y="76" on="0"/>
        <pt x="393" y="103" on="1"/>
        <pt x="388" y="114" on="0"/>
        <pt x="366" y="147" on="0"/>
        <pt x="354" y="160" on="1"/>
        <pt x="297" y="217" on="0"/>
        <pt x="213" y="217" on="1"/>
        <pt x="149" y="217" on="0"/>
        <pt x="104" y="187" on="1"/>
        <pt x="117" y="157" on="0"/>
      </contour>
      <contour>
        <pt x="144" y="418" on="1"/>
        <pt x="137" y="411" on="0"/>
        <pt x="130" y="403" on="1"/>
        <pt x="134" y="402" on="0"/>
        <pt x="142" y="402" on="1"/>
        <pt x="148" y="402" on="0"/>
        <pt x="162" y="404" on="0"/>
        <pt x="170" y="406" on="1"/>
        <pt x="187" y="411" on="0"/>
        <pt x="213" y="433" on="0"/>
        <pt x="221" y="447" on="1"/>
        <pt x="226" y="455" on="0"/>
        <pt x="230" y="466" on="1"/>
        <pt x="181" y="454" on="0"/>
      </contour>
    </TTGlyph>
    <TTGlyph name="CS_JHA" xMin="0" yMin="-10" xMax="998" yMax="560">
      <contour>
        <pt x="995" y="229" on="1"/>
        <pt x="982" y="136" on="0"/>
        <pt x="918" y="70" on="1"/>
        <pt x="838" y="-10" on="0"/>
        <pt x="716" y="-10" on="1"/>
        <pt x="587" y="-10" on="0"/>
        <pt x="508" y="69" on="1"/>
        <pt x="507" y="70" on="0"/>
        <pt x="498" y="79" on="1"/>
        <pt x="490" y="88" on="0"/>
        <pt x="488" y="90" on="1"/>
        <pt x="485" y="87" on="0"/>
        <pt x="475" y="74" on="0"/>
        <pt x="470" y="70" on="1"/>
        <pt x="390" y="-10" on="0"/>
        <pt x="268" y="-10" on="1"/>
        <pt x="139" y="-10" on="0"/>
        <pt x="60" y="69" on="1"/>
        <pt x="25" y="102" on="0"/>
        <pt x="1" y="156" on="1"/>
        <pt x="80" y="192" on="1"/>
        <pt x="92" y="167" on="0"/>
        <pt x="109" y="145" on="0"/>
        <pt x="122" y="131" on="1"/>
        <pt x="180" y="76" on="0"/>
        <pt x="268" y="76" on="1"/>
        <pt x="353" y="76" on="0"/>
        <pt x="409" y="133" on="1"/>
        <pt x="466" y="190" on="0"/>
        <pt x="466" y="276" on="1"/>
        <pt x="466" y="361" on="0"/>
        <pt x="409" y="417" on="1"/>
        <pt x="353" y="474" on="0"/>
        <pt x="268" y="474" on="1"/>
        <pt x="182" y="474" on="0"/>
        <pt x="123" y="418" on="1"/>
        <pt x="110" y="405" on="0"/>
        <pt x="92" y="379" on="0"/>
        <pt x="80" y="355" on="1"/>
        <pt x="53" y="366" on="0"/>
        <pt x="26" y="379" on="0"/>
        <pt x="0" y="390" on="1"/>
        <pt x="13" y="421" on="0"/>
        <pt x="44" y="463" on="0"/>
        <pt x="61" y="480" on="1"/>
        <pt x="144" y="560" on="0"/>
        <pt x="268" y="560" on="1"/>
        <pt x="391" y="560" on="0"/>
        <pt x="471" y="480" on="1"/>
        <pt x="550" y="401" on="0"/>
        <pt x="550" y="276" on="1"/>
        <pt x="550" y="221" on="0"/>
        <pt x="535" y="177" on="1"/>
        <pt x="542" y="167" on="0"/>
        <pt x="560" y="142" on="0"/>
        <pt x="570" y="131" on="1"/>
        <pt x="626" y="76" on="0"/>
        <pt x="716" y="76" on="1"/>
        <pt x="801" y="76" on="0"/>
        <pt x="857" y="133" on="1"/>
        <pt x="914" y="190" on="0"/>
        <pt x="914" y="276" on="1"/>
        <pt x="914" y="287" on="1"/>
        <pt x="913" y="290" on="0"/>
        <pt x="913" y="292" on="1"/>
        <pt x="908" y="292" on="1"/>
        <pt x="785" y="292" on="0"/>
        <pt x="705" y="372" on="1"/>
        <pt x="672" y="407" on="0"/>
        <pt x="632" y="489" on="0"/>
        <pt x="626" y="551" on="1"/>
        <pt x="648" y="555" on="1"/>
        <pt x="661" y="557" on="0"/>
        <pt x="687" y="559" on="0"/>
        <pt x="702" y="560" on="1"/>
        <pt x="716" y="560" on="1"/>
        <pt x="838" y="560" on="0"/>
        <pt x="918" y="480" on="1"/>
        <pt x="986" y="410" on="0"/>
        <pt x="996" y="310" on="1"/>
        <pt x="997" y="299" on="0"/>
        <pt x="998" y="288" on="1"/>
        <pt x="998" y="286" on="1"/>
        <pt x="998" y="276" on="1"/>
        <pt x="998" y="263" on="1"/>
        <pt x="997" y="245" on="0"/>
      </contour>
      <contour>
        <pt x="857" y="417" on="1"/>
        <pt x="807" y="467" on="0"/>
        <pt x="736" y="473" on="1"/>
        <pt x="735" y="475" on="0"/>
        <pt x="760" y="443" on="0"/>
        <pt x="767" y="435" on="1"/>
        <pt x="792" y="410" on="0"/>
        <pt x="860" y="381" on="0"/>
        <pt x="887" y="379" on="1"/>
        <pt x="885" y="383" on="0"/>
        <pt x="866" y="407" on="0"/>
      </contour>
    </TTGlyph>
    <TTGlyph name="CS_NNA" xMin="-1" yMin="-9" xMax="946" yMax="562">
      <contour>
        <pt x="467" y="302" on="1"/>
        <pt x="482" y="302" on="1"/>
        <pt x="482" y="326" on="1"/>
        <pt x="489" y="371" on="0"/>
        <pt x="523" y="451" on="0"/>
        <pt x="549" y="484" on="1"/>
        <pt x="639" y="560" on="0"/>
        <pt x="718" y="560" on="1"/>
        <pt x="856" y="561" on="0"/>
        <pt x="946" y="447" on="1"/>
        <pt x="872" y="408" on="1"/>
        <pt x="815" y="481" on="0"/>
        <pt x="718" y="475" on="1"/>
        <pt x="647" y="475" on="0"/>
        <pt x="606" y="419" on="1"/>
        <pt x="567" y="363" on="0"/>
        <pt x="571" y="302" on="1"/>
        <pt x="594" y="302" on="1"/>
        <pt x="614" y="302" on="0"/>
        <pt x="628" y="303" on="1"/>
        <pt x="651" y="304" on="0"/>
        <pt x="694" y="305" on="0"/>
        <pt x="714" y="305" on="1"/>
        <pt x="760" y="305" on="0"/>
        <pt x="838" y="294" on="0"/>
        <pt x="899" y="263" on="0"/>
        <pt x="938" y="207" on="0"/>
        <pt x="944" y="161" on="1"/>
        <pt x="940" y="86" on="0"/>
        <pt x="819" y="2" on="0"/>
        <pt x="712" y="-9" on="1"/>
        <pt x="638" y="-5" on="0"/>
        <pt x="549" y="51" on="0"/>
        <pt x="501" y="127" on="0"/>
        <pt x="483" y="211" on="0"/>
        <pt x="481" y="234" on="1"/>
        <pt x="468" y="234" on="1"/>
        <pt x="466" y="210" on="0"/>
        <pt x="449" y="128" on="0"/>
        <pt x="401" y="51" on="0"/>
        <pt x="312" y="-5" on="0"/>
        <pt x="237" y="-9" on="1"/>
        <pt x="130" y="2" on="0"/>
        <pt x="8" y="85" on="0"/>
        <pt x="6" y="162" on="1"/>
        <pt x="7" y="208" on="0"/>
        <pt x="51" y="263" on="0"/>
        <pt x="127" y="293" on="0"/>
        <pt x="231" y="303" on="0"/>
        <pt x="294" y="303" on="1"/>
        <pt x="340" y="303" on="1"/>
        <pt x="366" y="303" on="0"/>
        <pt x="379" y="302" on="1"/>
        <pt x="380" y="328" on="0"/>
        <pt x="360" y="392" on="0"/>
        <pt x="342" y="419" on="1"/>
        <pt x="322" y="446" on="0"/>
        <pt x="294" y="460" on="1"/>
        <pt x="282" y="467" on="0"/>
        <pt x="268" y="470" on="1"/>
        <pt x="266" y="457" on="0"/>
        <pt x="257" y="431" on="0"/>
        <pt x="252" y="422" on="1"/>
        <pt x="238" y="397" on="0"/>
        <pt x="191" y="361" on="0"/>
        <pt x="162" y="353" on="1"/>
        <pt x="138" y="347" on="0"/>
        <pt x="115" y="347" on="1"/>
        <pt x="76" y="347" on="0"/>
        <pt x="47" y="363" on="1"/>
        <pt x="48" y="363" on="1"/>
        <pt x="39" y="367" on="0"/>
        <pt x="20" y="384" on="0"/>
        <pt x="5" y="407" on="0"/>
        <pt x="-1" y="433" on="0"/>
        <pt x="3" y="447" on="1"/>
        <pt x="91" y="562" on="0"/>
        <pt x="231" y="560" on="1"/>
        <pt x="270" y="560" on="0"/>
        <pt x="357" y="523" on="0"/>
        <pt x="403" y="486" on="1"/>
        <pt x="428" y="454" on="0"/>
        <pt x="459" y="371" on="0"/>
        <pt x="467" y="326" on="1"/>
      </contour>
      <contour>
        <pt x="572" y="229" on="1"/>
        <pt x="576" y="185" on="0"/>
        <pt x="601" y="124" on="0"/>
        <pt x="637" y="90" on="0"/>
        <pt x="685" y="77" on="0"/>
        <pt x="713" y="78" on="1"/>
        <pt x="782" y="80" on="0"/>
        <pt x="840" y="118" on="0"/>
        <pt x="849" y="162" on="1"/>
        <pt x="854" y="197" on="0"/>
        <pt x="746" y="236" on="0"/>
        <pt x="639" y="236" on="1"/>
        <pt x="623" y="236" on="0"/>
        <pt x="591" y="235" on="0"/>
        <pt x="577" y="234" on="1"/>
      </contour>
      <contour>
        <pt x="373" y="234" on="1"/>
        <pt x="364" y="235" on="0"/>
        <pt x="350" y="235" on="1"/>
        <pt x="324" y="235" on="1"/>
        <pt x="268" y="235" on="0"/>
        <pt x="181" y="222" on="0"/>
        <pt x="122" y="200" on="0"/>
        <pt x="98" y="175" on="0"/>
        <pt x="100" y="162" on="1"/>
        <pt x="109" y="119" on="0"/>
        <pt x="169" y="80" on="0"/>
        <pt x="236" y="78" on="1"/>
        <pt x="265" y="77" on="0"/>
        <pt x="312" y="90" on="0"/>
        <pt x="348" y="125" on="0"/>
        <pt x="372" y="185" on="0"/>
        <pt x="377" y="229" on="1"/>
      </contour>
      <contour>
        <pt x="81" y="415" on="1"/>
        <pt x="89" y="411" on="0"/>
        <pt x="108" y="408" on="0"/>
        <pt x="117" y="408" on="1"/>
        <pt x="123" y="408" on="0"/>
        <pt x="137" y="410" on="0"/>
        <pt x="145" y="412" on="1"/>
        <pt x="162" y="417" on="0"/>
        <pt x="188" y="439" on="0"/>
        <pt x="196" y="453" on="1"/>
        <pt x="201" y="462" on="0"/>
        <pt x="205" y="475" on="1"/>
        <pt x="130" y="471" on="0"/>
      </contour>
    </TTGlyph>
    <TTGlyph name="D" xMin="82" yMin="0" xMax="674" yMax="688">
      <contour>
        <pt x="674" y="351" on="1"/>
        <pt x="674" y="245" on="0"/>
        <pt x="591" y="85" on="0"/>
        <pt x="439" y="0" on="0"/>
        <pt x="339" y="0" on="1"/>
        <pt x="82" y="0" on="1"/>
        <pt x="82" y="688" on="1"/>
        <pt x="310" y="688" on="1"/>
        <pt x="484" y="688" on="0"/>
        <pt x="674" y="513" on="0"/>
      </contour>
      <contour>
        <pt x="581" y="351" on="1"/>
        <pt x="581" y="479" on="0"/>
        <pt x="440" y="613" on="0"/>
        <pt x="308" y="613" on="1"/>
        <pt x="175" y="613" on="1"/>
        <pt x="175" y="75" on="1"/>
        <pt x="329" y="75" on="1"/>
        <pt x="404" y="75" on="0"/>
        <pt x="519" y="141" on="0"/>
        <pt x="581" y="266" on="0"/>
      </contour>
    </TTGlyph>
    <TTGlyph name="E" xMin="82" yMin="0" xMax="624" yMax="688">
      <contour>
        <pt x="82" y="0" on="1"/>
        <pt x="82" y="688" on="1"/>
        <pt x="604" y="688" on="1"/>
        <pt x="604" y="612" on="1"/>
        <pt x="175" y="612" on="1"/>
        <pt x="175" y="391" on="1"/>
        <pt x="575" y="391" on="1"/>
        <pt x="575" y="316" on="1"/>
        <pt x="175" y="316" on="1"/>
        <pt x="175" y="76" on="1"/>
        <pt x="624" y="76" on="1"/>
        <pt x="624" y="0" on="1"/>
      </contour>
    </TTGlyph>
    <TTGlyph name="Emacron" xMin="82" yMin="0" xMax="624" yMax="829">
      <contour>
        <pt x="82" y="0" on="1"/>
        <pt x="82" y="688" on="1"/>
        <pt x="604" y="688" on="1"/>
        <pt x="604" y="612" on="1"/>
        <pt x="175" y="612" on="1"/>
        <pt x="175" y="391" on="1"/>
        <pt x="575" y="391" on="1"/>
        <pt x="575" y="316" on="1"/>
        <pt x="175" y="316" on="1"/>
        <pt x="175" y="76" on="1"/>
        <pt x="624" y="76" on="1"/>
        <pt x="624" y="0" on="1"/>
      </contour>
      <contour>
        <pt x="478" y="767" on="1"/>
        <pt x="209" y="767" on="1"/>
        <pt x="209" y="829" on="1"/>
        <pt x="478" y="829" on="1"/>
      </contour>
    </TTGlyph>
    <TTGlyph name="Euro" xMin="7" yMin="-10" xMax="541" yMax="698">
      <contour>
        <pt x="337" y="62" on="1"/>
        <pt x="385" y="62" on="0"/>
        <pt x="444" y="110" on="0"/>
        <pt x="451" y="155" on="1"/>
        <pt x="541" y="148" on="1"/>
        <pt x="535" y="115" on="0"/>
        <pt x="504" y="57" on="0"/>
        <pt x="454" y="15" on="0"/>
        <pt x="382" y="-10" on="0"/>
        <pt x="335" y="-10" on="1"/>
        <pt x="276" y="-10" on="0"/>
        <pt x="190" y="28" on="0"/>
        <pt x="131" y="96" on="0"/>
        <pt x="97" y="189" on="0"/>
        <pt x="90" y="245" on="1"/>
        <pt x="7" y="245" on="1"/>
        <pt x="27" y="308" on="1"/>
        <pt x="85" y="308" on="1"/>
        <pt x="85" y="312" on="0"/>
        <pt x="84" y="334" on="0"/>
        <pt x="84" y="346" on="1"/>
        <pt x="84" y="359" on="0"/>
        <pt x="85" y="385" on="0"/>
        <pt x="85" y="388" on="1"/>
        <pt x="7" y="388" on="1"/>
        <pt x="27" y="450" on="1"/>
        <pt x="90" y="450" on="1"/>
        <pt x="97" y="510" on="0"/>
        <pt x="132" y="602" on="0"/>
        <pt x="193" y="666" on="0"/>
        <pt x="277" y="698" on="0"/>
        <pt x="333" y="698" on="1"/>
        <pt x="381" y="698" on="0"/>
        <pt x="452" y="674" on="0"/>
        <pt x="503" y="631" on="0"/>
        <pt x="533" y="574" on="0"/>
        <pt x="540" y="541" on="1"/>
        <pt x="449" y="534" on="1"/>
        <pt x="443" y="578" on="0"/>
        <pt x="383" y="627" on="0"/>
        <pt x="332" y="627" on="1"/>
        <pt x="299" y="627" on="0"/>
        <pt x="247" y="608" on="0"/>
        <pt x="208" y="565" on="0"/>
        <pt x="184" y="499" on="0"/>
        <pt x="178" y="450" on="1"/>
        <pt x="396" y="450" on="1"/>
        <pt x="377" y="388" on="1"/>
        <pt x="175" y="388" on="1"/>
        <pt x="174" y="380" on="0"/>
        <pt x="174" y="357" on="0"/>
        <pt x="174" y="346" on="1"/>
        <pt x="174" y="335" on="0"/>
        <pt x="174" y="317" on="0"/>
        <pt x="175" y="308" on="1"/>
        <pt x="396" y="308" on="1"/>
        <pt x="377" y="245" on="1"/>
        <pt x="179" y="245" on="1"/>
        <pt x="184" y="206" on="0"/>
        <pt x="204" y="138" on="0"/>
        <pt x="242" y="89" on="0"/>
        <pt x="298" y="62" on="0"/>
      </contour>
    </TTGlyph>
    <TTGlyph name="F" xMin="82" yMin="0" xMax="571" yMax="688">
      <contour>
        <pt x="175" y="612" on="1"/>
        <pt x="175" y="356" on="1"/>
        <pt x="559" y="356" on="1"/>
        <pt x="559" y="279" on="1"/>
        <pt x="175" y="279" on="1"/>
        <pt x="175" y="0" on="1"/>
        <pt x="82" y="0" on="1"/>
        <pt x="82" y="688" on="1"/>
        <pt x="571" y="688" on="1"/>
        <pt x="571" y="612" on="1"/>
      </contour>
    </TTGlyph>
    <TTGlyph name="G" xMin="50" yMin="-10" xMax="703" yMax="698">
      <contour>
        <pt x="50" y="347" on="1"/>
        <pt x="50" y="515" on="0"/>
        <pt x="230" y="698" on="0"/>
        <pt x="392" y="698" on="1"/>
        <pt x="507" y="698" on="0"/>
        <pt x="649" y="621" on="0"/>
        <pt x="688" y="536" on="1"/>
        <pt x="599" y="510" on="1"/>
        <pt x="570" y="568" on="0"/>
        <pt x="467" y="622" on="0"/>
        <pt x="390" y="622" on="1"/>
        <pt x="271" y="622" on="0"/>
        <pt x="145" y="478" on="0"/>
        <pt x="145" y="347" on="1"/>
        <pt x="145" y="217" on="0"/>
        <pt x="279" y="66" on="0"/>
        <pt x="397" y="66" on="1"/>
        <pt x="464" y="66" on="0"/>
        <pt x="581" y="107" on="0"/>
        <pt x="617" y="142" on="1"/>
        <pt x="617" y="266" on="1"/>
        <pt x="411" y="266" on="1"/>
        <pt x="411" y="344" on="1"/>
        <pt x="703" y="344" on="1"/>
        <pt x="703" y="107" on="1"/>
        <pt x="648" y="51" on="0"/>
        <pt x="489" y="-10" on="0"/>
        <pt x="397" y="-10" on="1"/>
        <pt x="289" y="-10" on="0"/>
        <pt x="133" y="76" on="0"/>
        <pt x="50" y="238" on="0"/>
      </contour>
    </TTGlyph>
    <TTGlyph name="H" xMin="82" yMin="0" xMax="641" yMax="688">
      <contour>
        <pt x="547" y="0" on="1"/>
        <pt x="547" y="319" on="1"/>
        <pt x="175" y="319" on="1"/>
        <pt x="175" y="0" on="1"/>
        <pt x="82" y="0" on="1"/>
        <pt x="82" y="688" on="1"/>
        <pt x="175" y="688" on="1"/>
        <pt x="175" y="397" on="1"/>
        <pt x="547" y="397" on="1"/>
        <pt x="547" y="688" on="1"/>
        <pt x="641" y="688" on="1"/>
        <pt x="641" y="0" on="1"/>
      </contour>
    </TTGlyph>
    <TTGlyph name="I" xMin="92" yMin="0" xMax="185" yMax="688">
      <contour>
        <pt x="92" y="0" on="1"/>
        <pt x="92" y="688" on="1"/>
        <pt x="185" y="688" on="1"/>
        <pt x="185" y="0" on="1"/>
      </contour>
    </TTGlyph>
    <TTGlyph name="J" xMin="15" yMin="-10" xMax="425" yMax="688">
      <contour>
        <pt x="223" y="-10" on="1"/>
        <pt x="48" y="-10" on="0"/>
        <pt x="15" y="171" on="1"/>
        <pt x="106" y="186" on="1"/>
        <pt x="115" y="129" on="0"/>
        <pt x="177" y="66" on="0"/>
        <pt x="223" y="66" on="1"/>
        <pt x="274" y="66" on="0"/>
        <pt x="332" y="136" on="0"/>
        <pt x="332" y="203" on="1"/>
        <pt x="332" y="612" on="1"/>
        <pt x="200" y="612" on="1"/>
        <pt x="200" y="688" on="1"/>
        <pt x="425" y="688" on="1"/>
        <pt x="425" y="205" on="1"/>
        <pt x="425" y="105" on="0"/>
        <pt x="317" y="-10" on="0"/>
      </contour>
    </TTGlyph>
    <TTGlyph name="K" xMin="82" yMin="0" xMax="656" yMax="688">
      <contour>
        <pt x="540" y="0" on="1"/>
        <pt x="265" y="332" on="1"/>
        <pt x="175" y="264" on="1"/>
        <pt x="175" y="0" on="1"/>
        <pt x="82" y="0" on="1"/>
        <pt x="82" y="688" on="1"/>
        <pt x="175" y="688" on="1"/>
        <pt x="175" y="343" on="1"/>
        <pt x="507" y="688" on="1"/>
        <pt x="617" y="688" on="1"/>
        <pt x="324" y="389" on="1"/>
        <pt x="656" y="0" on="1"/>
      </contour>
    </TTGlyph>
    <TTGlyph name="KA_KHA_YA" xMin="0" yMin="-409" xMax="1187" yMax="562">
      <contour>
        <pt x="709" y="-170" on="1"/>
        <pt x="800" y="-170" on="0"/>
        <pt x="858" y="-229" on="1"/>
        <pt x="876" y="-248" on="0"/>
        <pt x="880" y="-255" on="1"/>
        <pt x="890" y="-239" on="0"/>
        <pt x="890" y="-199" on="1"/>
        <pt x="890" y="-144" on="0"/>
        <pt x="817" y="-71" on="0"/>
        <pt x="762" y="-71" on="1"/>
        <pt x="705" y="-71" on="0"/>
        <pt x="668" y="-107" on="1"/>
        <pt x="651" y="-126" on="0"/>
        <pt x="637" y="-157" on="1"/>
        <pt x="562" y="-126" on="1"/>
        <pt x="582" y="-79" on="0"/>
        <pt x="611" y="-50" on="1"/>
        <pt x="640" y="-21" on="0"/>
        <pt x="677" y="-6" on="1"/>
        <pt x="664" y="-4" on="0"/>
        <pt x="650" y="-1" on="1"/>
        <pt x="677" y="81" on="1"/>
        <pt x="697" y="78" on="0"/>
        <pt x="720" y="76" on="0"/>
        <pt x="736" y="76" on="1"/>
        <pt x="823" y="76" on="0"/>
        <pt x="877" y="133" on="1"/>
        <pt x="935" y="191" on="0"/>
        <pt x="935" y="276" on="1"/>
        <pt x="935" y="360" on="0"/>
        <pt x="877" y="417" on="1"/>
        <pt x="823" y="474" on="0"/>
        <pt x="736" y="474" on="1"/>
        <pt x="650" y="474" on="0"/>
        <pt x="591" y="418" on="1"/>
        <pt x="581" y="407" on="0"/>
        <pt x="562" y="383" on="0"/>
        <pt x="557" y="372" on="1"/>
        <pt x="564" y="351" on="0"/>
        <pt x="570" y="302" on="0"/>
        <pt x="570" y="276" on="1"/>
        <pt x="570" y="134" on="0"/>
        <pt x="490" y="45" on="1"/>
        <pt x="473" y="27" on="0"/>
        <pt x="434" y="-1" on="0"/>
        <pt x="402" y="-14" on="1"/>
        <pt x="390" y="11" on="0"/>
        <pt x="375" y="36" on="0"/>
        <pt x="363" y="63" on="1"/>
        <pt x="389" y="75" on="0"/>
        <pt x="415" y="95" on="0"/>
        <pt x="429" y="108" on="1"/>
        <pt x="487" y="172" on="0"/>
        <pt x="487" y="276" on="1"/>
        <pt x="487" y="360" on="0"/>
        <pt x="429" y="417" on="1"/>
        <pt x="375" y="474" on="0"/>
        <pt x="288" y="474" on="1"/>
        <pt x="202" y="474" on="0"/>
        <pt x="143" y="418" on="1"/>
        <pt x="86" y="361" on="0"/>
        <pt x="86" y="276" on="1"/>
        <pt x="86" y="170" on="0"/>
        <pt x="141" y="106" on="1"/>
        <pt x="154" y="93" on="0"/>
        <pt x="179" y="77" on="0"/>
        <pt x="204" y="65" on="1"/>
        <pt x="193" y="38" on="0"/>
        <pt x="180" y="11" on="0"/>
        <pt x="169" y="-15" on="1"/>
        <pt x="114" y="9" on="0"/>
        <pt x="80" y="44" on="1"/>
        <pt x="0" y="130" on="0"/>
        <pt x="0" y="276" on="1"/>
        <pt x="0" y="400" on="0"/>
        <pt x="81" y="480" on="1"/>
        <pt x="164" y="560" on="0"/>
        <pt x="288" y="560" on="1"/>
        <pt x="411" y="560" on="0"/>
        <pt x="491" y="480" on="1"/>
        <pt x="510" y="459" on="1"/>
        <pt x="519" y="470" on="0"/>
        <pt x="529" y="480" on="1"/>
        <pt x="612" y="560" on="0"/>
        <pt x="736" y="560" on="1"/>
        <pt x="859" y="560" on="0"/>
        <pt x="939" y="480" on="1"/>
        <pt x="1018" y="401" on="0"/>
        <pt x="1018" y="276" on="1"/>
        <pt x="1018" y="152" on="0"/>
        <pt x="938" y="70" on="1"/>
        <pt x="888" y="20" on="0"/>
        <pt x="823" y="1" on="1"/>
        <pt x="874" y="-12" on="0"/>
        <pt x="911" y="-50" on="1"/>
        <pt x="969" y="-109" on="0"/>
        <pt x="969" y="-199" on="1"/>
        <pt x="969" y="-241" on="0"/>
        <pt x="956" y="-276" on="1"/>
        <pt x="1104" y="-322" on="1"/>
        <pt x="1104" y="562" on="1"/>
        <pt x="1187" y="562" on="1"/>
        <pt x="1187" y="-409" on="1"/>
        <pt x="1106" y="-409" on="1"/>
        <pt x="910" y="-349" on="1"/>
        <pt x="852" y="-409" on="0"/>
        <pt x="762" y="-409" on="1"/>
        <pt x="669" y="-409" on="0"/>
        <pt x="610" y="-351" on="1"/>
        <pt x="587" y="-329" on="0"/>
        <pt x="573" y="-301" on="1"/>
        <pt x="560" y="-279" on="0"/>
        <pt x="547" y="-232" on="0"/>
        <pt x="575" y="-193" on="0"/>
        <pt x="644" y="-170" on="0"/>
      </contour>
      <contour>
        <pt x="668" y="-293" on="1"/>
        <pt x="705" y="-328" on="0"/>
        <pt x="762" y="-328" on="1"/>
        <pt x="800" y="-328" on="0"/>
        <pt x="822" y="-316" on="1"/>
        <pt x="817" y="-304" on="0"/>
        <pt x="800" y="-287" on="1"/>
        <pt x="764" y="-251" on="0"/>
        <pt x="709" y="-251" on="1"/>
        <pt x="669" y="-251" on="0"/>
        <pt x="646" y="-265" on="1"/>
        <pt x="651" y="-277" on="0"/>
      </contour>
    </TTGlyph>
    <TTGlyph name="KINZI_RA" xMin="10" yMin="-1" xMax="559" yMax="1025">
      <contour>
        <pt x="399" y="751" on="1"/>
        <pt x="402" y="785" on="0"/>
        <pt x="396" y="838" on="0"/>
        <pt x="381" y="868" on="1"/>
        <pt x="368" y="892" on="0"/>
        <pt x="330" y="922" on="0"/>
        <pt x="285" y="933" on="0"/>
        <pt x="235" y="924" on="0"/>
        <pt x="210" y="908" on="1"/>
        <pt x="174" y="887" on="0"/>
        <pt x="159" y="854" on="1"/>
        <pt x="165" y="854" on="0"/>
        <pt x="199" y="851" on="0"/>
        <pt x="211" y="847" on="1"/>
        <pt x="293" y="828" on="0"/>
        <pt x="340" y="751" on="1"/>
        <pt x="406" y="642" on="0"/>
        <pt x="350" y="611" on="1"/>
        <pt x="332" y="598" on="0"/>
        <pt x="294" y="595" on="1"/>
        <pt x="276" y="594" on="0"/>
        <pt x="241" y="596" on="0"/>
        <pt x="223" y="601" on="1"/>
        <pt x="141" y="620" on="0"/>
        <pt x="95" y="694" on="1"/>
        <pt x="49" y="768" on="0"/>
        <pt x="71" y="852" on="1"/>
        <pt x="92" y="933" on="0"/>
        <pt x="168" y="980" on="1"/>
        <pt x="241" y="1025" on="0"/>
        <pt x="325" y="1006" on="1"/>
        <pt x="366" y="995" on="0"/>
        <pt x="431" y="946" on="0"/>
        <pt x="453" y="909" on="1"/>
        <pt x="472" y="880" on="0"/>
        <pt x="482" y="800" on="0"/>
        <pt x="480" y="751" on="1"/>
      </contour>
      <contour>
        <pt x="169" y="742" on="1"/>
        <pt x="184" y="719" on="0"/>
        <pt x="220" y="689" on="0"/>
        <pt x="244" y="683" on="1"/>
        <pt x="262" y="677" on="0"/>
        <pt x="282" y="678" on="1"/>
        <pt x="281" y="683" on="0"/>
        <pt x="273" y="703" on="0"/>
        <pt x="269" y="710" on="1"/>
        <pt x="238" y="759" on="0"/>
        <pt x="192" y="768" on="1"/>
        <pt x="184" y="770" on="0"/>
        <pt x="161" y="771" on="0"/>
        <pt x="155" y="770" on="1"/>
        <pt x="160" y="757" on="0"/>
      </contour>
      <contour>
        <pt x="40" y="306" on="1"/>
        <pt x="52" y="306" on="0"/>
        <pt x="70" y="289" on="0"/>
        <pt x="70" y="277" on="1"/>
        <pt x="70" y="264" on="0"/>
        <pt x="52" y="246" on="0"/>
        <pt x="40" y="246" on="1"/>
        <pt x="27" y="246" on="0"/>
        <pt x="10" y="264" on="0"/>
        <pt x="10" y="277" on="1"/>
        <pt x="10" y="289" on="0"/>
        <pt x="27" y="306" on="0"/>
      </contour>
      <contour>
        <pt x="289" y="547" on="1"/>
        <pt x="301" y="547" on="0"/>
        <pt x="319" y="530" on="0"/>
        <pt x="319" y="516" on="1"/>
        <pt x="319" y="505" on="0"/>
        <pt x="301" y="487" on="0"/>
        <pt x="289" y="487" on="1"/>
        <pt x="276" y="487" on="0"/>
        <pt x="259" y="505" on="0"/>
        <pt x="259" y="516" on="1"/>
        <pt x="259" y="530" on="0"/>
        <pt x="276" y="547" on="0"/>
      </contour>
      <contour>
        <pt x="289" y="59" on="1"/>
        <pt x="301" y="59" on="0"/>
        <pt x="319" y="42" on="0"/>
        <pt x="319" y="30" on="1"/>
        <pt x="319" y="17" on="0"/>
        <pt x="301" y="-1" on="0"/>
        <pt x="289" y="-1" on="1"/>
        <pt x="276" y="-1" on="0"/>
        <pt x="259" y="17" on="0"/>
        <pt x="259" y="30" on="1"/>
        <pt x="259" y="42" on="0"/>
        <pt x="276" y="59" on="0"/>
      </contour>
      <contour>
        <pt x="117" y="128" on="1"/>
        <pt x="129" y="128" on="0"/>
        <pt x="147" y="111" on="0"/>
        <pt x="147" y="97" on="1"/>
        <pt x="147" y="86" on="0"/>
        <pt x="129" y="68" on="0"/>
        <pt x="117" y="68" on="1"/>
        <pt x="104" y="68" on="0"/>
        <pt x="87" y="86" on="0"/>
        <pt x="87" y="97" on="1"/>
        <pt x="87" y="111" on="0"/>
        <pt x="104" y="128" on="0"/>
      </contour>
      <contour>
        <pt x="59" y="204" on="1"/>
        <pt x="73" y="204" on="0"/>
        <pt x="91" y="187" on="0"/>
        <pt x="91" y="173" on="1"/>
        <pt x="91" y="162" on="0"/>
        <pt x="73" y="142" on="0"/>
        <pt x="59" y="142" on="1"/>
        <pt x="48" y="142" on="0"/>
        <pt x="29" y="162" on="0"/>
        <pt x="29" y="173" on="1"/>
        <pt x="29" y="187" on="0"/>
        <pt x="48" y="204" on="0"/>
      </contour>
      <contour>
        <pt x="191" y="78" on="1"/>
        <pt x="205" y="78" on="0"/>
        <pt x="223" y="61" on="0"/>
        <pt x="223" y="47" on="1"/>
        <pt x="223" y="36" on="0"/>
        <pt x="205" y="16" on="0"/>
        <pt x="191" y="16" on="1"/>
        <pt x="180" y="16" on="0"/>
        <pt x="163" y="36" on="0"/>
        <pt x="163" y="47" on="1"/>
        <pt x="163" y="61" on="0"/>
        <pt x="180" y="78" on="0"/>
      </contour>
      <contour>
        <pt x="117" y="420" on="1"/>
        <pt x="104" y="420" on="0"/>
        <pt x="87" y="437" on="0"/>
        <pt x="87" y="451" on="1"/>
        <pt x="87" y="462" on="0"/>
        <pt x="104" y="480" on="0"/>
        <pt x="117" y="480" on="1"/>
        <pt x="129" y="480" on="0"/>
        <pt x="147" y="462" on="0"/>
        <pt x="147" y="451" on="1"/>
        <pt x="147" y="437" on="0"/>
        <pt x="129" y="420" on="0"/>
      </contour>
      <contour>
        <pt x="59" y="344" on="1"/>
        <pt x="48" y="344" on="0"/>
        <pt x="29" y="362" on="0"/>
        <pt x="29" y="375" on="1"/>
        <pt x="29" y="386" on="0"/>
        <pt x="48" y="406" on="0"/>
        <pt x="59" y="406" on="1"/>
        <pt x="73" y="406" on="0"/>
        <pt x="91" y="386" on="0"/>
        <pt x="91" y="375" on="1"/>
        <pt x="91" y="362" on="0"/>
        <pt x="73" y="344" on="0"/>
      </contour>
      <contour>
        <pt x="191" y="470" on="1"/>
        <pt x="180" y="470" on="0"/>
        <pt x="163" y="487" on="0"/>
        <pt x="163" y="501" on="1"/>
        <pt x="163" y="512" on="0"/>
        <pt x="180" y="532" on="0"/>
        <pt x="191" y="532" on="1"/>
        <pt x="205" y="532" on="0"/>
        <pt x="223" y="512" on="0"/>
        <pt x="223" y="501" on="1"/>
        <pt x="223" y="487" on="0"/>
        <pt x="205" y="470" on="0"/>
      </contour>
      <contour>
        <pt x="529" y="306" on="1"/>
        <pt x="542" y="306" on="0"/>
        <pt x="559" y="289" on="0"/>
        <pt x="559" y="277" on="1"/>
        <pt x="559" y="264" on="0"/>
        <pt x="542" y="246" on="0"/>
        <pt x="529" y="246" on="1"/>
        <pt x="517" y="246" on="0"/>
        <pt x="499" y="264" on="0"/>
        <pt x="499" y="277" on="1"/>
        <pt x="499" y="289" on="0"/>
        <pt x="517" y="306" on="0"/>
      </contour>
      <contour>
        <pt x="452" y="128" on="1"/>
        <pt x="465" y="128" on="0"/>
        <pt x="482" y="111" on="0"/>
        <pt x="482" y="97" on="1"/>
        <pt x="482" y="86" on="0"/>
        <pt x="465" y="68" on="0"/>
        <pt x="452" y="68" on="1"/>
        <pt x="440" y="68" on="0"/>
        <pt x="422" y="86" on="0"/>
        <pt x="422" y="97" on="1"/>
        <pt x="422" y="111" on="0"/>
        <pt x="440" y="128" on="0"/>
      </contour>
      <contour>
        <pt x="510" y="204" on="1"/>
        <pt x="521" y="204" on="0"/>
        <pt x="540" y="187" on="0"/>
        <pt x="540" y="173" on="1"/>
        <pt x="540" y="162" on="0"/>
        <pt x="521" y="142" on="0"/>
        <pt x="510" y="142" on="1"/>
        <pt x="496" y="142" on="0"/>
        <pt x="478" y="162" on="0"/>
        <pt x="478" y="173" on="1"/>
        <pt x="478" y="187" on="0"/>
        <pt x="496" y="204" on="0"/>
      </contour>
      <contour>
        <pt x="378" y="78" on="1"/>
        <pt x="389" y="78" on="0"/>
        <pt x="406" y="61" on="0"/>
        <pt x="406" y="47" on="1"/>
        <pt x="406" y="36" on="0"/>
        <pt x="389" y="16" on="0"/>
        <pt x="378" y="16" on="1"/>
        <pt x="364" y="16" on="0"/>
        <pt x="346" y="36" on="0"/>
        <pt x="346" y="47" on="1"/>
        <pt x="346" y="61" on="0"/>
        <pt x="364" y="78" on="0"/>
      </contour>
      <contour>
        <pt x="452" y="420" on="1"/>
        <pt x="440" y="420" on="0"/>
        <pt x="422" y="437" on="0"/>
        <pt x="422" y="451" on="1"/>
        <pt x="422" y="462" on="0"/>
        <pt x="440" y="480" on="0"/>
        <pt x="452" y="480" on="1"/>
        <pt x="465" y="480" on="0"/>
        <pt x="482" y="462" on="0"/>
        <pt x="482" y="451" on="1"/>
        <pt x="482" y="437" on="0"/>
        <pt x="465" y="420" on="0"/>
      </contour>
      <contour>
        <pt x="510" y="344" on="1"/>
        <pt x="496" y="344" on="0"/>
        <pt x="478" y="362" on="0"/>
        <pt x="478" y="375" on="1"/>
        <pt x="478" y="386" on="0"/>
        <pt x="496" y="406" on="0"/>
        <pt x="510" y="406" on="1"/>
        <pt x="521" y="406" on="0"/>
        <pt x="540" y="386" on="0"/>
        <pt x="540" y="375" on="1"/>
        <pt x="540" y="362" on="0"/>
        <pt x="521" y="344" on="0"/>
      </contour>
      <contour>
        <pt x="378" y="470" on="1"/>
        <pt x="364" y="470" on="0"/>
        <pt x="346" y="487" on="0"/>
        <pt x="346" y="501" on="1"/>
        <pt x="346" y="512" on="0"/>
        <pt x="364" y="532" on="0"/>
        <pt x="378" y="532" on="1"/>
        <pt x="389" y="532" on="0"/>
        <pt x="406" y="512" on="0"/>
        <pt x="406" y="501" on="1"/>
        <pt x="406" y="487" on="0"/>
        <pt x="389" y="470" on="0"/>
      </contour>
    </TTGlyph>
    <TTGlyph name="KINZI_RA_ND" xMin="-574" yMin="595" xMax="-141" yMax="1026">
      <contour>
        <pt x="-224" y="752" on="1"/>
        <pt x="-221" y="786" on="0"/>
        <pt x="-227" y="839" on="0"/>
        <pt x="-242" y="869" on="1"/>
        <pt x="-255" y="893" on="0"/>
        <pt x="-294" y="923" on="0"/>
        <pt x="-339" y="934" on="0"/>
        <pt x="-389" y="925" on="0"/>
        <pt x="-413" y="909" on="1"/>
        <pt x="-449" y="888" on="0"/>
        <pt x="-464" y="855" on="1"/>
        <pt x="-459" y="855" on="0"/>
        <pt x="-424" y="852" on="0"/>
        <pt x="-412" y="848" on="1"/>
        <pt x="-330" y="829" on="0"/>
        <pt x="-284" y="752" on="1"/>
        <pt x="-217" y="643" on="0"/>
        <pt x="-273" y="612" on="1"/>
        <pt x="-291" y="599" on="0"/>
        <pt x="-330" y="596" on="1"/>
        <pt x="-347" y="595" on="0"/>
        <pt x="-382" y="597" on="0"/>
        <pt x="-400" y="602" on="1"/>
        <pt x="-483" y="621" on="0"/>
        <pt x="-528" y="695" on="1"/>
        <pt x="-574" y="769" on="0"/>
        <pt x="-552" y="853" on="1"/>
        <pt x="-531" y="934" on="0"/>
        <pt x="-455" y="981" on="1"/>
        <pt x="-382" y="1026" on="0"/>
        <pt x="-298" y="1007" on="1"/>
        <pt x="-257" y="996" on="0"/>
        <pt x="-193" y="947" on="0"/>
        <pt x="-170" y="910" on="1"/>
        <pt x="-152" y="881" on="0"/>
        <pt x="-141" y="801" on="0"/>
        <pt x="-144" y="752" on="1"/>
      </contour>
      <contour>
        <pt x="-455" y="743" on="1"/>
        <pt x="-440" y="720" on="0"/>
        <pt x="-404" y="690" on="0"/>
        <pt x="-379" y="684" on="1"/>
        <pt x="-361" y="678" on="0"/>
        <pt x="-341" y="679" on="1"/>
        <pt x="-343" y="684" on="0"/>
        <pt x="-350" y="704" on="0"/>
        <pt x="-355" y="711" on="1"/>
        <pt x="-385" y="760" on="0"/>
        <pt x="-431" y="769" on="1"/>
        <pt x="-440" y="771" on="0"/>
        <pt x="-462" y="772" on="0"/>
        <pt x="-468" y="771" on="1"/>
        <pt x="-463" y="758" on="0"/>
      </contour>
    </TTGlyph>
    <TTGlyph name="KTT_1" xMin="10" yMin="-1" xMax="848" yMax="547">
      <contour>
        <pt x="639" y="428" on="1"/>
        <pt x="639" y="472" on="0"/>
        <pt x="701" y="533" on="0"/>
        <pt x="745" y="533" on="1"/>
        <pt x="766" y="533" on="0"/>
        <pt x="804" y="516" on="0"/>
        <pt x="831" y="489" on="0"/>
        <pt x="848" y="450" on="0"/>
        <pt x="848" y="428" on="1"/>
        <pt x="848" y="406" on="0"/>
        <pt x="831" y="368" on="0"/>
        <pt x="804" y="341" on="0"/>
        <pt x="766" y="324" on="0"/>
        <pt x="745" y="324" on="1"/>
        <pt x="723" y="324" on="0"/>
        <pt x="684" y="341" on="0"/>
        <pt x="656" y="368" on="0"/>
        <pt x="639" y="406" on="0"/>
      </contour>
      <contour>
        <pt x="706" y="428" on="1"/>
        <pt x="706" y="412" on="0"/>
        <pt x="729" y="391" on="0"/>
        <pt x="745" y="391" on="1"/>
        <pt x="761" y="391" on="0"/>
        <pt x="785" y="412" on="0"/>
        <pt x="785" y="428" on="1"/>
        <pt x="785" y="446" on="0"/>
        <pt x="761" y="468" on="0"/>
        <pt x="745" y="468" on="1"/>
        <pt x="729" y="468" on="0"/>
        <pt x="706" y="446" on="0"/>
      </contour>
      <contour>
        <pt x="40" y="306" on="1"/>
        <pt x="52" y="306" on="0"/>
        <pt x="70" y="289" on="0"/>
        <pt x="70" y="277" on="1"/>
        <pt x="70" y="264" on="0"/>
        <pt x="52" y="246" on="0"/>
        <pt x="40" y="246" on="1"/>
        <pt x="27" y="246" on="0"/>
        <pt x="10" y="264" on="0"/>
        <pt x="10" y="277" on="1"/>
        <pt x="10" y="289" on="0"/>
        <pt x="27" y="306" on="0"/>
      </contour>
      <contour>
        <pt x="289" y="547" on="1"/>
        <pt x="301" y="547" on="0"/>
        <pt x="319" y="530" on="0"/>
        <pt x="319" y="516" on="1"/>
        <pt x="319" y="505" on="0"/>
        <pt x="301" y="487" on="0"/>
        <pt x="289" y="487" on="1"/>
        <pt x="276" y="487" on="0"/>
        <pt x="259" y="505" on="0"/>
        <pt x="259" y="516" on="1"/>
        <pt x="259" y="530" on="0"/>
        <pt x="276" y="547" on="0"/>
      </contour>
      <contour>
        <pt x="289" y="59" on="1"/>
        <pt x="301" y="59" on="0"/>
        <pt x="319" y="42" on="0"/>
        <pt x="319" y="30" on="1"/>
        <pt x="319" y="17" on="0"/>
        <pt x="301" y="-1" on="0"/>
        <pt x="289" y="-1" on="1"/>
        <pt x="276" y="-1" on="0"/>
        <pt x="259" y="17" on="0"/>
        <pt x="259" y="30" on="1"/>
        <pt x="259" y="42" on="0"/>
        <pt x="276" y="59" on="0"/>
      </contour>
      <contour>
        <pt x="117" y="128" on="1"/>
        <pt x="129" y="128" on="0"/>
        <pt x="147" y="111" on="0"/>
        <pt x="147" y="97" on="1"/>
        <pt x="147" y="86" on="0"/>
        <pt x="129" y="68" on="0"/>
        <pt x="117" y="68" on="1"/>
        <pt x="104" y="68" on="0"/>
        <pt x="87" y="86" on="0"/>
        <pt x="87" y="97" on="1"/>
        <pt x="87" y="111" on="0"/>
        <pt x="104" y="128" on="0"/>
      </contour>
      <contour>
        <pt x="59" y="204" on="1"/>
        <pt x="73" y="204" on="0"/>
        <pt x="91" y="187" on="0"/>
        <pt x="91" y="173" on="1"/>
        <pt x="91" y="162" on="0"/>
        <pt x="73" y="142" on="0"/>
        <pt x="59" y="142" on="1"/>
        <pt x="48" y="142" on="0"/>
        <pt x="29" y="162" on="0"/>
        <pt x="29" y="173" on="1"/>
        <pt x="29" y="187" on="0"/>
        <pt x="48" y="204" on="0"/>
      </contour>
      <contour>
        <pt x="191" y="78" on="1"/>
        <pt x="205" y="78" on="0"/>
        <pt x="223" y="61" on="0"/>
        <pt x="223" y="47" on="1"/>
        <pt x="223" y="36" on="0"/>
        <pt x="205" y="16" on="0"/>
        <pt x="191" y="16" on="1"/>
        <pt x="180" y="16" on="0"/>
        <pt x="163" y="36" on="0"/>
        <pt x="163" y="47" on="1"/>
        <pt x="163" y="61" on="0"/>
        <pt x="180" y="78" on="0"/>
      </contour>
      <contour>
        <pt x="117" y="420" on="1"/>
        <pt x="104" y="420" on="0"/>
        <pt x="87" y="437" on="0"/>
        <pt x="87" y="451" on="1"/>
        <pt x="87" y="462" on="0"/>
        <pt x="104" y="480" on="0"/>
        <pt x="117" y="480" on="1"/>
        <pt x="129" y="480" on="0"/>
        <pt x="147" y="462" on="0"/>
        <pt x="147" y="451" on="1"/>
        <pt x="147" y="437" on="0"/>
        <pt x="129" y="420" on="0"/>
      </contour>
      <contour>
        <pt x="59" y="344" on="1"/>
        <pt x="48" y="344" on="0"/>
        <pt x="29" y="362" on="0"/>
        <pt x="29" y="375" on="1"/>
        <pt x="29" y="386" on="0"/>
        <pt x="48" y="406" on="0"/>
        <pt x="59" y="406" on="1"/>
        <pt x="73" y="406" on="0"/>
        <pt x="91" y="386" on="0"/>
        <pt x="91" y="375" on="1"/>
        <pt x="91" y="362" on="0"/>
        <pt x="73" y="344" on="0"/>
      </contour>
      <contour>
        <pt x="191" y="470" on="1"/>
        <pt x="180" y="470" on="0"/>
        <pt x="163" y="487" on="0"/>
        <pt x="163" y="501" on="1"/>
        <pt x="163" y="512" on="0"/>
        <pt x="180" y="532" on="0"/>
        <pt x="191" y="532" on="1"/>
        <pt x="205" y="532" on="0"/>
        <pt x="223" y="512" on="0"/>
        <pt x="223" y="501" on="1"/>
        <pt x="223" y="487" on="0"/>
        <pt x="205" y="470" on="0"/>
      </contour>
      <contour>
        <pt x="529" y="306" on="1"/>
        <pt x="542" y="306" on="0"/>
        <pt x="559" y="289" on="0"/>
        <pt x="559" y="277" on="1"/>
        <pt x="559" y="264" on="0"/>
        <pt x="542" y="246" on="0"/>
        <pt x="529" y="246" on="1"/>
        <pt x="517" y="246" on="0"/>
        <pt x="499" y="264" on="0"/>
        <pt x="499" y="277" on="1"/>
        <pt x="499" y="289" on="0"/>
        <pt x="517" y="306" on="0"/>
      </contour>
      <contour>
        <pt x="452" y="128" on="1"/>
        <pt x="465" y="128" on="0"/>
        <pt x="482" y="111" on="0"/>
        <pt x="482" y="97" on="1"/>
        <pt x="482" y="86" on="0"/>
        <pt x="465" y="68" on="0"/>
        <pt x="452" y="68" on="1"/>
        <pt x="440" y="68" on="0"/>
        <pt x="422" y="86" on="0"/>
        <pt x="422" y="97" on="1"/>
        <pt x="422" y="111" on="0"/>
        <pt x="440" y="128" on="0"/>
      </contour>
      <contour>
        <pt x="510" y="204" on="1"/>
        <pt x="521" y="204" on="0"/>
        <pt x="540" y="187" on="0"/>
        <pt x="540" y="173" on="1"/>
        <pt x="540" y="162" on="0"/>
        <pt x="521" y="142" on="0"/>
        <pt x="510" y="142" on="1"/>
        <pt x="496" y="142" on="0"/>
        <pt x="478" y="162" on="0"/>
        <pt x="478" y="173" on="1"/>
        <pt x="478" y="187" on="0"/>
        <pt x="496" y="204" on="0"/>
      </contour>
      <contour>
        <pt x="378" y="78" on="1"/>
        <pt x="389" y="78" on="0"/>
        <pt x="406" y="61" on="0"/>
        <pt x="406" y="47" on="1"/>
        <pt x="406" y="36" on="0"/>
        <pt x="389" y="16" on="0"/>
        <pt x="378" y="16" on="1"/>
        <pt x="364" y="16" on="0"/>
        <pt x="346" y="36" on="0"/>
        <pt x="346" y="47" on="1"/>
        <pt x="346" y="61" on="0"/>
        <pt x="364" y="78" on="0"/>
      </contour>
      <contour>
        <pt x="452" y="420" on="1"/>
        <pt x="440" y="420" on="0"/>
        <pt x="422" y="437" on="0"/>
        <pt x="422" y="451" on="1"/>
        <pt x="422" y="462" on="0"/>
        <pt x="440" y="480" on="0"/>
        <pt x="452" y="480" on="1"/>
        <pt x="465" y="480" on="0"/>
        <pt x="482" y="462" on="0"/>
        <pt x="482" y="451" on="1"/>
        <pt x="482" y="437" on="0"/>
        <pt x="465" y="420" on="0"/>
      </contour>
      <contour>
        <pt x="510" y="344" on="1"/>
        <pt x="496" y="344" on="0"/>
        <pt x="478" y="362" on="0"/>
        <pt x="478" y="375" on="1"/>
        <pt x="478" y="386" on="0"/>
        <pt x="496" y="406" on="0"/>
        <pt x="510" y="406" on="1"/>
        <pt x="521" y="406" on="0"/>
        <pt x="540" y="386" on="0"/>
        <pt x="540" y="375" on="1"/>
        <pt x="540" y="362" on="0"/>
        <pt x="521" y="344" on="0"/>
      </contour>
      <contour>
        <pt x="378" y="470" on="1"/>
        <pt x="364" y="470" on="0"/>
        <pt x="346" y="487" on="0"/>
        <pt x="346" y="501" on="1"/>
        <pt x="346" y="512" on="0"/>
        <pt x="364" y="532" on="0"/>
        <pt x="378" y="532" on="1"/>
        <pt x="389" y="532" on="0"/>
        <pt x="406" y="512" on="0"/>
        <pt x="406" y="501" on="1"/>
        <pt x="406" y="487" on="0"/>
        <pt x="389" y="470" on="0"/>
      </contour>
    </TTGlyph>
    <TTGlyph name="KTT_1_ND" xMin="0" yMin="324" xMax="209" yMax="533">
      <contour>
        <pt x="0" y="428" on="1"/>
        <pt x="0" y="472" on="0"/>
        <pt x="62" y="533" on="0"/>
        <pt x="106" y="533" on="1"/>
        <pt x="127" y="533" on="0"/>
        <pt x="165" y="516" on="0"/>
        <pt x="192" y="489" on="0"/>
        <pt x="209" y="450" on="0"/>
        <pt x="209" y="428" on="1"/>
        <pt x="209" y="406" on="0"/>
        <pt x="192" y="368" on="0"/>
        <pt x="165" y="341" on="0"/>
        <pt x="127" y="324" on="0"/>
        <pt x="106" y="324" on="1"/>
        <pt x="84" y="324" on="0"/>
        <pt x="45" y="341" on="0"/>
        <pt x="17" y="368" on="0"/>
        <pt x="0" y="406" on="0"/>
      </contour>
      <contour>
        <pt x="67" y="428" on="1"/>
        <pt x="67" y="412" on="0"/>
        <pt x="90" y="391" on="0"/>
        <pt x="106" y="391" on="1"/>
        <pt x="122" y="391" on="0"/>
        <pt x="146" y="412" on="0"/>
        <pt x="146" y="428" on="1"/>
        <pt x="146" y="446" on="0"/>
        <pt x="122" y="468" on="0"/>
        <pt x="106" y="468" on="1"/>
        <pt x="90" y="468" on="0"/>
        <pt x="67" y="446" on="0"/>
      </contour>
    </TTGlyph>
    <TTGlyph name="KTT_3" xMin="10" yMin="-1" xMax="812" yMax="657">
      <contour>
        <pt x="714" y="581" on="1"/>
        <pt x="682" y="581" on="0"/>
        <pt x="682" y="549" on="1"/>
        <pt x="682" y="516" on="0"/>
        <pt x="714" y="516" on="1"/>
        <pt x="747" y="516" on="0"/>
        <pt x="747" y="549" on="1"/>
        <pt x="747" y="581" on="0"/>
      </contour>
      <contour>
        <pt x="812" y="554" on="1"/>
        <pt x="812" y="507" on="0"/>
        <pt x="782" y="412" on="0"/>
        <pt x="733" y="326" on="0"/>
        <pt x="669" y="256" on="0"/>
        <pt x="536" y="171" on="1"/>
        <pt x="643" y="269" on="0"/>
        <pt x="684" y="331" on="0"/>
        <pt x="716" y="399" on="0"/>
        <pt x="733" y="457" on="0"/>
        <pt x="706" y="450" on="0"/>
        <pt x="695" y="450" on="1"/>
        <pt x="656" y="460" on="0"/>
        <pt x="608" y="508" on="0"/>
        <pt x="608" y="553" on="1"/>
        <pt x="608" y="596" on="0"/>
        <pt x="667" y="657" on="0"/>
        <pt x="711" y="657" on="1"/>
        <pt x="754" y="657" on="0"/>
        <pt x="810" y="598" on="0"/>
      </contour>
      <contour>
        <pt x="40" y="306" on="1"/>
        <pt x="52" y="306" on="0"/>
        <pt x="70" y="289" on="0"/>
        <pt x="70" y="277" on="1"/>
        <pt x="70" y="264" on="0"/>
        <pt x="52" y="246" on="0"/>
        <pt x="40" y="246" on="1"/>
        <pt x="27" y="246" on="0"/>
        <pt x="10" y="264" on="0"/>
        <pt x="10" y="277" on="1"/>
        <pt x="10" y="289" on="0"/>
        <pt x="27" y="306" on="0"/>
      </contour>
      <contour>
        <pt x="289" y="547" on="1"/>
        <pt x="301" y="547" on="0"/>
        <pt x="319" y="530" on="0"/>
        <pt x="319" y="516" on="1"/>
        <pt x="319" y="505" on="0"/>
        <pt x="301" y="487" on="0"/>
        <pt x="289" y="487" on="1"/>
        <pt x="276" y="487" on="0"/>
        <pt x="259" y="505" on="0"/>
        <pt x="259" y="516" on="1"/>
        <pt x="259" y="530" on="0"/>
        <pt x="276" y="547" on="0"/>
      </contour>
      <contour>
        <pt x="289" y="59" on="1"/>
        <pt x="301" y="59" on="0"/>
        <pt x="319" y="42" on="0"/>
        <pt x="319" y="30" on="1"/>
        <pt x="319" y="17" on="0"/>
        <pt x="301" y="-1" on="0"/>
        <pt x="289" y="-1" on="1"/>
        <pt x="276" y="-1" on="0"/>
        <pt x="259" y="17" on="0"/>
        <pt x="259" y="30" on="1"/>
        <pt x="259" y="42" on="0"/>
        <pt x="276" y="59" on="0"/>
      </contour>
      <contour>
        <pt x="117" y="128" on="1"/>
        <pt x="129" y="128" on="0"/>
        <pt x="147" y="111" on="0"/>
        <pt x="147" y="97" on="1"/>
        <pt x="147" y="86" on="0"/>
        <pt x="129" y="68" on="0"/>
        <pt x="117" y="68" on="1"/>
        <pt x="104" y="68" on="0"/>
        <pt x="87" y="86" on="0"/>
        <pt x="87" y="97" on="1"/>
        <pt x="87" y="111" on="0"/>
        <pt x="104" y="128" on="0"/>
      </contour>
      <contour>
        <pt x="59" y="204" on="1"/>
        <pt x="73" y="204" on="0"/>
        <pt x="91" y="187" on="0"/>
        <pt x="91" y="173" on="1"/>
        <pt x="91" y="162" on="0"/>
        <pt x="73" y="142" on="0"/>
        <pt x="59" y="142" on="1"/>
        <pt x="48" y="142" on="0"/>
        <pt x="29" y="162" on="0"/>
        <pt x="29" y="173" on="1"/>
        <pt x="29" y="187" on="0"/>
        <pt x="48" y="204" on="0"/>
      </contour>
      <contour>
        <pt x="191" y="78" on="1"/>
        <pt x="205" y="78" on="0"/>
        <pt x="223" y="61" on="0"/>
        <pt x="223" y="47" on="1"/>
        <pt x="223" y="36" on="0"/>
        <pt x="205" y="16" on="0"/>
        <pt x="191" y="16" on="1"/>
        <pt x="180" y="16" on="0"/>
        <pt x="163" y="36" on="0"/>
        <pt x="163" y="47" on="1"/>
        <pt x="163" y="61" on="0"/>
        <pt x="180" y="78" on="0"/>
      </contour>
      <contour>
        <pt x="117" y="420" on="1"/>
        <pt x="104" y="420" on="0"/>
        <pt x="87" y="437" on="0"/>
        <pt x="87" y="451" on="1"/>
        <pt x="87" y="462" on="0"/>
        <pt x="104" y="480" on="0"/>
        <pt x="117" y="480" on="1"/>
        <pt x="129" y="480" on="0"/>
        <pt x="147" y="462" on="0"/>
        <pt x="147" y="451" on="1"/>
        <pt x="147" y="437" on="0"/>
        <pt x="129" y="420" on="0"/>
      </contour>
      <contour>
        <pt x="59" y="344" on="1"/>
        <pt x="48" y="344" on="0"/>
        <pt x="29" y="362" on="0"/>
        <pt x="29" y="375" on="1"/>
        <pt x="29" y="386" on="0"/>
        <pt x="48" y="406" on="0"/>
        <pt x="59" y="406" on="1"/>
        <pt x="73" y="406" on="0"/>
        <pt x="91" y="386" on="0"/>
        <pt x="91" y="375" on="1"/>
        <pt x="91" y="362" on="0"/>
        <pt x="73" y="344" on="0"/>
      </contour>
      <contour>
        <pt x="191" y="470" on="1"/>
        <pt x="180" y="470" on="0"/>
        <pt x="163" y="487" on="0"/>
        <pt x="163" y="501" on="1"/>
        <pt x="163" y="512" on="0"/>
        <pt x="180" y="532" on="0"/>
        <pt x="191" y="532" on="1"/>
        <pt x="205" y="532" on="0"/>
        <pt x="223" y="512" on="0"/>
        <pt x="223" y="501" on="1"/>
        <pt x="223" y="487" on="0"/>
        <pt x="205" y="470" on="0"/>
      </contour>
      <contour>
        <pt x="529" y="306" on="1"/>
        <pt x="542" y="306" on="0"/>
        <pt x="559" y="289" on="0"/>
        <pt x="559" y="277" on="1"/>
        <pt x="559" y="264" on="0"/>
        <pt x="542" y="246" on="0"/>
        <pt x="529" y="246" on="1"/>
        <pt x="517" y="246" on="0"/>
        <pt x="499" y="264" on="0"/>
        <pt x="499" y="277" on="1"/>
        <pt x="499" y="289" on="0"/>
        <pt x="517" y="306" on="0"/>
      </contour>
      <contour>
        <pt x="452" y="128" on="1"/>
        <pt x="465" y="128" on="0"/>
        <pt x="482" y="111" on="0"/>
        <pt x="482" y="97" on="1"/>
        <pt x="482" y="86" on="0"/>
        <pt x="465" y="68" on="0"/>
        <pt x="452" y="68" on="1"/>
        <pt x="440" y="68" on="0"/>
        <pt x="422" y="86" on="0"/>
        <pt x="422" y="97" on="1"/>
        <pt x="422" y="111" on="0"/>
        <pt x="440" y="128" on="0"/>
      </contour>
      <contour>
        <pt x="510" y="204" on="1"/>
        <pt x="521" y="204" on="0"/>
        <pt x="540" y="187" on="0"/>
        <pt x="540" y="173" on="1"/>
        <pt x="540" y="162" on="0"/>
        <pt x="521" y="142" on="0"/>
        <pt x="510" y="142" on="1"/>
        <pt x="496" y="142" on="0"/>
        <pt x="478" y="162" on="0"/>
        <pt x="478" y="173" on="1"/>
        <pt x="478" y="187" on="0"/>
        <pt x="496" y="204" on="0"/>
      </contour>
      <contour>
        <pt x="378" y="78" on="1"/>
        <pt x="389" y="78" on="0"/>
        <pt x="406" y="61" on="0"/>
        <pt x="406" y="47" on="1"/>
        <pt x="406" y="36" on="0"/>
        <pt x="389" y="16" on="0"/>
        <pt x="378" y="16" on="1"/>
        <pt x="364" y="16" on="0"/>
        <pt x="346" y="36" on="0"/>
        <pt x="346" y="47" on="1"/>
        <pt x="346" y="61" on="0"/>
        <pt x="364" y="78" on="0"/>
      </contour>
      <contour>
        <pt x="452" y="420" on="1"/>
        <pt x="440" y="420" on="0"/>
        <pt x="422" y="437" on="0"/>
        <pt x="422" y="451" on="1"/>
        <pt x="422" y="462" on="0"/>
        <pt x="440" y="480" on="0"/>
        <pt x="452" y="480" on="1"/>
        <pt x="465" y="480" on="0"/>
        <pt x="482" y="462" on="0"/>
        <pt x="482" y="451" on="1"/>
        <pt x="482" y="437" on="0"/>
        <pt x="465" y="420" on="0"/>
      </contour>
      <contour>
        <pt x="510" y="344" on="1"/>
        <pt x="496" y="344" on="0"/>
        <pt x="478" y="362" on="0"/>
        <pt x="478" y="375" on="1"/>
        <pt x="478" y="386" on="0"/>
        <pt x="496" y="406" on="0"/>
        <pt x="510" y="406" on="1"/>
        <pt x="521" y="406" on="0"/>
        <pt x="540" y="386" on="0"/>
        <pt x="540" y="375" on="1"/>
        <pt x="540" y="362" on="0"/>
        <pt x="521" y="344" on="0"/>
      </contour>
      <contour>
        <pt x="378" y="470" on="1"/>
        <pt x="364" y="470" on="0"/>
        <pt x="346" y="487" on="0"/>
        <pt x="346" y="501" on="1"/>
        <pt x="346" y="512" on="0"/>
        <pt x="364" y="532" on="0"/>
        <pt x="378" y="532" on="1"/>
        <pt x="389" y="532" on="0"/>
        <pt x="406" y="512" on="0"/>
        <pt x="406" y="501" on="1"/>
        <pt x="406" y="487" on="0"/>
        <pt x="389" y="470" on="0"/>
      </contour>
    </TTGlyph>
    <TTGlyph name="KTT_3_ND" xMin="9" yMin="163" xMax="285" yMax="649">
      <contour>
        <pt x="187" y="574" on="1"/>
        <pt x="155" y="574" on="0"/>
        <pt x="155" y="541" on="1"/>
        <pt x="155" y="508" on="0"/>
        <pt x="187" y="508" on="1"/>
        <pt x="220" y="508" on="0"/>
        <pt x="220" y="541" on="1"/>
        <pt x="220" y="574" on="0"/>
      </contour>
      <contour>
        <pt x="285" y="546" on="1"/>
        <pt x="285" y="499" on="0"/>
        <pt x="256" y="404" on="0"/>
        <pt x="207" y="318" on="0"/>
        <pt x="143" y="248" on="0"/>
        <pt x="9" y="163" on="1"/>
        <pt x="117" y="261" on="0"/>
        <pt x="158" y="321" on="0"/>
        <pt x="189" y="385" on="0"/>
        <pt x="206" y="441" on="0"/>
        <pt x="205" y="440" on="0"/>
        <pt x="178" y="442" on="0"/>
        <pt x="168" y="442" on="1"/>
        <pt x="129" y="452" on="0"/>
        <pt x="81" y="500" on="0"/>
        <pt x="81" y="545" on="1"/>
        <pt x="81" y="588" on="0"/>
        <pt x="140" y="649" on="0"/>
        <pt x="184" y="649" on="1"/>
        <pt x="228" y="649" on="0"/>
        <pt x="283" y="590" on="0"/>
      </contour>
    </TTGlyph>
    <TTGlyph name="KT_HM" xMin="1" yMin="-413" xMax="1222" yMax="1011">
      <contour>
        <pt x="694" y="-265" on="1"/>
        <pt x="694" y="-287" on="0"/>
        <pt x="724" y="-317" on="0"/>
        <pt x="746" y="-317" on="1"/>
        <pt x="767" y="-317" on="0"/>
        <pt x="798" y="-287" on="0"/>
        <pt x="798" y="-265" on="1"/>
        <pt x="798" y="-244" on="0"/>
        <pt x="767" y="-213" on="0"/>
        <pt x="746" y="-213" on="1"/>
        <pt x="724" y="-213" on="0"/>
        <pt x="694" y="-244" on="0"/>
      </contour>
      <contour>
        <pt x="687" y="80" on="1"/>
        <pt x="706" y="77" on="0"/>
        <pt x="725" y="76" on="0"/>
        <pt x="738" y="76" on="1"/>
        <pt x="824" y="76" on="0"/>
        <pt x="879" y="132" on="1"/>
        <pt x="937" y="190" on="0"/>
        <pt x="937" y="274" on="1"/>
        <pt x="937" y="359" on="0"/>
        <pt x="879" y="417" on="1"/>
        <pt x="825" y="474" on="0"/>
        <pt x="738" y="474" on="1"/>
        <pt x="650" y="474" on="0"/>
        <pt x="592" y="419" on="1"/>
        <pt x="575" y="402" on="0"/>
        <pt x="550" y="362" on="0"/>
        <pt x="545" y="342" on="1"/>
        <pt x="551" y="311" on="0"/>
        <pt x="551" y="276" on="1"/>
        <pt x="551" y="-323" on="1"/>
        <pt x="549" y="-361" on="0"/>
        <pt x="506" y="-401" on="0"/>
        <pt x="467" y="-407" on="1"/>
        <pt x="91" y="-407" on="1"/>
        <pt x="8" y="-397" on="0"/>
        <pt x="5" y="-323" on="1"/>
        <pt x="4" y="-213" on="1"/>
        <pt x="1" y="-183" on="0"/>
        <pt x="25" y="-129" on="0"/>
        <pt x="67" y="-89" on="0"/>
        <pt x="125" y="-67" on="0"/>
        <pt x="157" y="-70" on="1"/>
        <pt x="213" y="-70" on="0"/>
        <pt x="278" y="-83" on="1"/>
        <pt x="270" y="-113" on="0"/>
        <pt x="262" y="-143" on="0"/>
        <pt x="254" y="-168" on="1"/>
        <pt x="224" y="-164" on="0"/>
        <pt x="179" y="-160" on="0"/>
        <pt x="152" y="-158" on="1"/>
        <pt x="123" y="-162" on="0"/>
        <pt x="94" y="-188" on="0"/>
        <pt x="89" y="-208" on="1"/>
        <pt x="89" y="-263" on="1"/>
        <pt x="87" y="-294" on="0"/>
        <pt x="118" y="-321" on="0"/>
        <pt x="152" y="-323" on="1"/>
        <pt x="468" y="-323" on="1"/>
        <pt x="468" y="278" on="1"/>
        <pt x="467" y="360" on="0"/>
        <pt x="410" y="417" on="1"/>
        <pt x="356" y="474" on="0"/>
        <pt x="269" y="474" on="1"/>
        <pt x="251" y="474" on="0"/>
        <pt x="216" y="469" on="0"/>
        <pt x="192" y="462" on="1"/>
        <pt x="155" y="541" on="1"/>
        <pt x="191" y="553" on="0"/>
        <pt x="241" y="560" on="0"/>
        <pt x="269" y="560" on="1"/>
        <pt x="392" y="560" on="0"/>
        <pt x="472" y="480" on="1"/>
        <pt x="481" y="473" on="0"/>
        <pt x="498" y="449" on="0"/>
        <pt x="501" y="446" on="1"/>
        <pt x="503" y="449" on="0"/>
        <pt x="522" y="473" on="0"/>
        <pt x="530" y="481" on="1"/>
        <pt x="609" y="560" on="0"/>
        <pt x="738" y="560" on="1"/>
        <pt x="860" y="560" on="0"/>
        <pt x="940" y="479" on="1"/>
        <pt x="1020" y="399" on="0"/>
        <pt x="1020" y="274" on="1"/>
        <pt x="1020" y="149" on="0"/>
        <pt x="941" y="70" on="1"/>
        <pt x="928" y="56" on="0"/>
        <pt x="898" y="34" on="0"/>
        <pt x="885" y="26" on="1"/>
        <pt x="885" y="-185" on="1"/>
        <pt x="1084" y="-304" on="1"/>
        <pt x="1084" y="354" on="1"/>
        <pt x="1083" y="404" on="0"/>
        <pt x="1060" y="476" on="0"/>
        <pt x="1023" y="529" on="0"/>
        <pt x="975" y="569" on="0"/>
        <pt x="950" y="589" on="1"/>
        <pt x="928" y="605" on="0"/>
        <pt x="884" y="644" on="0"/>
        <pt x="847" y="694" on="0"/>
        <pt x="822" y="759" on="0"/>
        <pt x="819" y="801" on="1"/>
        <pt x="820" y="843" on="0"/>
        <pt x="851" y="920" on="0"/>
        <pt x="880" y="949" on="1"/>
        <pt x="942" y="1011" on="0"/>
        <pt x="1031" y="1011" on="1"/>
        <pt x="1121" y="1011" on="0"/>
        <pt x="1179" y="949" on="1"/>
        <pt x="1205" y="924" on="0"/>
        <pt x="1222" y="883" on="1"/>
        <pt x="1145" y="849" on="1"/>
        <pt x="1136" y="868" on="0"/>
        <pt x="1126" y="884" on="0"/>
        <pt x="1119" y="891" on="1"/>
        <pt x="1084" y="927" on="0"/>
        <pt x="1029" y="927" on="1"/>
        <pt x="972" y="927" on="0"/>
        <pt x="902" y="856" on="0"/>
        <pt x="902" y="799" on="1"/>
        <pt x="905" y="769" on="0"/>
        <pt x="925" y="723" on="0"/>
        <pt x="955" y="685" on="0"/>
        <pt x="995" y="651" on="0"/>
        <pt x="1016" y="634" on="1"/>
        <pt x="1043" y="612" on="0"/>
        <pt x="1099" y="560" on="0"/>
        <pt x="1143" y="489" on="0"/>
        <pt x="1170" y="394" on="0"/>
        <pt x="1168" y="329" on="1"/>
        <pt x="1168" y="-325" on="1"/>
        <pt x="1168" y="-413" on="0"/>
        <pt x="1085" y="-408" on="1"/>
        <pt x="882" y="-289" on="1"/>
        <pt x="880" y="-302" on="0"/>
        <pt x="854" y="-351" on="0"/>
        <pt x="817" y="-387" on="0"/>
        <pt x="769" y="-408" on="0"/>
        <pt x="743" y="-408" on="1"/>
        <pt x="714" y="-408" on="0"/>
        <pt x="663" y="-385" on="0"/>
        <pt x="626" y="-348" on="0"/>
        <pt x="603" y="-296" on="0"/>
        <pt x="603" y="-267" on="1"/>
        <pt x="603" y="-238" on="0"/>
        <pt x="626" y="-187" on="0"/>
        <pt x="663" y="-149" on="0"/>
        <pt x="714" y="-126" on="0"/>
        <pt x="743" y="-126" on="1"/>
        <pt x="758" y="-126" on="0"/>
        <pt x="794" y="-135" on="0"/>
        <pt x="800" y="-138" on="1"/>
        <pt x="800" y="-5" on="1"/>
        <pt x="792" y="-6" on="0"/>
        <pt x="754" y="-10" on="0"/>
        <pt x="738" y="-10" on="1"/>
        <pt x="705" y="-10" on="0"/>
        <pt x="664" y="-2" on="1"/>
      </contour>
    </TTGlyph>
    <TTGlyph name="KT_OAY" xMin="0" yMin="-412" xMax="782" yMax="1011">
      <contour>
        <pt x="254" y="-264" on="1"/>
        <pt x="254" y="-286" on="0"/>
        <pt x="283" y="-316" on="0"/>
        <pt x="305" y="-316" on="1"/>
        <pt x="327" y="-316" on="0"/>
        <pt x="358" y="-286" on="0"/>
        <pt x="358" y="-264" on="1"/>
        <pt x="358" y="-243" on="0"/>
        <pt x="327" y="-212" on="0"/>
        <pt x="305" y="-212" on="1"/>
        <pt x="283" y="-212" on="0"/>
        <pt x="254" y="-243" on="0"/>
      </contour>
      <contour>
        <pt x="486" y="269" on="1"/>
        <pt x="486" y="355" on="0"/>
        <pt x="445" y="415" on="1"/>
        <pt x="445" y="145" on="1"/>
        <pt x="486" y="196" on="0"/>
      </contour>
      <contour>
        <pt x="163" y="-266" on="1"/>
        <pt x="163" y="-237" on="0"/>
        <pt x="185" y="-186" on="0"/>
        <pt x="223" y="-148" on="0"/>
        <pt x="274" y="-125" on="0"/>
        <pt x="303" y="-125" on="1"/>
        <pt x="333" y="-125" on="0"/>
        <pt x="361" y="-137" on="1"/>
        <pt x="360" y="-8" on="1"/>
        <pt x="327" y="-15" on="0"/>
        <pt x="288" y="-15" on="1"/>
        <pt x="164" y="-15" on="0"/>
        <pt x="81" y="65" on="1"/>
        <pt x="0" y="144" on="0"/>
        <pt x="0" y="269" on="1"/>
        <pt x="0" y="415" on="0"/>
        <pt x="80" y="501" on="1"/>
        <pt x="98" y="519" on="0"/>
        <pt x="137" y="545" on="0"/>
        <pt x="169" y="561" on="1"/>
        <pt x="180" y="533" on="0"/>
        <pt x="193" y="505" on="0"/>
        <pt x="204" y="479" on="1"/>
        <pt x="180" y="467" on="0"/>
        <pt x="151" y="449" on="0"/>
        <pt x="141" y="439" on="1"/>
        <pt x="85" y="375" on="0"/>
        <pt x="85" y="269" on="1"/>
        <pt x="85" y="182" on="0"/>
        <pt x="143" y="127" on="1"/>
        <pt x="201" y="70" on="0"/>
        <pt x="288" y="70" on="1"/>
        <pt x="307" y="70" on="0"/>
        <pt x="346" y="78" on="0"/>
        <pt x="360" y="82" on="1"/>
        <pt x="360" y="480" on="1"/>
        <pt x="402" y="559" on="1"/>
        <pt x="455" y="535" on="0"/>
        <pt x="489" y="500" on="1"/>
        <pt x="570" y="410" on="0"/>
        <pt x="570" y="269" on="1"/>
        <pt x="570" y="144" on="0"/>
        <pt x="491" y="65" on="1"/>
        <pt x="480" y="54" on="0"/>
        <pt x="454" y="33" on="0"/>
        <pt x="445" y="27" on="1"/>
        <pt x="445" y="-184" on="1"/>
        <pt x="644" y="-303" on="1"/>
        <pt x="644" y="354" on="1"/>
        <pt x="643" y="404" on="0"/>
        <pt x="620" y="476" on="0"/>
        <pt x="583" y="529" on="0"/>
        <pt x="535" y="569" on="0"/>
        <pt x="510" y="589" on="1"/>
        <pt x="487" y="605" on="0"/>
        <pt x="444" y="644" on="0"/>
        <pt x="407" y="694" on="0"/>
        <pt x="382" y="759" on="0"/>
        <pt x="379" y="801" on="1"/>
        <pt x="380" y="843" on="0"/>
        <pt x="410" y="920" on="0"/>
        <pt x="440" y="949" on="1"/>
        <pt x="502" y="1011" on="0"/>
        <pt x="591" y="1011" on="1"/>
        <pt x="681" y="1011" on="0"/>
        <pt x="738" y="949" on="1"/>
        <pt x="764" y="925" on="0"/>
        <pt x="782" y="883" on="1"/>
        <pt x="705" y="849" on="1"/>
        <pt x="696" y="868" on="0"/>
        <pt x="686" y="884" on="0"/>
        <pt x="679" y="891" on="1"/>
        <pt x="644" y="927" on="0"/>
        <pt x="589" y="927" on="1"/>
        <pt x="531" y="927" on="0"/>
        <pt x="462" y="856" on="0"/>
        <pt x="462" y="799" on="1"/>
        <pt x="465" y="769" on="0"/>
        <pt x="485" y="723" on="0"/>
        <pt x="515" y="685" on="0"/>
        <pt x="554" y="651" on="0"/>
        <pt x="575" y="634" on="1"/>
        <pt x="603" y="612" on="0"/>
        <pt x="659" y="560" on="0"/>
        <pt x="703" y="489" on="0"/>
        <pt x="730" y="394" on="0"/>
        <pt x="728" y="329" on="1"/>
        <pt x="728" y="-324" on="1"/>
        <pt x="728" y="-412" on="0"/>
        <pt x="645" y="-407" on="1"/>
        <pt x="442" y="-288" on="1"/>
        <pt x="440" y="-301" on="0"/>
        <pt x="414" y="-350" on="0"/>
        <pt x="377" y="-386" on="0"/>
        <pt x="329" y="-407" on="0"/>
        <pt x="303" y="-407" on="1"/>
        <pt x="274" y="-407" on="0"/>
        <pt x="223" y="-384" on="0"/>
        <pt x="185" y="-347" on="0"/>
        <pt x="163" y="-295" on="0"/>
      </contour>
    </TTGlyph>
    <TTGlyph name="KT_QN" xMin="0" yMin="-413" xMax="1220" yMax="1010">
      <contour>
        <pt x="692" y="-265" on="1"/>
        <pt x="692" y="-287" on="0"/>
        <pt x="722" y="-317" on="0"/>
        <pt x="744" y="-317" on="1"/>
        <pt x="765" y="-317" on="0"/>
        <pt x="796" y="-287" on="0"/>
        <pt x="796" y="-265" on="1"/>
        <pt x="796" y="-244" on="0"/>
        <pt x="765" y="-213" on="0"/>
        <pt x="744" y="-213" on="1"/>
        <pt x="722" y="-213" on="0"/>
        <pt x="692" y="-244" on="0"/>
      </contour>
      <contour>
        <pt x="601" y="-267" on="1"/>
        <pt x="601" y="-238" on="0"/>
        <pt x="624" y="-187" on="0"/>
        <pt x="661" y="-149" on="0"/>
        <pt x="712" y="-126" on="0"/>
        <pt x="741" y="-126" on="1"/>
        <pt x="756" y="-126" on="0"/>
        <pt x="791" y="-135" on="0"/>
        <pt x="798" y="-138" on="1"/>
        <pt x="798" y="-5" on="1"/>
        <pt x="789" y="-6" on="0"/>
        <pt x="752" y="-10" on="0"/>
        <pt x="736" y="-10" on="1"/>
        <pt x="696" y="-10" on="0"/>
        <pt x="649" y="0" on="1"/>
        <pt x="661" y="27" on="0"/>
        <pt x="669" y="57" on="0"/>
        <pt x="677" y="81" on="1"/>
        <pt x="697" y="78" on="0"/>
        <pt x="720" y="76" on="0"/>
        <pt x="736" y="76" on="1"/>
        <pt x="823" y="76" on="0"/>
        <pt x="877" y="133" on="1"/>
        <pt x="935" y="191" on="0"/>
        <pt x="935" y="276" on="1"/>
        <pt x="935" y="360" on="0"/>
        <pt x="877" y="417" on="1"/>
        <pt x="823" y="474" on="0"/>
        <pt x="736" y="474" on="1"/>
        <pt x="650" y="474" on="0"/>
        <pt x="591" y="418" on="1"/>
        <pt x="568" y="394" on="0"/>
        <pt x="556" y="371" on="1"/>
        <pt x="570" y="327" on="0"/>
        <pt x="570" y="275" on="1"/>
        <pt x="570" y="133" on="0"/>
        <pt x="490" y="44" on="1"/>
        <pt x="473" y="26" on="0"/>
        <pt x="434" y="-2" on="0"/>
        <pt x="402" y="-15" on="1"/>
        <pt x="390" y="10" on="0"/>
        <pt x="375" y="35" on="0"/>
        <pt x="363" y="62" on="1"/>
        <pt x="389" y="74" on="0"/>
        <pt x="415" y="94" on="0"/>
        <pt x="429" y="107" on="1"/>
        <pt x="487" y="171" on="0"/>
        <pt x="487" y="275" on="1"/>
        <pt x="487" y="359" on="0"/>
        <pt x="429" y="416" on="1"/>
        <pt x="375" y="473" on="0"/>
        <pt x="288" y="473" on="1"/>
        <pt x="202" y="473" on="0"/>
        <pt x="143" y="417" on="1"/>
        <pt x="86" y="360" on="0"/>
        <pt x="86" y="275" on="1"/>
        <pt x="86" y="268" on="1"/>
        <pt x="98" y="269" on="0"/>
        <pt x="102" y="269" on="1"/>
        <pt x="131" y="269" on="0"/>
        <pt x="183" y="246" on="0"/>
        <pt x="220" y="209" on="0"/>
        <pt x="243" y="157" on="0"/>
        <pt x="243" y="128" on="1"/>
        <pt x="243" y="99" on="0"/>
        <pt x="220" y="48" on="0"/>
        <pt x="183" y="10" on="0"/>
        <pt x="131" y="-12" on="0"/>
        <pt x="102" y="-12" on="1"/>
        <pt x="77" y="-12" on="0"/>
        <pt x="30" y="4" on="0"/>
        <pt x="6" y="25" on="1"/>
        <pt x="57" y="103" on="1"/>
        <pt x="81" y="79" on="0"/>
        <pt x="104" y="79" on="1"/>
        <pt x="125" y="79" on="0"/>
        <pt x="156" y="108" on="0"/>
        <pt x="156" y="130" on="1"/>
        <pt x="156" y="150" on="0"/>
        <pt x="126" y="182" on="0"/>
        <pt x="105" y="183" on="1"/>
        <pt x="101" y="185" on="0"/>
        <pt x="96" y="184" on="0"/>
        <pt x="88" y="184" on="1"/>
        <pt x="78" y="184" on="0"/>
        <pt x="49" y="185" on="0"/>
        <pt x="20" y="203" on="0"/>
        <pt x="1" y="240" on="0"/>
        <pt x="0" y="275" on="1"/>
        <pt x="0" y="399" on="0"/>
        <pt x="81" y="479" on="1"/>
        <pt x="164" y="559" on="0"/>
        <pt x="288" y="559" on="1"/>
        <pt x="411" y="559" on="0"/>
        <pt x="491" y="479" on="1"/>
        <pt x="498" y="471" on="1"/>
        <pt x="501" y="467" on="0"/>
        <pt x="508" y="459" on="0"/>
        <pt x="509" y="457" on="1"/>
        <pt x="515" y="463" on="1"/>
        <pt x="511" y="463" on="1"/>
        <pt x="612" y="560" on="0"/>
        <pt x="736" y="560" on="1"/>
        <pt x="859" y="560" on="0"/>
        <pt x="939" y="480" on="1"/>
        <pt x="1018" y="401" on="0"/>
        <pt x="1018" y="276" on="1"/>
        <pt x="1018" y="152" on="0"/>
        <pt x="938" y="70" on="1"/>
        <pt x="926" y="56" on="0"/>
        <pt x="896" y="35" on="0"/>
        <pt x="883" y="27" on="1"/>
        <pt x="883" y="-185" on="1"/>
        <pt x="1082" y="-304" on="1"/>
        <pt x="1082" y="353" on="1"/>
        <pt x="1081" y="403" on="0"/>
        <pt x="1058" y="475" on="0"/>
        <pt x="1021" y="528" on="0"/>
        <pt x="973" y="568" on="0"/>
        <pt x="948" y="588" on="1"/>
        <pt x="926" y="604" on="0"/>
        <pt x="882" y="643" on="0"/>
        <pt x="845" y="693" on="0"/>
        <pt x="820" y="758" on="0"/>
        <pt x="817" y="800" on="1"/>
        <pt x="818" y="842" on="0"/>
        <pt x="848" y="919" on="0"/>
        <pt x="878" y="948" on="1"/>
        <pt x="940" y="1010" on="0"/>
        <pt x="1029" y="1010" on="1"/>
        <pt x="1118" y="1010" on="0"/>
        <pt x="1177" y="948" on="1"/>
        <pt x="1202" y="923" on="0"/>
        <pt x="1220" y="882" on="1"/>
        <pt x="1143" y="848" on="1"/>
        <pt x="1134" y="867" on="0"/>
        <pt x="1124" y="883" on="0"/>
        <pt x="1117" y="890" on="1"/>
        <pt x="1082" y="926" on="0"/>
        <pt x="1027" y="926" on="1"/>
        <pt x="970" y="926" on="0"/>
        <pt x="900" y="855" on="0"/>
        <pt x="900" y="798" on="1"/>
        <pt x="903" y="768" on="0"/>
        <pt x="923" y="722" on="0"/>
        <pt x="953" y="684" on="0"/>
        <pt x="992" y="650" on="0"/>
        <pt x="1013" y="633" on="1"/>
        <pt x="1041" y="611" on="0"/>
        <pt x="1097" y="559" on="0"/>
        <pt x="1141" y="488" on="0"/>
        <pt x="1168" y="393" on="0"/>
        <pt x="1166" y="328" on="1"/>
        <pt x="1166" y="-325" on="1"/>
        <pt x="1166" y="-413" on="0"/>
        <pt x="1083" y="-408" on="1"/>
        <pt x="880" y="-289" on="1"/>
        <pt x="878" y="-302" on="0"/>
        <pt x="852" y="-351" on="0"/>
        <pt x="815" y="-387" on="0"/>
        <pt x="767" y="-408" on="0"/>
        <pt x="741" y="-408" on="1"/>
        <pt x="712" y="-408" on="0"/>
        <pt x="661" y="-385" on="0"/>
        <pt x="624" y="-348" on="0"/>
        <pt x="601" y="-296" on="0"/>
      </contour>
    </TTGlyph>
    <TTGlyph name="L" xMin="82" yMin="0" xMax="523" yMax="688">
      <contour>
        <pt x="82" y="0" on="1"/>
        <pt x="82" y="688" on="1"/>
        <pt x="175" y="688" on="1"/>
        <pt x="175" y="76" on="1"/>
        <pt x="523" y="76" on="1"/>
        <pt x="523" y="0" on="1"/>
      </contour>
    </TTGlyph>
    <TTGlyph name="LES_REDUP" xMin="31" yMin="576" xMax="448" yMax="1004">
      <contour>
        <pt x="31" y="608" on="1"/>
        <pt x="225" y="1004" on="1"/>
        <pt x="298" y="965" on="1"/>
        <pt x="96" y="576" on="1"/>
      </contour>
      <contour>
        <pt x="181" y="608" on="1"/>
        <pt x="375" y="1004" on="1"/>
        <pt x="448" y="965" on="1"/>
        <pt x="246" y="576" on="1"/>
      </contour>
    </TTGlyph>
</ttFont>
